<svg width="239" height="57" viewBox="0 0 239 57" fill="none" xmlns="http://www.w3.org/2000/svg">
<path d="M1.22495 18.5499L1.25995 8.32994C1.25995 6.90661 1.15495 5.66994 0.944951 4.61994C0.758285 3.56994 0.548285 2.91661 0.314951 2.65994L-4.87082e-05 2.30994L0.174951 1.18994H6.40495V1.39994C5.82162 2.26327 5.52995 4.57327 5.52995 8.32994L5.49495 18.5499C5.49495 19.9733 5.59995 21.2099 5.80995 22.2599C6.04328 23.3099 6.28828 23.9633 6.54495 24.2199L6.89495 24.5699L6.71995 25.6899H0.314951V25.4799C0.921618 24.4533 1.22495 22.1433 1.22495 18.5499ZM19.74 24.5699L19.565 25.6899H13.86C12.7866 21.7933 11.5733 18.7716 10.22 16.6249C8.88995 14.4783 7.60662 13.4166 6.36995 13.4399L6.19495 12.7399C11.1416 6.92994 13.0433 3.45327 11.9 2.30994L12.075 1.18994H18.375V1.39994C17.9783 1.93661 16.4966 3.69827 13.93 6.68494C11.4566 9.53161 9.97495 11.2816 9.48495 11.9349H12.005C13.125 13.1949 14.175 14.7349 15.155 16.5549C15.5516 17.2783 16.1116 18.3633 16.835 19.8099C17.5816 21.2333 18.165 22.3066 18.585 23.0299C19.005 23.7299 19.39 24.2433 19.74 24.5699ZM20.1195 13.5449C20.1195 10.0683 21.2045 7.03494 23.3745 4.44494C25.5911 1.85494 28.2161 0.55994 31.2495 0.55994C34.4228 0.55994 37.0245 1.69161 39.0545 3.95494C41.0845 6.19494 42.0995 9.29827 42.0995 13.2649C42.0995 16.8116 40.9795 19.8683 38.7395 22.4349C36.5461 24.9783 33.9561 26.2499 30.9695 26.2499C27.9128 26.2499 25.3345 25.1416 23.2345 22.9249C21.1578 20.6616 20.1195 17.5349 20.1195 13.5449ZM37.2695 13.5099C37.2695 10.2899 36.6862 7.71161 35.5195 5.77494C34.3528 3.83827 32.7895 2.86994 30.8295 2.86994C29.1961 2.86994 27.7961 3.83827 26.6295 5.77494C25.5095 7.68827 24.9495 10.1966 24.9495 13.2999C24.9495 16.5666 25.5211 19.1333 26.6645 20.9999C27.8311 22.8666 29.3945 23.7999 31.3545 23.7999C32.9878 23.7999 34.3761 22.8433 35.5195 20.9299C36.6862 18.9933 37.2695 16.5199 37.2695 13.5099ZM60.4048 16.1349L63.4148 16.8349C63.2514 17.9083 62.9481 18.9699 62.5048 20.0199C62.0614 21.0466 61.4781 22.0266 60.7548 22.9599C60.0548 23.8933 59.1681 24.6516 58.0948 25.2349C57.0214 25.7949 55.8431 26.0749 54.5598 26.0749C51.5498 26.0749 49.2048 25.0716 47.5248 23.0649C45.8448 21.0583 44.9698 18.1999 44.8998 14.4899C44.8531 11.0366 45.7748 7.95661 47.6648 5.24994C48.5981 3.89661 49.8814 2.83494 51.5148 2.06494C53.1481 1.27161 54.9681 0.87494 56.9748 0.87494L61.9098 1.18994L60.2298 8.53994L59.1448 8.36494C59.1448 7.80494 59.0981 7.19827 59.0048 6.54494C58.7248 4.35161 57.6514 3.20827 55.7848 3.11494C54.0114 3.11494 52.5531 4.14161 51.4098 6.19494C50.2898 8.24827 49.7298 10.8266 49.7298 13.9299C49.7298 16.7533 50.2431 18.9933 51.2698 20.6499C52.2964 22.2833 53.6614 23.0999 55.3648 23.0999C56.9748 23.0999 58.2348 22.3299 59.1448 20.7899C60.0781 19.2499 60.4981 17.6983 60.4048 16.1349ZM90.5255 25.6899H84.2255V25.4799C84.6222 24.3833 84.7272 22.0849 84.5405 18.5849L84.0155 12.6349L83.8755 10.8149H83.8055L77.5755 23.6949H76.9105L71.7655 11.1649H71.6955L68.9655 20.0199C68.7322 20.7433 68.6155 21.4083 68.6155 22.0149C68.6155 22.6216 68.6622 23.0649 68.7555 23.3449C68.8722 23.6249 69.0122 23.9049 69.1755 24.1849C69.3622 24.4416 69.4555 24.5816 69.4555 24.6049L69.2805 25.6899H63.2255V25.4799C63.4355 25.2699 63.8089 24.6983 64.3455 23.7649C64.9055 22.7383 65.3489 21.7816 65.6755 20.8949L70.3305 7.94494L69.5955 6.12494C68.7789 4.18827 67.9389 2.90494 67.0755 2.27494L67.2855 1.18994H72.5355L77.5405 13.7549L78.4855 16.0649H78.6255L86.3955 0.279941H87.2355L88.7755 18.5849C89.0322 21.5949 89.6272 23.5666 90.5605 24.4999L90.7005 24.6049L90.5255 25.6899ZM98.6729 8.29494V14.7349V17.5699H98.7429L111.658 -5.9545e-05L112.778 0.34994C112.195 1.86661 111.903 4.50327 111.903 8.25994V18.5849C111.903 21.7116 112.311 23.6833 113.128 24.4999L113.268 24.6049L113.093 25.6899H106.723V25.4799C107.33 24.4533 107.633 22.1549 107.633 18.5849V12.2149V10.2199H107.563L94.6829 26.4599L93.5279 26.1099C94.1112 24.5933 94.4029 21.9566 94.4029 18.1999V8.29494C94.4029 6.87161 94.2862 5.63494 94.0529 4.58494C93.8429 3.53494 93.6095 2.88161 93.3529 2.62494L93.0029 2.27494L93.1779 1.18994H99.5829V1.39994C98.9762 2.42661 98.6729 4.72494 98.6729 8.29494ZM120.712 8.53994C120.712 10.1966 121.027 11.5033 121.657 12.4599C122.31 13.4166 123.162 13.8949 124.212 13.8949C126.032 13.8949 127.537 12.4599 128.727 9.58994C129.59 7.55994 130.267 4.75994 130.757 1.18994H133.977V1.39994C133.394 2.26327 133.102 4.52661 133.102 8.18994L133.067 18.5499C133.067 19.9733 133.172 21.2099 133.382 22.2599C133.615 23.3099 133.86 23.9633 134.117 24.2199L134.467 24.5699L134.292 25.6899H127.887V25.4799C128.167 25.0366 128.412 23.5433 128.622 20.9999C128.785 19.4833 128.902 16.9983 128.972 13.5449H128.867C128.727 13.7783 128.4 14.1749 127.887 14.7349C126.557 16.1116 124.935 16.8349 123.022 16.9049C121.179 16.9049 119.592 16.2166 118.262 14.8399C116.955 13.4633 116.302 11.3516 116.302 8.50494C116.302 8.13161 116.36 7.38494 116.477 6.26494C116.594 5.12161 116.64 4.39827 116.617 4.09494C116.594 3.30161 116.36 2.70661 115.917 2.30994L116.092 1.18994H122.252V1.39994C121.225 3.94327 120.712 6.32327 120.712 8.53994ZM155.028 21.1049L153.208 25.6899H138.298V25.4799C138.928 24.4533 139.243 22.1549 139.243 18.5849V8.25994C139.243 7.39661 139.208 6.62661 139.138 5.94994C139.092 5.27327 138.998 4.72494 138.858 4.30494C138.742 3.88494 138.637 3.55827 138.543 3.32494C138.45 3.09161 138.333 2.86994 138.193 2.65994C138.077 2.42661 138.007 2.28661 137.983 2.23994L138.158 1.15494H143.968C148.052 1.15494 150.805 1.04994 152.228 0.83994L152.928 0.734939L153.523 1.32994L151.913 5.00494H151.668C151.318 4.79494 150.992 4.63161 150.688 4.51494C150.198 4.30494 149.277 4.07161 147.923 3.81494C146.57 3.51161 145.1 3.39494 143.513 3.46494V11.8299C145.147 11.7133 146.512 11.5499 147.608 11.3399C148.915 11.1066 149.825 10.8966 150.338 10.7099L151.178 10.4299L151.808 10.9899L150.478 14.1749H143.513V23.3099C145.73 23.2866 147.783 23.0299 149.673 22.5399C151.4 22.0966 152.602 21.6533 153.278 21.2099L154.188 20.5449L155.028 21.1049ZM171.249 16.1349L174.259 16.8349C174.096 17.9083 173.793 18.9699 173.349 20.0199C172.906 21.0466 172.323 22.0266 171.599 22.9599C170.899 23.8933 170.013 24.6516 168.939 25.2349C167.866 25.7949 166.688 26.0749 165.404 26.0749C162.394 26.0749 160.049 25.0716 158.369 23.0649C156.689 21.0583 155.814 18.1999 155.744 14.4899C155.698 11.0366 156.619 7.95661 158.509 5.24994C159.443 3.89661 160.726 2.83494 162.359 2.06494C163.993 1.27161 165.813 0.87494 167.819 0.87494L172.754 1.18994L171.074 8.53994L169.989 8.36494C169.989 7.80494 169.943 7.19827 169.849 6.54494C169.569 4.35161 168.496 3.20827 166.629 3.11494C164.856 3.11494 163.398 4.14161 162.254 6.19494C161.134 8.24827 160.574 10.8266 160.574 13.9299C160.574 16.7533 161.088 18.9933 162.114 20.6499C163.141 22.2833 164.506 23.0999 166.209 23.0999C167.819 23.0999 169.079 22.3299 169.989 20.7899C170.923 19.2499 171.343 17.6983 171.249 16.1349ZM177.387 18.5499L177.422 8.32994C177.422 6.90661 177.317 5.66994 177.107 4.61994C176.92 3.56994 176.71 2.91661 176.477 2.65994L176.162 2.30994L176.337 1.18994H182.567V1.39994C181.984 2.26327 181.692 4.57327 181.692 8.32994L181.657 18.5499C181.657 19.9733 181.762 21.2099 181.972 22.2599C182.205 23.3099 182.45 23.9633 182.707 24.2199L183.057 24.5699L182.882 25.6899H176.477V25.4799C177.084 24.4533 177.387 22.1433 177.387 18.5499ZM195.902 24.5699L195.727 25.6899H190.022C188.949 21.7933 187.735 18.7716 186.382 16.6249C185.052 14.4783 183.769 13.4166 182.532 13.4399L182.357 12.7399C187.304 6.92994 189.205 3.45327 188.062 2.30994L188.237 1.18994H194.537V1.39994C194.14 1.93661 192.659 3.69827 190.092 6.68494C187.619 9.53161 186.137 11.2816 185.647 11.9349H188.167C189.287 13.1949 190.337 14.7349 191.317 16.5549C191.714 17.2783 192.274 18.3633 192.997 19.8099C193.744 21.2333 194.327 22.3066 194.747 23.0299C195.167 23.7299 195.552 24.2433 195.902 24.5699ZM196.282 13.5449C196.282 10.0683 197.367 7.03494 199.537 4.44494C201.753 1.85494 204.378 0.55994 207.412 0.55994C210.585 0.55994 213.187 1.69161 215.217 3.95494C217.247 6.19494 218.262 9.29827 218.262 13.2649C218.262 16.8116 217.142 19.8683 214.902 22.4349C212.708 24.9783 210.118 26.2499 207.132 26.2499C204.075 26.2499 201.497 25.1416 199.397 22.9249C197.32 20.6616 196.282 17.5349 196.282 13.5449ZM213.432 13.5099C213.432 10.2899 212.848 7.71161 211.682 5.77494C210.515 3.83827 208.952 2.86994 206.992 2.86994C205.358 2.86994 203.958 3.83827 202.792 5.77494C201.672 7.68827 201.112 10.1966 201.112 13.2999C201.112 16.5666 201.683 19.1333 202.827 20.9999C203.993 22.8666 205.557 23.7999 207.517 23.7999C209.15 23.7999 210.538 22.8433 211.682 20.9299C212.848 18.9933 213.432 16.5199 213.432 13.5099ZM238.085 21.1049L236.265 25.6899H221.355V25.4799C221.985 24.4533 222.3 22.1549 222.3 18.5849V8.25994C222.3 7.39661 222.265 6.62661 222.195 5.94994C222.148 5.27327 222.055 4.72494 221.915 4.30494C221.798 3.88494 221.693 3.55827 221.6 3.32494C221.507 3.09161 221.39 2.86994 221.25 2.65994C221.133 2.42661 221.063 2.28661 221.04 2.23994L221.215 1.15494H227.025C231.108 1.15494 233.862 1.04994 235.285 0.83994L235.985 0.734939L236.58 1.32994L234.97 5.00494H234.725C234.375 4.79494 234.048 4.63161 233.745 4.51494C233.255 4.30494 232.333 4.07161 230.98 3.81494C229.627 3.51161 228.157 3.39494 226.57 3.46494V11.8299C228.203 11.7133 229.568 11.5499 230.665 11.3399C231.972 11.1066 232.882 10.8966 233.395 10.7099L234.235 10.4299L234.865 10.9899L233.535 14.1749H226.57V23.3099C228.787 23.2866 230.84 23.0299 232.73 22.5399C234.457 22.0966 235.658 21.6533 236.335 21.2099L237.245 20.5449L238.085 21.1049ZM43.2509 43.1949C43.2509 40.3249 44.2309 37.9216 46.1909 35.9849C48.2209 34.0249 50.6593 32.8933 53.5059 32.5899C53.3426 31.9599 53.1326 31.5166 52.8759 31.2599L52.7709 31.1549L52.9459 30.0699H59.0009V30.2799C58.7909 30.6066 58.5926 31.3649 58.4059 32.5549C61.4859 32.7649 63.9476 33.7566 65.7909 35.5299C67.6809 37.2799 68.6259 39.7416 68.6259 42.9149C68.6259 45.7849 67.6459 48.1883 65.6859 50.1249C63.7493 52.0383 61.3343 53.1699 58.4409 53.5199C58.6976 54.6166 58.9893 55.2816 59.3159 55.5149L59.4909 55.6549L59.3159 56.7399H53.0859V56.5649C53.3893 56.0283 53.6343 55.0483 53.8209 53.6249C50.6943 53.4616 48.1393 52.4933 46.1559 50.7199C44.2193 48.9233 43.2509 46.4149 43.2509 43.1949ZM47.8709 42.9499C47.8709 45.4466 48.3959 47.4416 49.4459 48.9349C50.5193 50.4049 52.0359 51.2683 53.9959 51.5249C54.0193 51.2683 54.0309 50.6383 54.0309 49.6349V37.1749C54.0309 36.2183 53.9959 35.3899 53.9259 34.6899C52.1993 34.8766 50.7526 35.6933 49.5859 37.1399C48.4426 38.5633 47.8709 40.4999 47.8709 42.9499ZM58.1259 51.4199C59.8526 51.1866 61.2643 50.3349 62.3609 48.8649C63.4576 47.3949 64.0059 45.4933 64.0059 43.1599C64.0059 40.7333 63.5043 38.7849 62.5009 37.3149C61.4976 35.8216 60.0626 34.9116 58.1959 34.5849C58.1493 35.2383 58.1259 36.1016 58.1259 37.1749L58.0909 49.6349C58.0909 50.5916 58.1026 51.1866 58.1259 51.4199ZM76.4796 30.8749C80.3763 30.8749 83.3513 32.0416 85.4046 34.3749C87.5046 36.7316 88.5546 39.6366 88.5546 43.0899C88.5546 46.6366 87.5396 49.6933 85.5096 52.2599C83.4796 54.8033 81.0646 56.0749 78.2646 56.0749C75.8146 56.0749 73.9246 55.2933 72.5946 53.7299C71.2879 52.1433 70.5529 50.1949 70.3896 47.8849L73.6796 47.0799C73.6096 48.9466 73.9713 50.4749 74.7646 51.6649C75.5813 52.8549 76.6896 53.4499 78.0896 53.4499C79.6763 53.4499 80.9946 52.5166 82.0446 50.6499C83.1413 48.7599 83.7013 46.3099 83.7246 43.2999C82.3479 43.3233 80.8663 43.4749 79.2796 43.7549C77.8096 44.0116 76.7946 44.2333 76.2346 44.4199L75.2896 44.7349L74.6596 44.1749L75.9896 40.9199H83.6196C83.3396 38.4933 82.6046 36.5799 81.4146 35.1799C80.2713 33.7566 78.8713 33.0449 77.2146 33.0449C76.0713 33.0449 75.0796 33.5699 74.2396 34.6199C73.4229 35.6466 72.8396 36.6733 72.4896 37.6999L72.2796 38.2249L70.9146 38.0499L72.5596 31.2249C74.1229 30.9916 75.4296 30.8749 76.4796 30.8749ZM91.6431 32.6599L91.3281 32.3099L91.5031 31.1899H97.7331V31.3999C97.1497 32.2633 96.8581 34.5733 96.8581 38.3299V41.6199L106.098 41.1299V38.3299C106.098 35.1333 105.736 33.1733 105.013 32.4499L104.873 32.3099L105.048 31.1899H111.243V31.3999C110.683 32.2866 110.403 34.5966 110.403 38.3299L110.368 48.5499C110.368 49.9733 110.473 51.2099 110.683 52.2599C110.916 53.3099 111.161 53.9633 111.418 54.2199L111.768 54.5699L111.593 55.6899H105.188V55.4799C105.795 54.4533 106.098 52.1433 106.098 48.5499V44.0349H96.8581V48.5499C96.8581 49.8099 96.9397 50.9066 97.1031 51.8399C97.2664 52.7499 97.4297 53.3799 97.5931 53.7299C97.7564 54.0799 97.9197 54.3133 98.0831 54.4299L98.2231 54.5699L98.0481 55.6899H91.6431V55.4799C92.2731 54.4533 92.5881 52.1433 92.5881 48.5499V38.3299C92.5881 36.9066 92.4831 35.6699 92.2731 34.6199C92.0864 33.5699 91.8764 32.9166 91.6431 32.6599ZM112.645 35.9499L115.34 31.1899H125.945C129.049 31.1433 131.125 31.0499 132.175 30.9099L132.7 30.8049L133.295 31.3649L131.44 35.3199H131.195C129.725 34.4099 127.672 33.8849 125.035 33.7449V48.5499C125.035 49.9733 125.14 51.2099 125.35 52.2599C125.584 53.3099 125.829 53.9633 126.085 54.2199L126.435 54.5699L126.26 55.6899H119.855V55.4799C120.485 54.4533 120.8 52.1433 120.8 48.5499V33.9549C119.237 34.0949 117.825 34.3749 116.565 34.7949C115.329 35.2149 114.5 35.6233 114.08 36.0199L113.52 36.5099L112.645 35.9499ZM151.918 51.1049L150.098 55.6899H135.188V55.4799C135.818 54.4533 136.133 52.1549 136.133 48.5849V38.2599C136.133 37.3966 136.098 36.6266 136.028 35.9499C135.981 35.2733 135.888 34.7249 135.748 34.3049C135.631 33.8849 135.526 33.5583 135.433 33.3249C135.34 33.0916 135.223 32.8699 135.083 32.6599C134.966 32.4266 134.896 32.2866 134.873 32.2399L135.048 31.1549H140.858C144.941 31.1549 147.695 31.0499 149.118 30.8399L149.818 30.7349L150.413 31.3299L148.803 35.0049H148.558C148.208 34.7949 147.881 34.6316 147.578 34.5149C147.088 34.3049 146.166 34.0716 144.813 33.8149C143.46 33.5116 141.99 33.3949 140.403 33.4649V41.8299C142.036 41.7133 143.401 41.5499 144.498 41.3399C145.805 41.1066 146.715 40.8966 147.228 40.7099L148.068 40.4299L148.698 40.9899L147.368 44.1749H140.403V53.3099C142.62 53.2866 144.673 53.0299 146.563 52.5399C148.29 52.0966 149.491 51.6533 150.168 51.2099L151.078 50.5449L151.918 51.1049ZM170.109 31.1899L170.249 31.6099C166.819 34.3166 165.104 36.5216 165.104 38.2249C165.104 39.0183 165.862 40.2666 167.379 41.9699C168.919 43.6033 169.689 45.3183 169.689 47.1149C169.689 49.7516 168.767 51.9216 166.924 53.6249C165.08 55.3283 163.155 56.1799 161.149 56.1799C159.562 56.1799 157.999 55.7133 156.459 54.7799C155.595 54.2666 154.849 53.4499 154.219 52.3299C153.612 51.1866 153.204 49.8566 152.994 48.3399L156.634 47.2899C156.657 48.8999 157.054 50.3699 157.824 51.6999C158.57 53.0066 159.55 53.6599 160.764 53.6599C161.837 53.6599 162.794 53.2049 163.634 52.2949C164.474 51.3383 164.894 50.1949 164.894 48.8649C164.894 46.9283 164.194 45.0849 162.794 43.3349C161.814 42.0049 160.939 41.0133 160.169 40.3599V40.0799L165.034 33.8499C162.934 33.9666 161.009 34.2233 159.259 34.6199C157.415 35.0399 156.109 35.4366 155.339 35.8099L154.149 36.3349L153.309 35.8099L155.199 31.1899H170.109ZM178.482 38.2949V44.7349V47.5699H178.552L191.467 29.9999L192.587 30.3499C192.004 31.8666 191.712 34.5033 191.712 38.2599V48.5849C191.712 51.7116 192.121 53.6833 192.937 54.4999L193.077 54.6049L192.902 55.6899H186.532V55.4799C187.139 54.4533 187.442 52.1549 187.442 48.5849V42.2149V40.2199H187.372L174.492 56.4599L173.337 56.1099C173.921 54.5933 174.212 51.9566 174.212 48.1999V38.2949C174.212 36.8716 174.096 35.6349 173.862 34.5849C173.652 33.5349 173.419 32.8816 173.162 32.6249L172.812 32.2749L172.987 31.1899H179.392V31.3999C178.786 32.4266 178.482 34.7249 178.482 38.2949Z" fill="white"/>
</svg>
