<svg width="236" height="87" viewBox="0 0 236 87" fill="none" xmlns="http://www.w3.org/2000/svg">
<path d="M31.7046 8.29494V14.7349V17.5699H31.7746L44.6896 -5.9545e-05L45.8096 0.34994C45.2263 1.86661 44.9346 4.50327 44.9346 8.25994V18.5849C44.9346 21.7116 45.343 23.6833 46.1596 24.4999L46.2996 24.6049L46.1246 25.6899H39.7546V25.4799C40.3613 24.4533 40.6646 22.1549 40.6646 18.5849V12.2149V10.2199H40.5946L27.7146 26.4599L26.5596 26.1099C27.143 24.5933 27.4346 21.9566 27.4346 18.1999V8.29494C27.4346 6.87161 27.318 5.63494 27.0846 4.58494C26.8746 3.53494 26.6413 2.88161 26.3846 2.62494L26.0346 2.27494L26.2096 1.18994H32.6146V1.39994C32.008 2.42661 31.7046 4.72494 31.7046 8.29494ZM75.3737 25.6899H69.0737V25.4799C69.4703 24.3833 69.5753 22.0849 69.3887 18.5849L68.8637 12.6349L68.7237 10.8149H68.6537L62.4237 23.6949H61.7587L56.6137 11.1649H56.5437L53.8137 20.0199C53.5803 20.7433 53.4637 21.4083 53.4637 22.0149C53.4637 22.6216 53.5103 23.0649 53.6037 23.3449C53.7203 23.6249 53.8603 23.9049 54.0237 24.1849C54.2103 24.4416 54.3037 24.5816 54.3037 24.6049L54.1287 25.6899H48.0737V25.4799C48.2837 25.2699 48.657 24.6983 49.1937 23.7649C49.7537 22.7383 50.197 21.7816 50.5237 20.8949L55.1787 7.94494L54.4437 6.12494C53.627 4.18827 52.787 2.90494 51.9237 2.27494L52.1337 1.18994H57.3837L62.3887 13.7549L63.3337 16.0649H63.4737L71.2437 0.279941H72.0837L73.6237 18.5849C73.8803 21.5949 74.4753 23.5666 75.4087 24.4999L75.5487 24.6049L75.3737 25.6899ZM92.236 3.21994L83.381 3.67494V18.5499C83.381 19.9733 83.486 21.2099 83.696 22.2599C83.9294 23.3099 84.1744 23.9633 84.431 24.2199L84.781 24.5699L84.571 25.6899H78.166V25.4799C78.796 24.4533 79.111 22.1433 79.111 18.5499V8.32994C79.111 6.90661 79.006 5.66994 78.796 4.61994C78.6094 3.56994 78.3994 2.91661 78.166 2.65994L77.851 2.30994L78.026 1.18994H97.381V1.39994C96.8444 2.26327 96.5527 4.57327 96.506 8.32994L96.471 18.5499C96.471 19.9733 96.576 21.2099 96.786 22.2599C97.0194 23.3099 97.2644 23.9633 97.521 24.2199L97.871 24.5699L97.696 25.6899H91.291V25.4799C91.8977 24.4533 92.201 22.1433 92.201 18.5499L92.236 3.21994ZM118.412 21.1049L116.592 25.6899H101.682V25.4799C102.312 24.4533 102.627 22.1549 102.627 18.5849V8.25994C102.627 7.39661 102.592 6.62661 102.522 5.94994C102.475 5.27327 102.382 4.72494 102.242 4.30494C102.125 3.88494 102.02 3.55827 101.927 3.32494C101.833 3.09161 101.717 2.86994 101.577 2.65994C101.46 2.42661 101.39 2.28661 101.367 2.23994L101.542 1.15494H107.352C111.435 1.15494 114.188 1.04994 115.612 0.83994L116.312 0.734939L116.907 1.32994L115.297 5.00494H115.052C114.702 4.79494 114.375 4.63161 114.072 4.51494C113.582 4.30494 112.66 4.07161 111.307 3.81494C109.953 3.51161 108.483 3.39494 106.897 3.46494V11.8299C108.53 11.7133 109.895 11.5499 110.992 11.3399C112.298 11.1066 113.208 10.8966 113.722 10.7099L114.562 10.4299L115.192 10.9899L113.862 14.1749H106.897V23.3099C109.113 23.2866 111.167 23.0299 113.057 22.5399C114.783 22.0966 115.985 21.6533 116.662 21.2099L117.572 20.5449L118.412 21.1049ZM120.651 2.65994L120.336 2.30994L120.511 1.18994H127.966C130.696 1.18994 132.89 1.59827 134.546 2.41494C136.6 3.32494 137.626 5.13327 137.626 7.83994C137.626 9.93994 136.681 11.8999 134.791 13.7199C132.948 15.5399 130.451 16.5199 127.301 16.6599L127.056 15.7499C128.666 15.4699 130.02 14.6299 131.116 13.2299C132.19 11.8533 132.726 10.1966 132.726 8.25994C132.726 6.62661 132.26 5.36661 131.326 4.47994C130.416 3.59327 129.238 3.14994 127.791 3.14994H125.901L125.831 18.5499C125.831 19.9733 125.936 21.2099 126.146 22.2599C126.38 23.3099 126.625 23.9633 126.881 24.2199L127.231 24.5699L127.056 25.6899H120.651V25.4799C121.258 24.4533 121.561 22.1433 121.561 18.5499V8.32994C121.561 6.90661 121.456 5.66994 121.246 4.61994C121.06 3.56994 120.861 2.91661 120.651 2.65994ZM145.215 8.29494V14.7349V17.5699H145.285L158.2 -5.9545e-05L159.32 0.34994C158.737 1.86661 158.445 4.50327 158.445 8.25994V18.5849C158.445 21.7116 158.854 23.6833 159.67 24.4999L159.81 24.6049L159.635 25.6899H153.265V25.4799C153.872 24.4533 154.175 22.1549 154.175 18.5849V12.2149V10.2199H154.105L141.225 26.4599L140.07 26.1099C140.654 24.5933 140.945 21.9566 140.945 18.1999V8.29494C140.945 6.87161 140.829 5.63494 140.595 4.58494C140.385 3.53494 140.152 2.88161 139.895 2.62494L139.545 2.27494L139.72 1.18994H146.125V1.39994C145.519 2.42661 145.215 4.72494 145.215 8.29494ZM163.544 9.37994C163.544 7.41994 164.431 5.58827 166.204 3.88494C168.164 2.08827 171.023 1.18994 174.779 1.18994H180.589V1.39994C180.006 2.33327 179.714 4.60827 179.714 8.22494V18.5499C179.714 21.6533 180.169 23.6599 181.079 24.5699L180.904 25.6899H174.499V25.4799C175.106 23.8466 175.409 21.5366 175.409 18.5499L175.479 3.14994C173.356 3.14994 171.606 3.73327 170.229 4.89994C168.899 6.06661 168.234 7.53661 168.234 9.30994C168.234 10.8733 168.736 12.0866 169.739 12.9499C170.743 13.8133 171.933 14.3499 173.309 14.5599L173.484 15.1199C173.274 15.3299 172.924 15.7966 172.434 16.5199C171.968 17.1966 171.279 18.4683 170.369 20.3349C169.483 22.1316 168.818 23.9166 168.374 25.6899H162.109V25.4099C165.003 21.5599 167.208 18.2699 168.724 15.5399C167.301 15.3533 166.076 14.6883 165.049 13.5449C164.046 12.4016 163.544 11.0133 163.544 9.37994ZM208.666 16.1349L211.676 16.8349C211.513 17.9083 211.209 18.9699 210.766 20.0199C210.323 21.0466 209.739 22.0266 209.016 22.9599C208.316 23.8933 207.429 24.6516 206.356 25.2349C205.283 25.7949 204.104 26.0749 202.821 26.0749C199.811 26.0749 197.466 25.0716 195.786 23.0649C194.106 21.0583 193.231 18.1999 193.161 14.4899C193.114 11.0366 194.036 7.95661 195.926 5.24994C196.859 3.89661 198.143 2.83494 199.776 2.06494C201.409 1.27161 203.229 0.87494 205.236 0.87494L210.171 1.18994L208.491 8.53994L207.406 8.36494C207.406 7.80494 207.359 7.19827 207.266 6.54494C206.986 4.35161 205.913 3.20827 204.046 3.11494C202.273 3.11494 200.814 4.14161 199.671 6.19494C198.551 8.24827 197.991 10.8266 197.991 13.9299C197.991 16.7533 198.504 18.9933 199.531 20.6499C200.558 22.2833 201.923 23.0999 203.626 23.0999C205.236 23.0999 206.496 22.3299 207.406 20.7899C208.339 19.2499 208.759 17.6983 208.666 16.1349ZM27.3 55.6899H21V55.4799C21.3966 54.3833 21.5016 52.0849 21.315 48.5849L20.79 42.6349L20.65 40.8149H20.58L14.35 53.6949H13.685L8.53995 41.1649H8.46995L5.73995 50.0199C5.50662 50.7433 5.38995 51.4083 5.38995 52.0149C5.38995 52.6216 5.43662 53.0649 5.52995 53.3449C5.64662 53.6249 5.78662 53.9049 5.94995 54.1849C6.13662 54.4416 6.22995 54.5816 6.22995 54.6049L6.05495 55.6899H-4.88157e-05V55.4799C0.209951 55.2699 0.583285 54.6983 1.11995 53.7649C1.67995 52.7383 2.12328 51.7816 2.44995 50.8949L7.10495 37.9449L6.36995 36.1249C5.55328 34.1883 4.71328 32.9049 3.84995 32.2749L4.05995 31.1899H9.30995L14.315 43.7549L15.26 46.0649H15.4L23.17 30.2799H24.01L25.55 48.5849C25.8066 51.5949 26.4016 53.5666 27.335 54.4999L27.475 54.6049L27.3 55.6899ZM30.0923 32.6599L29.7773 32.3099L29.9523 31.1899H36.1823V31.3999C35.599 32.2633 35.3073 34.5733 35.3073 38.3299V41.6199L44.5473 41.1299V38.3299C44.5473 35.1333 44.1856 33.1733 43.4623 32.4499L43.3223 32.3099L43.4973 31.1899H49.6923V31.3999C49.1323 32.2866 48.8523 34.5966 48.8523 38.3299L48.8173 48.5499C48.8173 49.9733 48.9223 51.2099 49.1323 52.2599C49.3656 53.3099 49.6106 53.9633 49.8673 54.2199L50.2173 54.5699L50.0423 55.6899H43.6373V55.4799C44.244 54.4533 44.5473 52.1433 44.5473 48.5499V44.0349H35.3073V48.5499C35.3073 49.8099 35.389 50.9066 35.5523 51.8399C35.7156 52.7499 35.879 53.3799 36.0423 53.7299C36.2056 54.0799 36.369 54.3133 36.5323 54.4299L36.6723 54.5699L36.4973 55.6899H30.0923V55.4799C30.7223 54.4533 31.0373 52.1433 31.0373 48.5499V38.3299C31.0373 36.9066 30.9323 35.6699 30.7223 34.6199C30.5356 33.5699 30.3256 32.9166 30.0923 32.6599ZM52.8705 43.5449C52.8705 40.0683 53.9555 37.0349 56.1255 34.4449C58.3421 31.8549 60.9671 30.5599 64.0005 30.5599C67.1738 30.5599 69.7755 31.6916 71.8055 33.9549C73.8355 36.1949 74.8505 39.2983 74.8505 43.2649C74.8505 46.8116 73.7305 49.8683 71.4905 52.4349C69.2971 54.9783 66.7071 56.2499 63.7205 56.2499C60.6638 56.2499 58.0855 55.1416 55.9855 52.9249C53.9088 50.6616 52.8705 47.5349 52.8705 43.5449ZM70.0205 43.5099C70.0205 40.2899 69.4371 37.7116 68.2705 35.7749C67.1038 33.8383 65.5405 32.8699 63.5805 32.8699C61.9471 32.8699 60.5471 33.8383 59.3805 35.7749C58.2605 37.6883 57.7005 40.1966 57.7005 43.2999C57.7005 46.5666 58.2721 49.1333 59.4155 50.9999C60.5821 52.8666 62.1455 53.7999 64.1055 53.7999C65.7388 53.7999 67.1271 52.8433 68.2705 50.9299C69.4371 48.9933 70.0205 46.5199 70.0205 43.5099ZM93.7226 55.6899H87.3176V55.4799C87.9242 54.4533 88.2276 52.1433 88.2276 48.5499L88.2626 38.3299C88.2626 36.9066 88.1576 35.6699 87.9476 34.6199C87.7609 33.5699 87.5509 32.9166 87.3176 32.6599L87.0026 32.3099L87.1776 31.1899H93.4076V31.3999C92.8242 32.2633 92.5326 34.5733 92.5326 38.3299L92.4976 48.5499C92.4976 49.9733 92.6026 51.2099 92.8126 52.2599C93.0459 53.3099 93.2909 53.9633 93.5476 54.2199L93.8976 54.5699L93.7226 55.6899ZM105.518 55.6899H99.9876C98.4476 50.8833 97.2809 47.6983 96.4876 46.1349C95.5309 44.3849 94.4926 43.4866 93.3726 43.4399L93.1976 42.7399C97.3976 37.8166 99.2992 34.5149 98.9026 32.8349C98.8326 32.5783 98.7159 32.4033 98.5526 32.3099L98.7276 31.1899H105.028V31.3999L96.4876 41.9349H98.3076C99.4276 43.1949 100.443 44.7349 101.353 46.5549C101.703 47.2316 102.123 48.0949 102.613 49.1449C103.126 50.1716 103.523 50.9766 103.803 51.5599C104.083 52.1433 104.398 52.7266 104.748 53.3099C105.098 53.8933 105.413 54.3133 105.693 54.5699L105.518 55.6899ZM80.3176 55.6899H74.5076V55.4449C75.0676 54.9316 75.7559 53.8466 76.5726 52.1899C77.2726 50.7666 78.1826 48.9699 79.3026 46.7999C80.3292 44.8399 81.4142 43.2183 82.5576 41.9349H84.5176C81.9042 37.9449 80.0026 35.3199 78.8126 34.0599C77.8092 33.0333 77.0042 32.4499 76.3976 32.3099L76.5376 31.1899H82.8376L82.8726 31.4349C82.8026 31.7849 82.8142 32.3333 82.9076 33.0799C83.0009 33.6866 83.1992 34.4216 83.5026 35.2849C84.2726 37.4316 85.6726 40.0566 87.7026 43.1599L87.6326 43.2999C85.4626 43.4633 83.0242 47.5933 80.3176 55.6899ZM124.581 51.1049L122.761 55.6899H107.851V55.4799C108.481 54.4533 108.796 52.1549 108.796 48.5849V38.2599C108.796 37.3966 108.761 36.6266 108.691 35.9499C108.644 35.2733 108.551 34.7249 108.411 34.3049C108.294 33.8849 108.189 33.5583 108.096 33.3249C108.003 33.0916 107.886 32.8699 107.746 32.6599C107.629 32.4266 107.559 32.2866 107.536 32.2399L107.711 31.1549H113.521C117.604 31.1549 120.358 31.0499 121.781 30.8399L122.481 30.7349L123.076 31.3299L121.466 35.0049H121.221C120.871 34.7949 120.544 34.6316 120.241 34.5149C119.751 34.3049 118.829 34.0716 117.476 33.8149C116.123 33.5116 114.653 33.3949 113.066 33.4649V41.8299C114.699 41.7133 116.064 41.5499 117.161 41.3399C118.468 41.1066 119.378 40.8966 119.891 40.7099L120.731 40.4299L121.361 40.9899L120.031 44.1749H113.066V53.3099C115.283 53.2866 117.336 53.0299 119.226 52.5399C120.953 52.0966 122.154 51.6533 122.831 51.2099L123.741 50.5449L124.581 51.1049ZM140.802 46.1349L143.812 46.8349C143.649 47.9083 143.346 48.9699 142.902 50.0199C142.459 51.0466 141.876 52.0266 141.152 52.9599C140.452 53.8933 139.566 54.6516 138.492 55.2349C137.419 55.7949 136.241 56.0749 134.957 56.0749C131.947 56.0749 129.602 55.0716 127.922 53.0649C126.242 51.0583 125.367 48.1999 125.297 44.4899C125.251 41.0366 126.172 37.9566 128.062 35.2499C128.996 33.8966 130.279 32.8349 131.912 32.0649C133.546 31.2716 135.366 30.8749 137.372 30.8749L142.307 31.1899L140.627 38.5399L139.542 38.3649C139.542 37.8049 139.496 37.1983 139.402 36.5449C139.122 34.3516 138.049 33.2083 136.182 33.1149C134.409 33.1149 132.951 34.1416 131.807 36.1949C130.687 38.2483 130.127 40.8266 130.127 43.9299C130.127 46.7533 130.641 48.9933 131.667 50.6499C132.694 52.2833 134.059 53.0999 135.762 53.0999C137.372 53.0999 138.632 52.3299 139.542 50.7899C140.476 49.2499 140.896 47.6983 140.802 46.1349ZM143.106 35.9499L145.801 31.1899H156.406C159.51 31.1433 161.586 31.0499 162.636 30.9099L163.161 30.8049L163.756 31.3649L161.901 35.3199H161.656C160.186 34.4099 158.133 33.8849 155.496 33.7449V48.5499C155.496 49.9733 155.601 51.2099 155.811 52.2599C156.045 53.3099 156.29 53.9633 156.546 54.2199L156.896 54.5699L156.721 55.6899H150.316V55.4799C150.946 54.4533 151.261 52.1433 151.261 48.5499V33.9549C149.698 34.0949 148.286 34.3749 147.026 34.7949C145.79 35.2149 144.961 35.6233 144.541 36.0199L143.981 36.5099L143.106 35.9499ZM177.444 41.8299V41.8999C179.451 41.8999 181.014 42.3783 182.134 43.3349C183.277 44.2916 183.849 45.6216 183.849 47.3249C183.849 49.5649 182.834 51.5249 180.804 53.2049C178.797 54.8616 176.149 55.6899 172.859 55.6899H165.649V55.4799C166.256 54.4533 166.559 52.1433 166.559 48.5499L166.594 38.3299C166.594 36.9066 166.489 35.6699 166.279 34.6199C166.092 33.5699 165.882 32.9166 165.649 32.6599L165.334 32.3099L165.509 31.1899H172.299C175.706 31.1899 178.132 31.5516 179.579 32.2749C181.049 32.9749 181.784 34.1883 181.784 35.9149C181.784 37.1049 181.329 38.2833 180.419 39.4499C179.486 40.6166 178.494 41.4099 177.444 41.8299ZM170.829 53.4499H171.774C173.641 53.4499 175.297 52.8666 176.744 51.6999C178.191 50.5099 178.914 49.0166 178.914 47.2199C178.914 45.6799 178.424 44.5833 177.444 43.9299C176.464 43.2533 174.959 42.9149 172.929 42.9149L172.789 42.2149C173.862 41.9116 174.819 41.2349 175.659 40.1849C176.499 39.0883 176.919 37.9683 176.919 36.8249C176.919 35.3549 176.487 34.3983 175.624 33.9549C174.784 33.4649 173.197 33.2199 170.864 33.2199L170.829 53.4499ZM186.308 43.5449C186.308 40.0683 187.393 37.0349 189.563 34.4449C191.78 31.8549 194.405 30.5599 197.438 30.5599C200.611 30.5599 203.213 31.6916 205.243 33.9549C207.273 36.1949 208.288 39.2983 208.288 43.2649C208.288 46.8116 207.168 49.8683 204.928 52.4349C202.735 54.9783 200.145 56.2499 197.158 56.2499C194.101 56.2499 191.523 55.1416 189.423 52.9249C187.346 50.6616 186.308 47.5349 186.308 43.5449ZM203.458 43.5099C203.458 40.2899 202.875 37.7116 201.708 35.7749C200.541 33.8383 198.978 32.8699 197.018 32.8699C195.385 32.8699 193.985 33.8383 192.818 35.7749C191.698 37.6883 191.138 40.1966 191.138 43.2999C191.138 46.5666 191.71 49.1333 192.853 50.9999C194.02 52.8666 195.583 53.7999 197.543 53.7999C199.176 53.7999 200.565 52.8433 201.708 50.9299C202.875 48.9933 203.458 46.5199 203.458 43.5099ZM235.762 55.6899H229.462V55.4799C229.859 54.3833 229.964 52.0849 229.777 48.5849L229.252 42.6349L229.112 40.8149H229.042L222.812 53.6949H222.147L217.002 41.1649H216.932L214.202 50.0199C213.969 50.7433 213.852 51.4083 213.852 52.0149C213.852 52.6216 213.899 53.0649 213.992 53.3449C214.109 53.6249 214.249 53.9049 214.412 54.1849C214.599 54.4416 214.692 54.5816 214.692 54.6049L214.517 55.6899H208.462V55.4799C208.672 55.2699 209.045 54.6983 209.582 53.7649C210.142 52.7383 210.585 51.7816 210.912 50.8949L215.567 37.9449L214.832 36.1249C214.015 34.1883 213.175 32.9049 212.312 32.2749L212.522 31.1899H217.772L222.777 43.7549L223.722 46.0649H223.862L231.632 30.2799H232.472L234.012 48.5849C234.269 51.5949 234.864 53.5666 235.797 54.4999L235.937 54.6049L235.762 55.6899ZM87.1486 85.6899H80.8486V85.4799C81.2453 84.3833 81.3503 82.0849 81.1636 78.5849L80.6386 72.6349L80.4986 70.8149H80.4286L74.1986 83.6949H73.5336L68.3886 71.1649H68.3186L65.5886 80.0199C65.3553 80.7433 65.2386 81.4083 65.2386 82.0149C65.2386 82.6216 65.2853 83.0649 65.3786 83.3449C65.4953 83.6249 65.6353 83.9049 65.7986 84.1849C65.9853 84.4416 66.0786 84.5816 66.0786 84.6049L65.9036 85.6899H59.8486V85.4799C60.0586 85.2699 60.4319 84.6983 60.9686 83.7649C61.5286 82.7383 61.9719 81.7816 62.2986 80.8949L66.9536 67.9449L66.2186 66.1249C65.4019 64.1883 64.5619 62.9049 63.6986 62.2749L63.9086 61.1899H69.1586L74.1636 73.7549L75.1086 76.0649H75.2486L83.0186 60.2799H83.8586L85.3986 78.5849C85.6553 81.5949 86.2503 83.5666 87.1836 84.4999L87.3236 84.6049L87.1486 85.6899ZM95.2959 68.2949V74.7349V77.5699H95.3659L108.281 59.9999L109.401 60.3499C108.818 61.8666 108.526 64.5033 108.526 68.2599V78.5849C108.526 81.7116 108.934 83.6833 109.751 84.4999L109.891 84.6049L109.716 85.6899H103.346V85.4799C103.953 84.4533 104.256 82.1549 104.256 78.5849V72.2149V70.2199H104.186L91.3059 86.4599L90.1509 86.1099C90.7343 84.5933 91.0259 81.9566 91.0259 78.1999V68.2949C91.0259 66.8716 90.9093 65.6349 90.6759 64.5849C90.4659 63.5349 90.2326 62.8816 89.9759 62.6249L89.6259 62.2749L89.8009 61.1899H96.2059V61.3999C95.5993 62.4266 95.2959 64.7249 95.2959 68.2949ZM113.73 62.6599L113.415 62.3099L113.59 61.1899H121.045C123.775 61.1899 125.968 61.5983 127.625 62.4149C129.678 63.3249 130.705 65.1333 130.705 67.8399C130.705 69.9399 129.76 71.8999 127.87 73.7199C126.027 75.5399 123.53 76.5199 120.38 76.6599L120.135 75.7499C121.745 75.4699 123.098 74.6299 124.195 73.2299C125.268 71.8533 125.805 70.1966 125.805 68.2599C125.805 66.6266 125.338 65.3666 124.405 64.4799C123.495 63.5933 122.317 63.1499 120.87 63.1499H118.98L118.91 78.5499C118.91 79.9733 119.015 81.2099 119.225 82.2599C119.458 83.3099 119.703 83.9633 119.96 84.2199L120.31 84.5699L120.135 85.6899H113.73V85.4799C114.337 84.4533 114.64 82.1433 114.64 78.5499V68.3299C114.64 66.9066 114.535 65.6699 114.325 64.6199C114.138 63.5699 113.94 62.9166 113.73 62.6599ZM132.475 73.5449C132.475 70.0683 133.56 67.0349 135.73 64.4449C137.947 61.8549 140.572 60.5599 143.605 60.5599C146.778 60.5599 149.38 61.6916 151.41 63.9549C153.44 66.1949 154.455 69.2983 154.455 73.2649C154.455 76.8116 153.335 79.8683 151.095 82.4349C148.902 84.9783 146.312 86.2499 143.325 86.2499C140.268 86.2499 137.69 85.1416 135.59 82.9249C133.513 80.6616 132.475 77.5349 132.475 73.5449ZM149.625 73.5099C149.625 70.2899 149.042 67.7116 147.875 65.7749C146.708 63.8383 145.145 62.8699 143.185 62.8699C141.552 62.8699 140.152 63.8383 138.985 65.7749C137.865 67.6883 137.305 70.1966 137.305 73.2999C137.305 76.5666 137.877 79.1333 139.02 80.9999C140.187 82.8666 141.75 83.7999 143.71 83.7999C145.343 83.7999 146.732 82.8433 147.875 80.9299C149.042 78.9933 149.625 76.5199 149.625 73.5099ZM169.343 71.8299V71.8999C171.35 71.8999 172.913 72.3783 174.033 73.3349C175.177 74.2916 175.748 75.6216 175.748 77.3249C175.748 79.5649 174.733 81.5249 172.703 83.2049C170.697 84.8616 168.048 85.6899 164.758 85.6899H157.548V85.4799C158.155 84.4533 158.458 82.1433 158.458 78.5499L158.493 68.3299C158.493 66.9066 158.388 65.6699 158.178 64.6199C157.992 63.5699 157.782 62.9166 157.548 62.6599L157.233 62.3099L157.408 61.1899H164.198C167.605 61.1899 170.032 61.5516 171.478 62.2749C172.948 62.9749 173.683 64.1883 173.683 65.9149C173.683 67.1049 173.228 68.2833 172.318 69.4499C171.385 70.6166 170.393 71.4099 169.343 71.8299ZM162.728 83.4499H163.673C165.54 83.4499 167.197 82.8666 168.643 81.6999C170.09 80.5099 170.813 79.0166 170.813 77.2199C170.813 75.6799 170.323 74.5833 169.343 73.9299C168.363 73.2533 166.858 72.9149 164.828 72.9149L164.688 72.2149C165.762 71.9116 166.718 71.2349 167.558 70.1849C168.398 69.0883 168.818 67.9683 168.818 66.8249C168.818 65.3549 168.387 64.3983 167.523 63.9549C166.683 63.4649 165.097 63.2199 162.763 63.2199L162.728 83.4499Z" fill="white"/>
</svg>
