<svg width="202" height="57" viewBox="0 0 202 57" fill="none" xmlns="http://www.w3.org/2000/svg">
<path d="M13.79 25.4449H-4.88157e-05V25.2699L12.39 -5.57303e-05H13.125C15.4116 9.54328 16.9166 15.6449 17.64 18.3049C18.1533 20.1716 18.6666 21.5949 19.18 22.5749L21.07 22.5049L21.28 22.7849L18.585 29.7149H17.22C17.3366 29.4349 17.3833 28.9449 17.36 28.2449C17.36 26.3783 16.17 25.4449 13.79 25.4449ZM10.92 8.01495L4.47995 23.0999L14.035 22.7849L12.18 13.7199L11.025 8.01495H10.92ZM34.983 11.5849V11.6549C36.9897 11.6549 38.553 12.1333 39.673 13.0899C40.8163 14.0466 41.388 15.3766 41.388 17.0799C41.388 19.3199 40.373 21.2799 38.343 22.9599C36.3363 24.6166 33.688 25.4449 30.398 25.4449H23.188V25.2349C23.7947 24.2083 24.098 21.8983 24.098 18.3049L24.133 8.08495C24.133 6.66161 24.028 5.42494 23.818 4.37494C23.6313 3.32495 23.4213 2.67161 23.188 2.41494L22.873 2.06494L23.048 0.944945H29.838C33.2447 0.944945 35.6713 1.30661 37.118 2.02995C38.588 2.72994 39.323 3.94328 39.323 5.66995C39.323 6.85995 38.868 8.03828 37.958 9.20495C37.0247 10.3716 36.033 11.1649 34.983 11.5849ZM28.368 23.2049H29.313C31.1797 23.2049 32.8363 22.6216 34.283 21.4549C35.7297 20.2649 36.453 18.7716 36.453 16.9749C36.453 15.4349 35.963 14.3383 34.983 13.6849C34.003 13.0083 32.498 12.6699 30.468 12.6699L30.328 11.9699C31.4013 11.6666 32.358 10.9899 33.198 9.93995C34.038 8.84328 34.458 7.72328 34.458 6.57995C34.458 5.10994 34.0263 4.15328 33.163 3.70994C32.323 3.21995 30.7363 2.97495 28.403 2.97495L28.368 23.2049ZM43.847 13.2999C43.847 9.82328 44.932 6.78995 47.102 4.19994C49.3187 1.60994 51.9437 0.314944 54.977 0.314944C58.1504 0.314944 60.752 1.44661 62.782 3.70994C64.812 5.94994 65.827 9.05328 65.827 13.0199C65.827 16.5666 64.707 19.6233 62.467 22.1899C60.2737 24.7333 57.6837 26.0049 54.697 26.0049C51.6404 26.0049 49.062 24.8966 46.962 22.6799C44.8854 20.4166 43.847 17.2899 43.847 13.2999ZM60.997 13.2649C60.997 10.0449 60.4137 7.46661 59.247 5.52995C58.0804 3.59328 56.517 2.62495 54.557 2.62495C52.9237 2.62495 51.5237 3.59328 50.357 5.52995C49.237 7.44328 48.677 9.95161 48.677 13.0549C48.677 16.3216 49.2487 18.8883 50.392 20.7549C51.5587 22.6216 53.122 23.5549 55.082 23.5549C56.7154 23.5549 58.1037 22.5983 59.247 20.6849C60.4137 18.7483 60.997 16.2749 60.997 13.2649ZM68.9204 2.41494L68.6054 2.06494L68.7804 0.944945H76.2354C78.9654 0.944945 81.1588 1.35328 82.8154 2.16995C84.8688 3.07994 85.8954 4.88828 85.8954 7.59494C85.8954 9.69495 84.9504 11.6549 83.0604 13.4749C81.2171 15.2949 78.7204 16.2749 75.5704 16.4149L75.3254 15.5049C76.9354 15.2249 78.2888 14.3849 79.3854 12.9849C80.4588 11.6083 80.9954 9.95161 80.9954 8.01495C80.9954 6.38161 80.5288 5.12161 79.5954 4.23495C78.6854 3.34828 77.5071 2.90494 76.0604 2.90494H74.1704L74.1004 18.3049C74.1004 19.7283 74.2054 20.9649 74.4154 22.0149C74.6488 23.0649 74.8938 23.7183 75.1504 23.9749L75.5004 24.3249L75.3254 25.4449H68.9204V25.2349C69.5271 24.2083 69.8304 21.8983 69.8304 18.3049V8.08495C69.8304 6.66161 69.7254 5.42494 69.5154 4.37494C69.3288 3.32495 69.1304 2.67161 68.9204 2.41494ZM106.714 22.6799L109.619 22.5049L109.829 22.7849L107.204 29.7149H105.804C105.944 29.3883 106.014 28.8983 106.014 28.2449C106.014 26.3783 104.906 25.4449 102.689 25.4449H88.1294V25.2349C88.7127 24.3716 89.0044 22.0616 89.0044 18.3049L89.0394 8.08495C89.0394 6.66161 88.9344 5.42494 88.7244 4.37494C88.5377 3.32495 88.3394 2.67161 88.1294 2.41494L87.8144 2.06494L87.9894 0.944945H94.4644V1.15495C94.3944 1.22495 94.2777 1.42328 94.1144 1.74994C93.9977 2.02995 93.8344 2.75328 93.6244 3.91995C93.4144 5.10995 93.3094 6.49828 93.3094 8.08495L93.2744 23.2399L101.989 22.7849V8.08495C101.989 6.66161 101.884 5.42494 101.674 4.37494C101.488 3.32495 101.289 2.67161 101.079 2.41494L100.764 2.06494L100.974 0.944945H107.274V1.15495C107.181 1.29495 107.088 1.49328 106.994 1.74994C106.831 2.07661 106.668 2.85828 106.504 4.09495C106.341 5.33161 106.259 6.66161 106.259 8.08495V18.3049C106.259 20.1483 106.411 21.6066 106.714 22.6799ZM110.566 13.2999C110.566 9.82328 111.651 6.78995 113.821 4.19994C116.037 1.60994 118.662 0.314944 121.696 0.314944C124.869 0.314944 127.471 1.44661 129.501 3.70994C131.531 5.94994 132.546 9.05328 132.546 13.0199C132.546 16.5666 131.426 19.6233 129.186 22.1899C126.992 24.7333 124.402 26.0049 121.416 26.0049C118.359 26.0049 115.781 24.8966 113.681 22.6799C111.604 20.4166 110.566 17.2899 110.566 13.2999ZM127.716 13.2649C127.716 10.0449 127.132 7.46661 125.966 5.52995C124.799 3.59328 123.236 2.62495 121.276 2.62495C119.642 2.62495 118.242 3.59328 117.076 5.52995C115.956 7.44328 115.396 9.95161 115.396 13.0549C115.396 16.3216 115.967 18.8883 117.111 20.7549C118.277 22.6216 119.841 23.5549 121.801 23.5549C123.434 23.5549 124.822 22.5983 125.966 20.6849C127.132 18.7483 127.716 16.2749 127.716 13.2649ZM147.434 11.5849V11.6549C149.441 11.6549 151.004 12.1333 152.124 13.0899C153.268 14.0466 153.839 15.3766 153.839 17.0799C153.839 19.3199 152.824 21.2799 150.794 22.9599C148.788 24.6166 146.139 25.4449 142.849 25.4449H135.639V25.2349C136.246 24.2083 136.549 21.8983 136.549 18.3049L136.584 8.08495C136.584 6.66161 136.479 5.42494 136.269 4.37494C136.083 3.32495 135.873 2.67161 135.639 2.41494L135.324 2.06494L135.499 0.944945H142.289C145.696 0.944945 148.123 1.30661 149.569 2.02995C151.039 2.72994 151.774 3.94328 151.774 5.66995C151.774 6.85995 151.319 8.03828 150.409 9.20495C149.476 10.3716 148.484 11.1649 147.434 11.5849ZM140.819 23.2049H141.764C143.631 23.2049 145.288 22.6216 146.734 21.4549C148.181 20.2649 148.904 18.7716 148.904 16.9749C148.904 15.4349 148.414 14.3383 147.434 13.6849C146.454 13.0083 144.949 12.6699 142.919 12.6699L142.779 11.9699C143.853 11.6666 144.809 10.9899 145.649 9.93995C146.489 8.84328 146.909 7.72328 146.909 6.57995C146.909 5.10994 146.478 4.15328 145.614 3.70994C144.774 3.21995 143.188 2.97495 140.854 2.97495L140.819 23.2049ZM173.283 15.9249C173.283 18.0249 172.536 20.0433 171.043 21.9799C170.273 22.9833 169.188 23.7999 167.788 24.4299C166.411 25.0599 164.86 25.3983 163.133 25.4449H156.728V25.2349C157.335 24.2083 157.638 21.9099 157.638 18.3399L157.673 8.08495C157.673 6.68494 157.568 5.47161 157.358 4.44495C157.171 3.39495 156.961 2.71828 156.728 2.41494L156.413 2.06494L156.588 0.944945H162.818V1.15495C162.235 2.01828 161.943 4.32828 161.943 8.08495L161.908 23.4849H162.398C164.078 23.4849 165.49 22.7383 166.633 21.2449C167.8 19.7283 168.383 17.9899 168.383 16.0299C168.383 14.2333 167.986 12.9966 167.193 12.3199C166.423 11.6199 165.256 11.3166 163.693 11.4099L163.553 10.5699C164.813 10.0333 166.038 9.75328 167.228 9.72995C168.418 9.68328 169.456 9.88161 170.343 10.3249C171.23 10.7683 171.941 11.4799 172.478 12.4599C173.015 13.4166 173.283 14.5716 173.283 15.9249ZM179.408 8.04995L179.373 18.3399C179.373 19.7633 179.478 20.9999 179.688 22.0499C179.921 23.0999 180.166 23.7533 180.423 24.0099L180.773 24.3599L180.598 25.4449H174.193V25.2699C174.823 24.2199 175.138 21.9099 175.138 18.3399V8.04995C175.138 6.62661 175.033 5.40161 174.823 4.37494C174.636 3.32495 174.426 2.67161 174.193 2.41494L173.878 2.02995L174.053 0.944945H180.283V1.15495C179.7 2.01828 179.408 4.31661 179.408 8.04995ZM201.314 20.8599L199.494 25.4449H184.584V25.2349C185.214 24.2083 185.529 21.9099 185.529 18.3399V8.01495C185.529 7.15161 185.494 6.38161 185.424 5.70495C185.378 5.02828 185.284 4.47995 185.144 4.05995C185.028 3.63995 184.923 3.31328 184.829 3.07994C184.736 2.84661 184.619 2.62494 184.479 2.41494C184.363 2.18161 184.293 2.04161 184.269 1.99495L184.444 0.909945H190.254C194.338 0.909945 197.091 0.804945 198.514 0.594945L199.214 0.489944L199.809 1.08494L198.199 4.75995H197.954C197.604 4.54995 197.278 4.38661 196.974 4.26995C196.484 4.05995 195.563 3.82661 194.209 3.56995C192.856 3.26661 191.386 3.14995 189.799 3.21994V11.5849C191.433 11.4683 192.798 11.3049 193.894 11.0949C195.201 10.8616 196.111 10.6516 196.624 10.4649L197.464 10.1849L198.094 10.7449L196.764 13.9299H189.799V23.0649C192.016 23.0416 194.069 22.7849 195.959 22.2949C197.686 21.8516 198.888 21.4083 199.564 20.9649L200.474 20.2999L201.314 20.8599ZM33.3282 38.0499V44.4899V47.3249H33.3982L46.3132 29.7549L47.4332 30.1049C46.8498 31.6216 46.5582 34.2583 46.5582 38.0149V48.3399C46.5582 51.4666 46.9665 53.4383 47.7832 54.2549L47.9232 54.3599L47.7482 55.4449H41.3782V55.2349C41.9848 54.2083 42.2882 51.9099 42.2882 48.3399V41.9699V39.9749H42.2182L29.3382 56.2149L28.1832 55.8649C28.7665 54.3483 29.0582 51.7116 29.0582 47.9549V38.0499C29.0582 36.6266 28.9415 35.3899 28.7082 34.3399C28.4982 33.2899 28.2648 32.6366 28.0082 32.3799L27.6582 32.0299L27.8332 30.9449H34.2382V31.1549C33.6315 32.1816 33.3282 34.4799 33.3282 38.0499ZM51.7622 32.4149L51.4472 32.0649L51.6222 30.9449H57.8522V31.1549C57.2689 32.0183 56.9772 34.3283 56.9772 38.0849V41.3749L66.2172 40.8849V38.0849C66.2172 34.8883 65.8556 32.9283 65.1322 32.2049L64.9922 32.0649L65.1672 30.9449H71.3622V31.1549C70.8022 32.0416 70.5222 34.3516 70.5222 38.0849L70.4872 48.3049C70.4872 49.7283 70.5922 50.9649 70.8022 52.0149C71.0356 53.0649 71.2806 53.7183 71.5372 53.9749L71.8872 54.3249L71.7122 55.4449H65.3072V55.2349C65.9139 54.2083 66.2172 51.8983 66.2172 48.3049V43.7899H56.9772V48.3049C56.9772 49.5649 57.0589 50.6616 57.2222 51.5949C57.3856 52.5049 57.5489 53.1349 57.7122 53.4849C57.8756 53.8349 58.0389 54.0683 58.2022 54.1849L58.3422 54.3249L58.1672 55.4449H51.7622V55.2349C52.3922 54.2083 52.7072 51.8983 52.7072 48.3049V38.0849C52.7072 36.6616 52.6022 35.4249 52.3922 34.3749C52.2056 33.3249 51.9956 32.6716 51.7622 32.4149ZM72.7644 35.7049L75.4594 30.9449H86.0644C89.1677 30.8983 91.2444 30.8049 92.2944 30.6649L92.8194 30.5599L93.4144 31.1199L91.5594 35.0749H91.3144C89.8444 34.1649 87.7911 33.6399 85.1544 33.4999V48.3049C85.1544 49.7283 85.2594 50.9649 85.4694 52.0149C85.7027 53.0649 85.9477 53.7183 86.2044 53.9749L86.5544 54.3249L86.3794 55.4449H79.9744V55.2349C80.6044 54.2083 80.9194 51.8983 80.9194 48.3049V33.7099C79.3561 33.8499 77.9444 34.1299 76.6844 34.5499C75.4477 34.9699 74.6194 35.3783 74.1994 35.7749L73.6394 36.2649L72.7644 35.7049ZM95.3071 32.4149L94.9921 32.0649L95.1671 30.9449H102.622C105.352 30.9449 107.545 31.3533 109.202 32.1699C111.255 33.0799 112.282 34.8883 112.282 37.5949C112.282 39.6949 111.337 41.6549 109.447 43.4749C107.604 45.2949 105.107 46.2749 101.957 46.4149L101.712 45.5049C103.322 45.2249 104.675 44.3849 105.772 42.9849C106.845 41.6083 107.382 39.9516 107.382 38.0149C107.382 36.3816 106.915 35.1216 105.982 34.2349C105.072 33.3483 103.894 32.9049 102.447 32.9049H100.557L100.487 48.3049C100.487 49.7283 100.592 50.9649 100.802 52.0149C101.035 53.0649 101.28 53.7183 101.537 53.9749L101.887 54.3249L101.712 55.4449H95.3071V55.2349C95.9138 54.2083 96.2171 51.8983 96.2171 48.3049V38.0849C96.2171 36.6616 96.1121 35.4249 95.9021 34.3749C95.7155 33.3249 95.5171 32.6716 95.3071 32.4149ZM119.871 38.0499V44.4899V47.3249H119.941L132.856 29.7549L133.976 30.1049C133.393 31.6216 133.101 34.2583 133.101 38.0149V48.3399C133.101 51.4666 133.509 53.4383 134.326 54.2549L134.466 54.3599L134.291 55.4449H127.921V55.2349C128.528 54.2083 128.831 51.9099 128.831 48.3399V41.9699V39.9749H128.761L115.881 56.2149L114.726 55.8649C115.309 54.3483 115.601 51.7116 115.601 47.9549V38.0499C115.601 36.6266 115.484 35.3899 115.251 34.3399C115.041 33.2899 114.808 32.6366 114.551 32.3799L114.201 32.0299L114.376 30.9449H120.781V31.1549C120.174 32.1816 119.871 34.4799 119.871 38.0499ZM143.485 33.3249V48.3049C143.485 49.7283 143.59 50.9649 143.8 52.0149C144.034 53.0649 144.279 53.7183 144.535 53.9749L144.885 54.3249L144.71 55.4449H138.305V55.2349C138.912 54.2083 139.215 51.8983 139.215 48.3049L139.25 38.0849C139.25 36.6616 139.145 35.4249 138.935 34.3749C138.749 33.3249 138.539 32.6716 138.305 32.4149L137.99 32.0649L138.165 30.9449H144.395C147.849 30.8983 150.275 30.8049 151.675 30.6649L152.375 30.5599L152.97 31.1199L150.975 35.4949H150.66C150.474 35.2383 150.135 34.9583 149.645 34.6549C148.105 33.6049 146.052 33.1616 143.485 33.3249ZM159.93 38.0499V44.4899V47.3249H160L172.915 29.7549L174.035 30.1049C173.451 31.6216 173.16 34.2583 173.16 38.0149V48.3399C173.16 51.4666 173.568 53.4383 174.385 54.2549L174.525 54.3599L174.35 55.4449H167.98V55.2349C168.586 54.2083 168.89 51.9099 168.89 48.3399V41.9699V39.9749H168.82L155.94 56.2149L154.785 55.8649C155.368 54.3483 155.66 51.7116 155.66 47.9549V38.0499C155.66 36.6266 155.543 35.3899 155.31 34.3399C155.1 33.2899 154.866 32.6366 154.61 32.3799L154.26 32.0299L154.435 30.9449H160.84V31.1549C160.233 32.1816 159.93 34.4799 159.93 38.0499Z" fill="white"/>
</svg>
