<svg width="261" height="60" viewBox="0 0 261 60" fill="none" xmlns="http://www.w3.org/2000/svg">
<path d="M14.385 3.21994L5.52995 3.67494V18.5499C5.52995 19.9733 5.63495 21.2099 5.84495 22.2599C6.07828 23.3099 6.32328 23.9633 6.57995 24.2199L6.92995 24.5699L6.71995 25.6899H0.314951V25.4799C0.944951 24.4533 1.25995 22.1433 1.25995 18.5499V8.32994C1.25995 6.90661 1.15495 5.66994 0.944951 4.61994C0.758285 3.56994 0.548285 2.91661 0.314951 2.65994L-4.87082e-05 2.30994L0.174951 1.18994H19.53V1.39994C18.9933 2.26327 18.7016 4.57327 18.655 8.32994L18.62 18.5499C18.62 19.9733 18.725 21.2099 18.935 22.2599C19.1683 23.3099 19.4133 23.9633 19.67 24.2199L20.02 24.5699L19.845 25.6899H13.44V25.4799C14.0466 24.4533 14.35 22.1433 14.35 18.5499L14.385 3.21994ZM40.5606 21.1049L38.7406 25.6899H23.8306V25.4799C24.4606 24.4533 24.7756 22.1549 24.7756 18.5849V8.25994C24.7756 7.39661 24.7406 6.62661 24.6706 5.94994C24.6239 5.27327 24.5306 4.72494 24.3906 4.30494C24.2739 3.88494 24.1689 3.55827 24.0756 3.32494C23.9822 3.09161 23.8656 2.86994 23.7256 2.65994C23.6089 2.42661 23.5389 2.28661 23.5156 2.23994L23.6906 1.15494H29.5006C33.5839 1.15494 36.3372 1.04994 37.7606 0.83994L38.4606 0.734939L39.0556 1.32994L37.4456 5.00494H37.2006C36.8506 4.79494 36.5239 4.63161 36.2206 4.51494C35.7306 4.30494 34.8089 4.07161 33.4556 3.81494C32.1022 3.51161 30.6322 3.39494 29.0456 3.46494V11.8299C30.6789 11.7133 32.0439 11.5499 33.1406 11.3399C34.4472 11.1066 35.3572 10.8966 35.8706 10.7099L36.7106 10.4299L37.3406 10.9899L36.0106 14.1749H29.0456V23.3099C31.2622 23.2866 33.3156 23.0299 35.2056 22.5399C36.9322 22.0966 38.1339 21.6533 38.8106 21.2099L39.7206 20.5449L40.5606 21.1049ZM42.8003 2.65994L42.4853 2.30994L42.6603 1.18994H50.1153C52.8453 1.18994 55.0386 1.59827 56.6953 2.41494C58.7486 3.32494 59.7753 5.13327 59.7753 7.83994C59.7753 9.93994 58.8303 11.8999 56.9403 13.7199C55.097 15.5399 52.6003 16.5199 49.4503 16.6599L49.2053 15.7499C50.8153 15.4699 52.1686 14.6299 53.2653 13.2299C54.3386 11.8533 54.8753 10.1966 54.8753 8.25994C54.8753 6.62661 54.4086 5.36661 53.4753 4.47994C52.5653 3.59327 51.387 3.14994 49.9403 3.14994H48.0503L47.9803 18.5499C47.9803 19.9733 48.0853 21.2099 48.2953 22.2599C48.5286 23.3099 48.7736 23.9633 49.0303 24.2199L49.3803 24.5699L49.2053 25.6899H42.8003V25.4799C43.407 24.4533 43.7103 22.1433 43.7103 18.5499V8.32994C43.7103 6.90661 43.6053 5.66994 43.3953 4.61994C43.2086 3.56994 43.0103 2.91661 42.8003 2.65994ZM78.7393 21.1049L76.9193 25.6899H62.0093V25.4799C62.6393 24.4533 62.9543 22.1549 62.9543 18.5849V8.25994C62.9543 7.39661 62.9193 6.62661 62.8493 5.94994C62.8026 5.27327 62.7093 4.72494 62.5693 4.30494C62.4526 3.88494 62.3476 3.55827 62.2543 3.32494C62.161 3.09161 62.0443 2.86994 61.9043 2.65994C61.7876 2.42661 61.7176 2.28661 61.6943 2.23994L61.8693 1.15494H67.6793C71.7626 1.15494 74.516 1.04994 75.9393 0.83994L76.6393 0.734939L77.2343 1.32994L75.6243 5.00494H75.3793C75.0293 4.79494 74.7026 4.63161 74.3993 4.51494C73.9093 4.30494 72.9876 4.07161 71.6343 3.81494C70.281 3.51161 68.811 3.39494 67.2243 3.46494V11.8299C68.8576 11.7133 70.2226 11.5499 71.3193 11.3399C72.626 11.1066 73.536 10.8966 74.0493 10.7099L74.8893 10.4299L75.5193 10.9899L74.1893 14.1749H67.2243V23.3099C69.441 23.2866 71.4943 23.0299 73.3843 22.5399C75.111 22.0966 76.3126 21.6533 76.9893 21.2099L77.8993 20.5449L78.7393 21.1049ZM80.979 2.65994L80.664 2.30994L80.839 1.18994H88.294C91.024 1.18994 93.2173 1.59827 94.874 2.41494C96.9273 3.32494 97.954 5.13327 97.954 7.83994C97.954 9.93994 97.009 11.8999 95.119 13.7199C93.2757 15.5399 90.779 16.5199 87.629 16.6599L87.384 15.7499C88.994 15.4699 90.3473 14.6299 91.444 13.2299C92.5173 11.8533 93.054 10.1966 93.054 8.25994C93.054 6.62661 92.5873 5.36661 91.654 4.47994C90.744 3.59327 89.5657 3.14994 88.119 3.14994H86.229L86.159 18.5499C86.159 19.9733 86.264 21.2099 86.474 22.2599C86.7073 23.3099 86.9523 23.9633 87.209 24.2199L87.559 24.5699L87.384 25.6899H80.979V25.4799C81.5857 24.4533 81.889 22.1433 81.889 18.5499V8.32994C81.889 6.90661 81.784 5.66994 81.574 4.61994C81.3873 3.56994 81.189 2.91661 80.979 2.65994ZM99.724 13.5449C99.724 10.0683 100.809 7.03494 102.979 4.44494C105.196 1.85494 107.821 0.55994 110.854 0.55994C114.027 0.55994 116.629 1.69161 118.659 3.95494C120.689 6.19494 121.704 9.29827 121.704 13.2649C121.704 16.8116 120.584 19.8683 118.344 22.4349C116.151 24.9783 113.561 26.2499 110.574 26.2499C107.517 26.2499 104.939 25.1416 102.839 22.9249C100.762 20.6616 99.724 17.5349 99.724 13.5449ZM116.874 13.5099C116.874 10.2899 116.291 7.71161 115.124 5.77494C113.957 3.83827 112.394 2.86994 110.434 2.86994C108.801 2.86994 107.401 3.83827 106.234 5.77494C105.114 7.68827 104.554 10.1966 104.554 13.2999C104.554 16.5666 105.126 19.1333 106.269 20.9999C107.436 22.8666 108.999 23.7999 110.959 23.7999C112.592 23.7999 113.981 22.8433 115.124 20.9299C116.291 18.9933 116.874 16.5199 116.874 13.5099ZM140.576 25.6899H134.171V25.4799C134.778 24.4533 135.081 22.1433 135.081 18.5499L135.116 8.32994C135.116 6.90661 135.011 5.66994 134.801 4.61994C134.614 3.56994 134.404 2.91661 134.171 2.65994L133.856 2.30994L134.031 1.18994H140.261V1.39994C139.678 2.26327 139.386 4.57327 139.386 8.32994L139.351 18.5499C139.351 19.9733 139.456 21.2099 139.666 22.2599C139.899 23.3099 140.144 23.9633 140.401 24.2199L140.751 24.5699L140.576 25.6899ZM152.371 25.6899H146.841C145.301 20.8833 144.134 17.6983 143.341 16.1349C142.384 14.3849 141.346 13.4866 140.226 13.4399L140.051 12.7399C144.251 7.81661 146.153 4.51494 145.756 2.83494C145.686 2.57827 145.569 2.40327 145.406 2.30994L145.581 1.18994H151.881V1.39994L143.341 11.9349H145.161C146.281 13.1949 147.296 14.7349 148.206 16.5549C148.556 17.2316 148.976 18.0949 149.466 19.1449C149.979 20.1716 150.376 20.9766 150.656 21.5599C150.936 22.1433 151.251 22.7266 151.601 23.3099C151.951 23.8933 152.266 24.3133 152.546 24.5699L152.371 25.6899ZM127.171 25.6899H121.361V25.4449C121.921 24.9316 122.609 23.8466 123.426 22.1899C124.126 20.7666 125.036 18.9699 126.156 16.7999C127.183 14.8399 128.268 13.2183 129.411 11.9349H131.371C128.758 7.94494 126.856 5.31994 125.666 4.05994C124.663 3.03327 123.858 2.44994 123.251 2.30994L123.391 1.18994H129.691L129.726 1.43494C129.656 1.78494 129.668 2.33327 129.761 3.07994C129.854 3.68661 130.053 4.42161 130.356 5.28494C131.126 7.43161 132.526 10.0566 134.556 13.1599L134.486 13.2999C132.316 13.4633 129.878 17.5933 127.171 25.6899ZM166.874 25.6899H153.084V25.5149L165.474 0.244939H166.209C168.496 9.78827 170.001 15.8899 170.724 18.5499C171.237 20.4166 171.751 21.8399 172.264 22.8199L174.154 22.7499L174.364 23.0299L171.669 29.9599H170.304C170.421 29.6799 170.467 29.1899 170.444 28.4899C170.444 26.6233 169.254 25.6899 166.874 25.6899ZM164.004 8.25994L157.564 23.3449L167.119 23.0299L165.264 13.9649L164.109 8.25994H164.004ZM193.002 21.1049L191.182 25.6899H176.272V25.4799C176.902 24.4533 177.217 22.1549 177.217 18.5849V8.25994C177.217 7.39661 177.182 6.62661 177.112 5.94994C177.065 5.27327 176.972 4.72494 176.832 4.30494C176.715 3.88494 176.61 3.55827 176.517 3.32494C176.424 3.09161 176.307 2.86994 176.167 2.65994C176.05 2.42661 175.98 2.28661 175.957 2.23994L176.132 1.15494H181.942C186.025 1.15494 188.779 1.04994 190.202 0.83994L190.902 0.734939L191.497 1.32994L189.887 5.00494H189.642C189.292 4.79494 188.965 4.63161 188.662 4.51494C188.172 4.30494 187.25 4.07161 185.897 3.81494C184.544 3.51161 183.074 3.39494 181.487 3.46494V11.8299C183.12 11.7133 184.485 11.5499 185.582 11.3399C186.889 11.1066 187.799 10.8966 188.312 10.7099L189.152 10.4299L189.782 10.9899L188.452 14.1749H181.487V23.3099C183.704 23.2866 185.757 23.0299 187.647 22.5399C189.374 22.0966 190.575 21.6533 191.252 21.2099L192.162 20.5449L193.002 21.1049ZM195.242 2.65994L194.927 2.30994L195.102 1.18994H201.332V1.39994C200.748 2.26327 200.457 4.57327 200.457 8.32994V11.6199L209.697 11.1299V8.32994C209.697 5.13327 209.335 3.17327 208.612 2.44994L208.472 2.30994L208.647 1.18994H214.842V1.39994C214.282 2.28661 214.002 4.59661 214.002 8.32994L213.967 18.5499C213.967 19.9733 214.072 21.2099 214.282 22.2599C214.515 23.3099 214.76 23.9633 215.017 24.2199L215.367 24.5699L215.192 25.6899H208.787V25.4799C209.393 24.4533 209.697 22.1433 209.697 18.5499V14.0349H200.457V18.5499C200.457 19.8099 200.538 20.9066 200.702 21.8399C200.865 22.7499 201.028 23.3799 201.192 23.7299C201.355 24.0799 201.518 24.3133 201.682 24.4299L201.822 24.5699L201.647 25.6899H195.242V25.4799C195.872 24.4533 196.187 22.1433 196.187 18.5499V8.32994C196.187 6.90661 196.082 5.66994 195.872 4.61994C195.685 3.56994 195.475 2.91661 195.242 2.65994ZM224.557 8.29494V14.7349V17.5699H224.627L237.542 -5.9545e-05L238.662 0.34994C238.078 1.86661 237.787 4.50327 237.787 8.25994V18.5849C237.787 21.7116 238.195 23.6833 239.012 24.4999L239.152 24.6049L238.977 25.6899H232.607V25.4799C233.213 24.4533 233.517 22.1549 233.517 18.5849V12.2149V10.2199H233.447L220.567 26.4599L219.412 26.1099C219.995 24.5933 220.287 21.9566 220.287 18.1999V8.29494C220.287 6.87161 220.17 5.63494 219.937 4.58494C219.727 3.53494 219.493 2.88161 219.237 2.62494L218.887 2.27494L219.062 1.18994H225.467V1.39994C224.86 2.42661 224.557 4.72494 224.557 8.29494ZM242.886 9.37994C242.886 7.41994 243.772 5.58827 245.546 3.88494C247.506 2.08827 250.364 1.18994 254.121 1.18994H259.931V1.39994C259.347 2.33327 259.056 4.60827 259.056 8.22494V18.5499C259.056 21.6533 259.511 23.6599 260.421 24.5699L260.246 25.6899H253.841V25.4799C254.447 23.8466 254.751 21.5366 254.751 18.5499L254.821 3.14994C252.697 3.14994 250.947 3.73327 249.571 4.89994C248.241 6.06661 247.576 7.53661 247.576 9.30994C247.576 10.8733 248.077 12.0866 249.081 12.9499C250.084 13.8133 251.274 14.3499 252.651 14.5599L252.826 15.1199C252.616 15.3299 252.266 15.7966 251.776 16.5199C251.309 17.1966 250.621 18.4683 249.711 20.3349C248.824 22.1316 248.159 23.9166 247.716 25.6899H241.451V25.4099C244.344 21.5599 246.549 18.2699 248.066 15.5399C246.642 15.3533 245.417 14.6883 244.391 13.5449C243.387 12.4016 242.886 11.0133 242.886 9.37994ZM62.9722 38.2949V44.7349V47.5699H63.0422L75.9572 29.9999L77.0772 30.3499C76.4939 31.8666 76.2022 34.5033 76.2022 38.2599V48.5849C76.2022 51.7116 76.6105 53.6833 77.4272 54.4999L77.5672 54.6049L77.3922 55.6899H71.0222V55.4799C71.6289 54.4533 71.9322 52.1549 71.9322 48.5849V42.2149V40.2199H71.8622L58.9822 56.4599L57.8272 56.1099C58.4105 54.5933 58.7022 51.9566 58.7022 48.1999V38.2949C58.7022 36.8716 58.5855 35.6349 58.3522 34.5849C58.1422 33.5349 57.9089 32.8816 57.6522 32.6249L57.3022 32.2749L57.4772 31.1899H63.8822V31.3999C63.2755 32.4266 62.9722 34.7249 62.9722 38.2949ZM105.163 46.1349L108.173 46.8349C108.01 47.9083 107.706 48.9699 107.263 50.0199C106.82 51.0466 106.236 52.0266 105.513 52.9599C104.813 53.8933 103.926 54.6516 102.853 55.2349C101.78 55.7949 100.601 56.0749 99.3181 56.0749C96.3081 56.0749 93.9631 55.0716 92.2831 53.0649C90.6031 51.0583 89.7281 48.1999 89.6581 44.4899C89.6114 41.0366 90.5331 37.9566 92.4231 35.2499C93.3564 33.8966 94.6397 32.8349 96.2731 32.0649C97.9064 31.2716 99.7264 30.8749 101.733 30.8749L106.668 31.1899L104.988 38.5399L103.903 38.3649C103.903 37.8049 103.856 37.1983 103.763 36.5449C103.483 34.3516 102.41 33.2083 100.543 33.1149C98.7697 33.1149 97.3114 34.1416 96.1681 36.1949C95.0481 38.2483 94.4881 40.8266 94.4881 43.9299C94.4881 46.7533 95.0014 48.9933 96.0281 50.6499C97.0547 52.2833 98.4197 53.0999 100.123 53.0999C101.733 53.0999 102.993 52.3299 103.903 50.7899C104.836 49.2499 105.256 47.6983 105.163 46.1349ZM122.912 31.1899H129.282V31.3999C128.558 32.4733 127.252 34.7949 125.362 38.3649L124.522 39.9749L123.612 41.7249L122.702 43.4049L121.792 45.1899C120.952 46.9166 120.462 47.9899 120.322 48.4099C119.645 50.2533 119.307 51.4199 119.307 51.9099C119.307 52.4933 119.4 53.0183 119.587 53.4849C119.773 53.9516 119.983 54.2666 120.217 54.4299L120.497 54.6049L120.357 55.6899H113.462V55.4799C115.165 53.2633 116.635 50.8016 117.872 48.0949H115.807C113.823 42.4716 112.318 38.5049 111.292 36.1949C110.475 34.3749 109.728 33.1733 109.052 32.5899L108.702 32.2749L108.842 31.1899H114.757V31.3649C114.943 32.2049 115.247 33.3133 115.667 34.6899C116.367 36.9299 117.032 38.8666 117.662 40.4999L119.412 44.9799H119.482L121.827 40.4299C123.04 38.0966 123.647 36.1016 123.647 34.4449C123.647 33.9783 123.577 33.5583 123.437 33.1849C123.297 32.7883 123.145 32.5433 122.982 32.4499L122.772 32.2749L122.912 31.1899ZM137.975 55.6899H124.185V55.5149L136.575 30.2449H137.31C139.597 39.7883 141.102 45.8899 141.825 48.5499C142.338 50.4166 142.852 51.8399 143.365 52.8199L145.255 52.7499L145.465 53.0299L142.77 59.9599H141.405C141.522 59.6799 141.568 59.1899 141.545 58.4899C141.545 56.6233 140.355 55.6899 137.975 55.6899ZM135.105 38.2599L128.665 53.3449L138.22 53.0299L136.365 43.9649L135.21 38.2599H135.105ZM164.103 46.1699C164.103 48.2699 163.356 50.2883 161.863 52.2249C161.093 53.2283 160.008 54.0449 158.608 54.6749C157.231 55.3049 155.68 55.6433 153.953 55.6899H147.373V55.4799C147.98 54.4533 148.283 52.1549 148.283 48.5849L148.318 38.3299C148.318 36.9299 148.213 35.7166 148.003 34.6899C147.816 33.6399 147.606 32.9633 147.373 32.6599L147.058 32.3099L147.233 31.1899H153.463V31.3999C152.88 32.2633 152.588 34.5733 152.588 38.3299L152.553 53.7299H153.218C154.898 53.7299 156.31 52.9833 157.453 51.4899C158.62 49.9733 159.203 48.2349 159.203 46.2749C159.203 44.5016 158.783 43.2649 157.943 42.5649C157.126 41.8649 155.925 41.5616 154.338 41.6549L154.198 40.8149C155.458 40.2783 156.683 39.9983 157.873 39.9749C159.086 39.9283 160.148 40.1266 161.058 40.5699C161.991 41.0133 162.726 41.7249 163.263 42.7049C163.823 43.6616 164.103 44.8166 164.103 46.1699ZM171.97 33.4649L171.83 53.7999H172.495C174.175 53.7999 175.645 53.0416 176.905 51.5249C178.189 50.0083 178.83 48.2699 178.83 46.3099C178.83 42.9733 177.092 41.4333 173.615 41.6899L173.475 40.8499C174.805 40.2666 176.17 39.9749 177.57 39.9749C179.367 39.9749 180.837 40.5349 181.98 41.6549C183.124 42.7749 183.695 44.2916 183.695 46.2049C183.695 46.9983 183.567 47.8149 183.31 48.6549C183.077 49.4949 182.669 50.3349 182.085 51.1749C181.525 52.0149 180.837 52.7733 180.02 53.4499C179.227 54.1033 178.2 54.6399 176.94 55.0599C175.704 55.4799 174.339 55.6899 172.845 55.6899H166.65V55.4799C167.21 54.3599 167.514 52.0499 167.56 48.5499L167.595 38.3299C167.595 35.1566 167.199 33.1733 166.405 32.3799L166.335 32.3099L166.51 31.1899H175.715C177.115 31.1899 178.387 31.1433 179.53 31.0499C180.884 30.9333 181.63 30.8516 181.77 30.8049L182.4 31.3649L180.545 35.3199H180.3C177.874 33.9433 175.097 33.3249 171.97 33.4649ZM198.3 51.9099L197.6 48.9699H190.145L189.585 50.3699C188.885 52.0966 188.78 53.4499 189.27 54.4299L189.375 54.6049L189.2 55.6899H183.145V55.4799C183.798 54.8266 184.37 54.0449 184.86 53.1349L196.34 30.2449H197.075L202.15 48.5849C202.967 51.4783 203.935 53.4849 205.055 54.6049L204.88 55.6899H197.845V55.4799C198.428 54.4766 198.58 53.2866 198.3 51.9099ZM195.535 40.2899L194.94 37.8049H194.835L191.16 46.5899L196.97 46.3799L195.535 40.2899Z" fill="white"/>
</svg>
