<svg width="320" height="27" viewBox="0 0 320 27" fill="none" xmlns="http://www.w3.org/2000/svg">
<path d="M1.43505 9.37994C1.43505 7.41994 2.32172 5.58827 4.09505 3.88494C6.05505 2.08827 8.91338 1.18994 12.67 1.18994H18.4801V1.39994C17.8967 2.33327 17.605 4.60827 17.605 8.22494V18.5499C17.605 21.6533 18.06 23.6599 18.9701 24.5699L18.7951 25.6899H12.39V25.4799C12.9967 23.8466 13.3 21.5366 13.3 18.5499L13.37 3.14994C11.2467 3.14994 9.49672 3.73327 8.12005 4.89994C6.79005 6.06661 6.12505 7.53661 6.12505 9.30994C6.12505 10.8733 6.62672 12.0866 7.63005 12.9499C8.63338 13.8133 9.82338 14.3499 11.2 14.5599L11.375 15.1199C11.165 15.3299 10.815 15.7966 10.325 16.5199C9.85838 17.1966 9.17005 18.4683 8.26005 20.3349C7.37338 22.1316 6.70838 23.9166 6.26505 25.6899H4.88777e-05V25.4099C2.89338 21.5599 5.09838 18.2699 6.61505 15.5399C5.19172 15.3533 3.96672 14.6883 2.94005 13.5449C1.93672 12.4016 1.43505 11.0133 1.43505 9.37994ZM22.7998 2.65994L22.4848 2.30994L22.6598 1.18994H30.1148C32.8448 1.18994 35.0381 1.59827 36.6948 2.41494C38.7481 3.32494 39.7748 5.13327 39.7748 7.83994C39.7748 9.93994 38.8298 11.8999 36.9398 13.7199C35.0965 15.5399 32.5998 16.5199 29.4498 16.6599L29.2048 15.7499C30.8148 15.4699 32.1681 14.6299 33.2648 13.2299C34.3381 11.8533 34.8748 10.1966 34.8748 8.25994C34.8748 6.62661 34.4081 5.36661 33.4748 4.47994C32.5648 3.59327 31.3865 3.14994 29.9398 3.14994H28.0498L27.9798 18.5499C27.9798 19.9733 28.0848 21.2099 28.2948 22.2599C28.5281 23.3099 28.7731 23.9633 29.0298 24.2199L29.3798 24.5699L29.2048 25.6899H22.7998V25.4799C23.4065 24.4533 23.7098 22.1433 23.7098 18.5499V8.32994C23.7098 6.90661 23.6048 5.66994 23.3948 4.61994C23.2081 3.56994 23.0098 2.91661 22.7998 2.65994ZM42.9188 18.5499L42.9538 8.32994C42.9538 6.90661 42.8488 5.66994 42.6388 4.61994C42.4521 3.56994 42.2421 2.91661 42.0088 2.65994L41.6938 2.30994L41.8688 1.18994H48.0988V1.39994C47.5155 2.26327 47.2238 4.57327 47.2238 8.32994L47.1888 18.5499C47.1888 19.9733 47.2938 21.2099 47.5038 22.2599C47.7371 23.3099 47.9821 23.9633 48.2388 24.2199L48.5888 24.5699L48.4138 25.6899H42.0088V25.4799C42.6155 24.4533 42.9188 22.1433 42.9188 18.5499ZM61.4338 24.5699L61.2588 25.6899H55.5538C54.4805 21.7933 53.2671 18.7716 51.9138 16.6249C50.5838 14.4783 49.3005 13.4166 48.0638 13.4399L47.8888 12.7399C52.8355 6.92994 54.7371 3.45327 53.5938 2.30994L53.7688 1.18994H60.0688V1.39994C59.6721 1.93661 58.1905 3.69827 55.6238 6.68494C53.1505 9.53161 51.6688 11.2816 51.1788 11.9349H53.6988C54.8188 13.1949 55.8688 14.7349 56.8488 16.5549C57.2455 17.2783 57.8055 18.3633 58.5288 19.8099C59.2755 21.2333 59.8588 22.3066 60.2788 23.0299C60.6988 23.7299 61.0838 24.2433 61.4338 24.5699ZM68.9312 8.29494V14.7349V17.5699H69.0012L81.9162 -5.9545e-05L83.0362 0.34994C82.4528 1.86661 82.1612 4.50327 82.1612 8.25994V18.5849C82.1612 21.7116 82.5695 23.6833 83.3862 24.4999L83.5262 24.6049L83.3512 25.6899H76.9812V25.4799C77.5878 24.4533 77.8912 22.1549 77.8912 18.5849V12.2149V10.2199H77.8212L64.9412 26.4599L63.7862 26.1099C64.3695 24.5933 64.6612 21.9566 64.6612 18.1999V8.29494C64.6612 6.87161 64.5445 5.63494 64.3112 4.58494C64.1012 3.53494 63.8678 2.88161 63.6112 2.62494L63.2612 2.27494L63.4362 1.18994H69.8412V1.39994C69.2345 2.42661 68.9312 4.72494 68.9312 8.29494ZM104.095 21.1049L102.275 25.6899H87.3652V25.4799C87.9952 24.4533 88.3102 22.1549 88.3102 18.5849V8.25994C88.3102 7.39661 88.2752 6.62661 88.2052 5.94994C88.1586 5.27327 88.0652 4.72494 87.9252 4.30494C87.8086 3.88494 87.7036 3.55827 87.6102 3.32494C87.5169 3.09161 87.4002 2.86994 87.2602 2.65994C87.1436 2.42661 87.0736 2.28661 87.0502 2.23994L87.2252 1.15494H93.0352C97.1186 1.15494 99.8719 1.04994 101.295 0.83994L101.995 0.734939L102.59 1.32994L100.98 5.00494H100.735C100.385 4.79494 100.059 4.63161 99.7552 4.51494C99.2652 4.30494 98.3436 4.07161 96.9902 3.81494C95.6369 3.51161 94.1669 3.39494 92.5802 3.46494V11.8299C94.2136 11.7133 95.5786 11.5499 96.6752 11.3399C97.9819 11.1066 98.8919 10.8966 99.4052 10.7099L100.245 10.4299L100.875 10.9899L99.5452 14.1749H92.5802V23.3099C94.7969 23.2866 96.8502 23.0299 98.7402 22.5399C100.467 22.0966 101.669 21.6533 102.345 21.2099L103.255 20.5449L104.095 21.1049ZM130.215 3.21994L121.36 3.67494V18.5499C121.36 19.9733 121.465 21.2099 121.675 22.2599C121.908 23.3099 122.153 23.9633 122.41 24.2199L122.76 24.5699L122.55 25.6899H116.145V25.4799C116.775 24.4533 117.09 22.1433 117.09 18.5499V8.32994C117.09 6.90661 116.985 5.66994 116.775 4.61994C116.588 3.56994 116.378 2.91661 116.145 2.65994L115.83 2.30994L116.005 1.18994H135.36V1.39994C134.823 2.26327 134.531 4.57327 134.485 8.32994L134.45 18.5499C134.45 19.9733 134.555 21.2099 134.765 22.2599C134.998 23.3099 135.243 23.9633 135.5 24.2199L135.85 24.5699L135.675 25.6899H129.27V25.4799C129.876 24.4533 130.18 22.1433 130.18 18.5499L130.215 3.21994ZM156.39 21.1049L154.57 25.6899H139.66V25.4799C140.29 24.4533 140.605 22.1549 140.605 18.5849V8.25994C140.605 7.39661 140.57 6.62661 140.5 5.94994C140.453 5.27327 140.36 4.72494 140.22 4.30494C140.103 3.88494 139.998 3.55827 139.905 3.32494C139.812 3.09161 139.695 2.86994 139.555 2.65994C139.438 2.42661 139.368 2.28661 139.345 2.23994L139.52 1.15494H145.33C149.414 1.15494 152.167 1.04994 153.59 0.83994L154.29 0.734939L154.885 1.32994L153.275 5.00494H153.03C152.68 4.79494 152.354 4.63161 152.05 4.51494C151.56 4.30494 150.638 4.07161 149.285 3.81494C147.932 3.51161 146.462 3.39494 144.875 3.46494V11.8299C146.509 11.7133 147.874 11.5499 148.97 11.3399C150.277 11.1066 151.187 10.8966 151.7 10.7099L152.54 10.4299L153.17 10.9899L151.84 14.1749H144.875V23.3099C147.092 23.2866 149.145 23.0299 151.035 22.5399C152.762 22.0966 153.964 21.6533 154.64 21.2099L155.55 20.5449L156.39 21.1049ZM158.63 2.65994L158.315 2.30994L158.49 1.18994H165.945C168.675 1.18994 170.868 1.59827 172.525 2.41494C174.578 3.32494 175.605 5.13327 175.605 7.83994C175.605 9.93994 174.66 11.8999 172.77 13.7199C170.927 15.5399 168.43 16.5199 165.28 16.6599L165.035 15.7499C166.645 15.4699 167.998 14.6299 169.095 13.2299C170.168 11.8533 170.705 10.1966 170.705 8.25994C170.705 6.62661 170.238 5.36661 169.305 4.47994C168.395 3.59327 167.217 3.14994 165.77 3.14994H163.88L163.81 18.5499C163.81 19.9733 163.915 21.2099 164.125 22.2599C164.358 23.3099 164.603 23.9633 164.86 24.2199L165.21 24.5699L165.035 25.6899H158.63V25.4799C159.237 24.4533 159.54 22.1433 159.54 18.5499V8.32994C159.54 6.90661 159.435 5.66994 159.225 4.61994C159.038 3.56994 158.84 2.91661 158.63 2.65994ZM192.88 16.1349L195.89 16.8349C195.727 17.9083 195.423 18.9699 194.98 20.0199C194.537 21.0466 193.953 22.0266 193.23 22.9599C192.53 23.8933 191.643 24.6516 190.57 25.2349C189.497 25.7949 188.318 26.0749 187.035 26.0749C184.025 26.0749 181.68 25.0716 180 23.0649C178.32 21.0583 177.445 18.1999 177.375 14.4899C177.328 11.0366 178.25 7.95661 180.14 5.24994C181.073 3.89661 182.357 2.83494 183.99 2.06494C185.623 1.27161 187.443 0.87494 189.45 0.87494L194.385 1.18994L192.705 8.53994L191.62 8.36494C191.62 7.80494 191.573 7.19827 191.48 6.54494C191.2 4.35161 190.127 3.20827 188.26 3.11494C186.487 3.11494 185.028 4.14161 183.885 6.19494C182.765 8.24827 182.205 10.8266 182.205 13.9299C182.205 16.7533 182.718 18.9933 183.745 20.6499C184.772 22.2833 186.137 23.0999 187.84 23.0999C189.45 23.0999 190.71 22.3299 191.62 20.7899C192.553 19.2499 192.973 17.6983 192.88 16.1349ZM197.643 13.5449C197.643 10.0683 198.728 7.03494 200.898 4.44494C203.115 1.85494 205.74 0.55994 208.773 0.55994C211.947 0.55994 214.548 1.69161 216.578 3.95494C218.608 6.19494 219.623 9.29827 219.623 13.2649C219.623 16.8116 218.503 19.8683 216.263 22.4349C214.07 24.9783 211.48 26.2499 208.493 26.2499C205.437 26.2499 202.858 25.1416 200.758 22.9249C198.682 20.6616 197.643 17.5349 197.643 13.5449ZM214.793 13.5099C214.793 10.2899 214.21 7.71161 213.043 5.77494C211.877 3.83827 210.313 2.86994 208.353 2.86994C206.72 2.86994 205.32 3.83827 204.153 5.77494C203.033 7.68827 202.473 10.1966 202.473 13.2999C202.473 16.5666 203.045 19.1333 204.188 20.9999C205.355 22.8666 206.918 23.7999 208.878 23.7999C210.512 23.7999 211.9 22.8433 213.043 20.9299C214.21 18.9933 214.793 16.5199 214.793 13.5099ZM222.717 2.65994L222.402 2.30994L222.577 1.18994H228.807V1.39994C228.223 2.26327 227.932 4.57327 227.932 8.32994V11.6199L237.172 11.1299V8.32994C237.172 5.13327 236.81 3.17327 236.087 2.44994L235.947 2.30994L236.122 1.18994H242.317V1.39994C241.757 2.28661 241.477 4.59661 241.477 8.32994L241.442 18.5499C241.442 19.9733 241.547 21.2099 241.757 22.2599C241.99 23.3099 242.235 23.9633 242.492 24.2199L242.842 24.5699L242.667 25.6899H236.262V25.4799C236.868 24.4533 237.172 22.1433 237.172 18.5499V14.0349H227.932V18.5499C227.932 19.8099 228.013 20.9066 228.177 21.8399C228.34 22.7499 228.503 23.3799 228.667 23.7299C228.83 24.0799 228.993 24.3133 229.157 24.4299L229.297 24.5699L229.122 25.6899H222.717V25.4799C223.347 24.4533 223.662 22.1433 223.662 18.5499V8.32994C223.662 6.90661 223.557 5.66994 223.347 4.61994C223.16 3.56994 222.95 2.91661 222.717 2.65994ZM259.049 21.9099L258.349 18.9699H250.894L250.334 20.3699C249.634 22.0966 249.529 23.4499 250.019 24.4299L250.124 24.6049L249.949 25.6899H243.894V25.4799C244.547 24.8266 245.119 24.0449 245.609 23.1349L257.089 0.244939H257.824L262.899 18.5849C263.716 21.4783 264.684 23.4849 265.804 24.6049L265.629 25.6899H258.594V25.4799C259.177 24.4766 259.329 23.2866 259.049 21.9099ZM256.284 10.2899L255.689 7.80494H255.584L251.909 16.5899L257.719 16.3799L256.284 10.2899ZM285.356 25.6899H278.951V25.4799C279.558 24.4533 279.861 22.1433 279.861 18.5499L279.896 8.32994C279.896 6.90661 279.791 5.66994 279.581 4.61994C279.394 3.56994 279.184 2.91661 278.951 2.65994L278.636 2.30994L278.811 1.18994H285.041V1.39994C284.458 2.26327 284.166 4.57327 284.166 8.32994L284.131 18.5499C284.131 19.9733 284.236 21.2099 284.446 22.2599C284.679 23.3099 284.924 23.9633 285.181 24.2199L285.531 24.5699L285.356 25.6899ZM297.151 25.6899H291.621C290.081 20.8833 288.914 17.6983 288.121 16.1349C287.164 14.3849 286.126 13.4866 285.006 13.4399L284.831 12.7399C289.031 7.81661 290.933 4.51494 290.536 2.83494C290.466 2.57827 290.349 2.40327 290.186 2.30994L290.361 1.18994H296.661V1.39994L288.121 11.9349H289.941C291.061 13.1949 292.076 14.7349 292.986 16.5549C293.336 17.2316 293.756 18.0949 294.246 19.1449C294.759 20.1716 295.156 20.9766 295.436 21.5599C295.716 22.1433 296.031 22.7266 296.381 23.3099C296.731 23.8933 297.046 24.3133 297.326 24.5699L297.151 25.6899ZM271.951 25.6899H266.141V25.4449C266.701 24.9316 267.389 23.8466 268.206 22.1899C268.906 20.7666 269.816 18.9699 270.936 16.7999C271.963 14.8399 273.048 13.2183 274.191 11.9349H276.151C273.538 7.94494 271.636 5.31994 270.446 4.05994C269.443 3.03327 268.638 2.44994 268.031 2.30994L268.171 1.18994H274.471L274.506 1.43494C274.436 1.78494 274.448 2.33327 274.541 3.07994C274.634 3.68661 274.833 4.42161 275.136 5.28494C275.906 7.43161 277.306 10.0566 279.336 13.1599L279.266 13.2999C277.096 13.4633 274.658 17.5933 271.951 25.6899ZM304.839 8.29494V14.7349V17.5699H304.909L317.824 -5.9545e-05L318.944 0.34994C318.361 1.86661 318.069 4.50327 318.069 8.25994V18.5849C318.069 21.7116 318.478 23.6833 319.294 24.4999L319.434 24.6049L319.259 25.6899H312.889V25.4799C313.496 24.4533 313.799 22.1549 313.799 18.5849V12.2149V10.2199H313.729L300.849 26.4599L299.694 26.1099C300.278 24.5933 300.569 21.9566 300.569 18.1999V8.29494C300.569 6.87161 300.453 5.63494 300.219 4.58494C300.009 3.53494 299.776 2.88161 299.519 2.62494L299.169 2.27494L299.344 1.18994H305.749V1.39994C305.143 2.42661 304.839 4.72494 304.839 8.29494Z" fill="white"/>
</svg>
