<svg width="270" height="60" viewBox="0 0 270 60" fill="none" xmlns="http://www.w3.org/2000/svg">
<path d="M14.385 3.21994L5.52995 3.67494V18.5499C5.52995 19.9733 5.63495 21.2099 5.84495 22.2599C6.07828 23.3099 6.32328 23.9633 6.57995 24.2199L6.92995 24.5699L6.71995 25.6899H0.314951V25.4799C0.944951 24.4533 1.25995 22.1433 1.25995 18.5499V8.32994C1.25995 6.90661 1.15495 5.66994 0.944951 4.61994C0.758285 3.56994 0.548285 2.91661 0.314951 2.65994L-4.87082e-05 2.30994L0.174951 1.18994H19.53V1.39994C18.9933 2.26327 18.7016 4.57327 18.655 8.32994L18.62 18.5499C18.62 19.9733 18.725 21.2099 18.935 22.2599C19.1683 23.3099 19.4133 23.9633 19.67 24.2199L20.02 24.5699L19.845 25.6899H13.44V25.4799C14.0466 24.4533 14.35 22.1433 14.35 18.5499L14.385 3.21994ZM22.6488 13.5449C22.6488 10.0683 23.7338 7.03494 25.9038 4.44494C28.1204 1.85494 30.7454 0.55994 33.7788 0.55994C36.9521 0.55994 39.5538 1.69161 41.5838 3.95494C43.6138 6.19494 44.6288 9.29827 44.6288 13.2649C44.6288 16.8116 43.5088 19.8683 41.2688 22.4349C39.0754 24.9783 36.4854 26.2499 33.4988 26.2499C30.4421 26.2499 27.8638 25.1416 25.7638 22.9249C23.6871 20.6616 22.6488 17.5349 22.6488 13.5449ZM39.7988 13.5099C39.7988 10.2899 39.2154 7.71161 38.0488 5.77494C36.8821 3.83827 35.3188 2.86994 33.3588 2.86994C31.7254 2.86994 30.3254 3.83827 29.1588 5.77494C28.0388 7.68827 27.4788 10.1966 27.4788 13.2999C27.4788 16.5666 28.0504 19.1333 29.1938 20.9999C30.3604 22.8666 31.9238 23.7999 33.8838 23.7999C35.5171 23.7999 36.9054 22.8433 38.0488 20.9299C39.2154 18.9933 39.7988 16.5199 39.7988 13.5099ZM53.0772 8.29494V14.7349V17.5699H53.1472L66.0622 -5.9545e-05L67.1822 0.34994C66.5988 1.86661 66.3072 4.50327 66.3072 8.25994V18.5849C66.3072 21.7116 66.7155 23.6833 67.5322 24.4999L67.6722 24.6049L67.4972 25.6899H61.1272V25.4799C61.7338 24.4533 62.0372 22.1549 62.0372 18.5849V12.2149V10.2199H61.9672L49.0872 26.4599L47.9322 26.1099C48.5155 24.5933 48.8072 21.9566 48.8072 18.1999V8.29494C48.8072 6.87161 48.6905 5.63494 48.4572 4.58494C48.2472 3.53494 48.0138 2.88161 47.7572 2.62494L47.4072 2.27494L47.5822 1.18994H53.9872V1.39994C53.3805 2.42661 53.0772 4.72494 53.0772 8.29494ZM85.8344 16.1349L88.8444 16.8349C88.6811 17.9083 88.3778 18.9699 87.9344 20.0199C87.4911 21.0466 86.9078 22.0266 86.1844 22.9599C85.4844 23.8933 84.5978 24.6516 83.5244 25.2349C82.4511 25.7949 81.2728 26.0749 79.9894 26.0749C76.9794 26.0749 74.6344 25.0716 72.9544 23.0649C71.2744 21.0583 70.3994 18.1999 70.3294 14.4899C70.2828 11.0366 71.2044 7.95661 73.0944 5.24994C74.0278 3.89661 75.3111 2.83494 76.9444 2.06494C78.5778 1.27161 80.3978 0.87494 82.4044 0.87494L87.3394 1.18994L85.6594 8.53994L84.5744 8.36494C84.5744 7.80494 84.5278 7.19827 84.4344 6.54494C84.1544 4.35161 83.0811 3.20827 81.2144 3.11494C79.4411 3.11494 77.9828 4.14161 76.8394 6.19494C75.7194 8.24827 75.1594 10.8266 75.1594 13.9299C75.1594 16.7533 75.6728 18.9933 76.6994 20.6499C77.7261 22.2833 79.0911 23.0999 80.7944 23.0999C82.4044 23.0999 83.6644 22.3299 84.5744 20.7899C85.5078 19.2499 85.9278 17.6983 85.8344 16.1349ZM91.972 18.5499L92.007 8.32994C92.007 6.90661 91.902 5.66994 91.692 4.61994C91.5054 3.56994 91.2954 2.91661 91.062 2.65994L90.747 2.30994L90.922 1.18994H97.152V1.39994C96.5687 2.26327 96.277 4.57327 96.277 8.32994L96.242 18.5499C96.242 19.9733 96.347 21.2099 96.557 22.2599C96.7904 23.3099 97.0354 23.9633 97.292 24.2199L97.642 24.5699L97.467 25.6899H91.062V25.4799C91.6687 24.4533 91.972 22.1433 91.972 18.5499ZM110.487 24.5699L110.312 25.6899H104.607C103.534 21.7933 102.32 18.7716 100.967 16.6249C99.637 14.4783 98.3537 13.4166 97.117 13.4399L96.942 12.7399C101.889 6.92994 103.79 3.45327 102.647 2.30994L102.822 1.18994H109.122V1.39994C108.725 1.93661 107.244 3.69827 104.677 6.68494C102.204 9.53161 100.722 11.2816 100.232 11.9349H102.752C103.872 13.1949 104.922 14.7349 105.902 16.5549C106.299 17.2783 106.859 18.3633 107.582 19.8099C108.329 21.2333 108.912 22.3066 109.332 23.0299C109.752 23.7299 110.137 24.2433 110.487 24.5699ZM121.326 13.5449C121.326 10.0683 122.411 7.03494 124.581 4.44494C126.797 1.85494 129.422 0.55994 132.456 0.55994C135.629 0.55994 138.231 1.69161 140.261 3.95494C142.291 6.19494 143.306 9.29827 143.306 13.2649C143.306 16.8116 142.186 19.8683 139.946 22.4349C137.752 24.9783 135.162 26.2499 132.176 26.2499C129.119 26.2499 126.541 25.1416 124.441 22.9249C122.364 20.6616 121.326 17.5349 121.326 13.5449ZM138.476 13.5099C138.476 10.2899 137.892 7.71161 136.726 5.77494C135.559 3.83827 133.996 2.86994 132.036 2.86994C130.402 2.86994 129.002 3.83827 127.836 5.77494C126.716 7.68827 126.156 10.1966 126.156 13.2999C126.156 16.5666 126.727 19.1333 127.871 20.9999C129.037 22.8666 130.601 23.7999 132.561 23.7999C134.194 23.7999 135.582 22.8433 136.726 20.9299C137.892 18.9933 138.476 16.5199 138.476 13.5099ZM160.469 3.21994L151.614 3.67494V18.5499C151.614 19.9733 151.719 21.2099 151.929 22.2599C152.162 23.3099 152.407 23.9633 152.664 24.2199L153.014 24.5699L152.804 25.6899H146.399V25.4799C147.029 24.4533 147.344 22.1433 147.344 18.5499V8.32994C147.344 6.90661 147.239 5.66994 147.029 4.61994C146.842 3.56994 146.632 2.91661 146.399 2.65994L146.084 2.30994L146.259 1.18994H165.614V1.39994C165.077 2.26327 164.786 4.57327 164.739 8.32994L164.704 18.5499C164.704 19.9733 164.809 21.2099 165.019 22.2599C165.252 23.3099 165.497 23.9633 165.754 24.2199L166.104 24.5699L165.929 25.6899H159.524V25.4799C160.131 24.4533 160.434 22.1433 160.434 18.5499L160.469 3.21994ZM168.733 13.5449C168.733 10.0683 169.818 7.03494 171.988 4.44494C174.204 1.85494 176.829 0.55994 179.863 0.55994C183.036 0.55994 185.638 1.69161 187.668 3.95494C189.698 6.19494 190.713 9.29827 190.713 13.2649C190.713 16.8116 189.593 19.8683 187.353 22.4349C185.159 24.9783 182.569 26.2499 179.583 26.2499C176.526 26.2499 173.948 25.1416 171.848 22.9249C169.771 20.6616 168.733 17.5349 168.733 13.5449ZM185.883 13.5099C185.883 10.2899 185.299 7.71161 184.133 5.77494C182.966 3.83827 181.403 2.86994 179.443 2.86994C177.809 2.86994 176.409 3.83827 175.243 5.77494C174.123 7.68827 173.563 10.1966 173.563 13.2999C173.563 16.5666 174.134 19.1333 175.278 20.9999C176.444 22.8666 178.008 23.7999 179.968 23.7999C181.601 23.7999 182.989 22.8433 184.133 20.9299C185.299 18.9933 185.883 16.5199 185.883 13.5099ZM193.806 2.65994L193.491 2.30994L193.666 1.18994H201.121C203.851 1.18994 206.044 1.59827 207.701 2.41494C209.754 3.32494 210.781 5.13327 210.781 7.83994C210.781 9.93994 209.836 11.8999 207.946 13.7199C206.103 15.5399 203.606 16.5199 200.456 16.6599L200.211 15.7499C201.821 15.4699 203.174 14.6299 204.271 13.2299C205.344 11.8533 205.881 10.1966 205.881 8.25994C205.881 6.62661 205.414 5.36661 204.481 4.47994C203.571 3.59327 202.393 3.14994 200.946 3.14994H199.056L198.986 18.5499C198.986 19.9733 199.091 21.2099 199.301 22.2599C199.534 23.3099 199.779 23.9633 200.036 24.2199L200.386 24.5699L200.211 25.6899H193.806V25.4799C194.413 24.4533 194.716 22.1433 194.716 18.5499V8.32994C194.716 6.90661 194.611 5.66994 194.401 4.61994C194.214 3.56994 194.016 2.91661 193.806 2.65994ZM229.57 16.1699C229.57 18.2699 228.823 20.2883 227.33 22.2249C226.56 23.2283 225.475 24.0449 224.075 24.6749C222.698 25.3049 221.147 25.6433 219.42 25.6899H213.015V25.4799C213.622 24.4533 213.925 22.1549 213.925 18.5849L213.96 8.32994C213.96 6.92994 213.855 5.71661 213.645 4.68994C213.458 3.63994 213.248 2.96327 213.015 2.65994L212.7 2.30994L212.875 1.18994H219.105V1.39994C218.522 2.26327 218.23 4.57327 218.23 8.32994L218.195 23.7299H218.685C220.365 23.7299 221.777 22.9833 222.92 21.4899C224.087 19.9733 224.67 18.2349 224.67 16.2749C224.67 14.4783 224.273 13.2416 223.48 12.5649C222.71 11.8649 221.543 11.5616 219.98 11.6549L219.84 10.8149C221.1 10.2783 222.325 9.99827 223.515 9.97494C224.705 9.92827 225.743 10.1266 226.63 10.5699C227.517 11.0133 228.228 11.7249 228.765 12.7049C229.302 13.6616 229.57 14.8166 229.57 16.1699ZM235.695 8.29494L235.66 18.5849C235.66 20.0083 235.765 21.2449 235.975 22.2949C236.208 23.3449 236.453 23.9983 236.71 24.2549L237.06 24.6049L236.885 25.6899H230.48V25.5149C231.11 24.4649 231.425 22.1549 231.425 18.5849V8.29494C231.425 6.87161 231.32 5.64661 231.11 4.61994C230.923 3.56994 230.713 2.91661 230.48 2.65994L230.165 2.27494L230.34 1.18994H236.57V1.39994C235.987 2.26327 235.695 4.56161 235.695 8.29494ZM255.318 8.29494V14.7349V17.5699H255.388L268.303 -5.9545e-05L269.423 0.34994C268.84 1.86661 268.548 4.50327 268.548 8.25994V18.5849C268.548 21.7116 268.957 23.6833 269.773 24.4999L269.913 24.6049L269.738 25.6899H263.368V25.4799C263.975 24.4533 264.278 22.1549 264.278 18.5849V12.2149V10.2199H264.208L251.328 26.4599L250.173 26.1099C250.757 24.5933 251.048 21.9566 251.048 18.1999V8.29494C251.048 6.87161 250.932 5.63494 250.698 4.58494C250.488 3.53494 250.255 2.88161 249.998 2.62494L249.648 2.27494L249.823 1.18994H256.228V1.39994C255.622 2.42661 255.318 4.72494 255.318 8.29494ZM101.676 55.6899H87.8862V55.5149L100.276 30.2449H101.011C103.298 39.7883 104.803 45.8899 105.526 48.5499C106.04 50.4166 106.553 51.8399 107.066 52.8199L108.956 52.7499L109.166 53.0299L106.471 59.9599H105.106C105.223 59.6799 105.27 59.1899 105.246 58.4899C105.246 56.6233 104.056 55.6899 101.676 55.6899ZM98.8062 38.2599L92.3662 53.3449L101.921 53.0299L100.066 43.9649L98.9112 38.2599H98.8062ZM109.927 43.5449C109.927 40.0683 111.012 37.0349 113.182 34.4449C115.398 31.8549 118.023 30.5599 121.057 30.5599C124.23 30.5599 126.832 31.6916 128.862 33.9549C130.892 36.1949 131.907 39.2983 131.907 43.2649C131.907 46.8116 130.787 49.8683 128.547 52.4349C126.353 54.9783 123.763 56.2499 120.777 56.2499C117.72 56.2499 115.142 55.1416 113.042 52.9249C110.965 50.6616 109.927 47.5349 109.927 43.5449ZM127.077 43.5099C127.077 40.2899 126.493 37.7116 125.327 35.7749C124.16 33.8383 122.597 32.8699 120.637 32.8699C119.003 32.8699 117.603 33.8383 116.437 35.7749C115.317 37.6883 114.757 40.1966 114.757 43.2999C114.757 46.5666 115.328 49.1333 116.472 50.9999C117.638 52.8666 119.202 53.7999 121.162 53.7999C122.795 53.7999 124.183 52.8433 125.327 50.9299C126.493 48.9933 127.077 46.5199 127.077 43.5099ZM159.381 55.6899H153.081V55.4799C153.477 54.3833 153.582 52.0849 153.396 48.5849L152.871 42.6349L152.731 40.8149H152.661L146.431 53.6949H145.766L140.621 41.1649H140.551L137.821 50.0199C137.587 50.7433 137.471 51.4083 137.471 52.0149C137.471 52.6216 137.517 53.0649 137.611 53.3449C137.727 53.6249 137.867 53.9049 138.031 54.1849C138.217 54.4416 138.311 54.5816 138.311 54.6049L138.136 55.6899H132.081V55.4799C132.291 55.2699 132.664 54.6983 133.201 53.7649C133.761 52.7383 134.204 51.7816 134.531 50.8949L139.186 37.9449L138.451 36.1249C137.634 34.1883 136.794 32.9049 135.931 32.2749L136.141 31.1899H141.391L146.396 43.7549L147.341 46.0649H147.481L155.251 30.2799H156.091L157.631 48.5849C157.887 51.5949 158.482 53.5666 159.416 54.4999L159.556 54.6049L159.381 55.6899ZM175.468 51.9099L174.768 48.9699H167.313L166.753 50.3699C166.053 52.0966 165.948 53.4499 166.438 54.4299L166.543 54.6049L166.368 55.6899H160.313V55.4799C160.966 54.8266 161.538 54.0449 162.028 53.1349L173.508 30.2449H174.243L179.318 48.5849C180.135 51.4783 181.103 53.4849 182.223 54.6049L182.048 55.6899H175.013V55.4799C175.596 54.4766 175.748 53.2866 175.468 51.9099ZM172.703 40.2899L172.108 37.8049H172.003L168.328 46.5899L174.138 46.3799L172.703 40.2899Z" fill="white"/>
</svg>
