<svg width="268" height="27" viewBox="0 0 268 27" fill="none" xmlns="http://www.w3.org/2000/svg">
<path d="M14.385 3.21994L5.52995 3.67494V18.5499C5.52995 19.9733 5.63495 21.2099 5.84495 22.2599C6.07828 23.3099 6.32328 23.9633 6.57995 24.2199L6.92995 24.5699L6.71995 25.6899H0.314951V25.4799C0.944951 24.4533 1.25995 22.1433 1.25995 18.5499V8.32994C1.25995 6.90661 1.15495 5.66994 0.944951 4.61994C0.758285 3.56994 0.548285 2.91661 0.314951 2.65994L-4.87082e-05 2.30994L0.174951 1.18994H19.53V1.39994C18.9933 2.26327 18.7016 4.57327 18.655 8.32994L18.62 18.5499C18.62 19.9733 18.725 21.2099 18.935 22.2599C19.1683 23.3099 19.4133 23.9633 19.67 24.2199L20.02 24.5699L19.845 25.6899H13.44V25.4799C14.0466 24.4533 14.35 22.1433 14.35 18.5499L14.385 3.21994ZM23.8306 2.65994L23.5156 2.30994L23.6906 1.18994H31.1456C33.8756 1.18994 36.0689 1.59827 37.7256 2.41494C39.7789 3.32494 40.8056 5.13327 40.8056 7.83994C40.8056 9.93994 39.8606 11.8999 37.9706 13.7199C36.1272 15.5399 33.6306 16.5199 30.4806 16.6599L30.2356 15.7499C31.8456 15.4699 33.1989 14.6299 34.2956 13.2299C35.3689 11.8533 35.9056 10.1966 35.9056 8.25994C35.9056 6.62661 35.4389 5.36661 34.5056 4.47994C33.5956 3.59327 32.4172 3.14994 30.9706 3.14994H29.0806L29.0106 18.5499C29.0106 19.9733 29.1156 21.2099 29.3256 22.2599C29.5589 23.3099 29.8039 23.9633 30.0606 24.2199L30.4106 24.5699L30.2356 25.6899H23.8306V25.4799C24.4372 24.4533 24.7406 22.1433 24.7406 18.5499V8.32994C24.7406 6.90661 24.6356 5.66994 24.4256 4.61994C24.2389 3.56994 24.0406 2.91661 23.8306 2.65994ZM42.5755 13.5449C42.5755 10.0683 43.6605 7.03494 45.8305 4.44494C48.0472 1.85494 50.6722 0.55994 53.7055 0.55994C56.8789 0.55994 59.4805 1.69161 61.5105 3.95494C63.5405 6.19494 64.5555 9.29827 64.5555 13.2649C64.5555 16.8116 63.4355 19.8683 61.1955 22.4349C59.0022 24.9783 56.4122 26.2499 53.4255 26.2499C50.3689 26.2499 47.7905 25.1416 45.6905 22.9249C43.6139 20.6616 42.5755 17.5349 42.5755 13.5449ZM59.7255 13.5099C59.7255 10.2899 59.1422 7.71161 57.9755 5.77494C56.8089 3.83827 55.2455 2.86994 53.2855 2.86994C51.6522 2.86994 50.2522 3.83827 49.0855 5.77494C47.9655 7.68827 47.4055 10.1966 47.4055 13.2999C47.4055 16.5666 47.9772 19.1333 49.1205 20.9999C50.2872 22.8666 51.8505 23.7999 53.8105 23.7999C55.4439 23.7999 56.8322 22.8433 57.9755 20.9299C59.1422 18.9933 59.7255 16.5199 59.7255 13.5099ZM64.8962 5.94994L67.5912 1.18994H78.1962C81.2996 1.14327 83.3762 1.04994 84.4262 0.909941L84.9512 0.804941L85.5462 1.36494L83.6912 5.31994H83.4462C81.9762 4.40994 79.9229 3.88494 77.2862 3.74494V18.5499C77.2862 19.9733 77.3912 21.2099 77.6012 22.2599C77.8346 23.3099 78.0796 23.9633 78.3362 24.2199L78.6862 24.5699L78.5112 25.6899H72.1062V25.4799C72.7362 24.4533 73.0512 22.1433 73.0512 18.5499V3.95494C71.4879 4.09494 70.0762 4.37494 68.8162 4.79494C67.5796 5.21494 66.7512 5.62327 66.3312 6.01994L65.7712 6.50994L64.8962 5.94994ZM84.8216 13.5449C84.8216 10.0683 85.9066 7.03494 88.0766 4.44494C90.2933 1.85494 92.9183 0.55994 95.9516 0.55994C99.125 0.55994 101.727 1.69161 103.757 3.95494C105.787 6.19494 106.802 9.29827 106.802 13.2649C106.802 16.8116 105.682 19.8683 103.442 22.4349C101.248 24.9783 98.6583 26.2499 95.6716 26.2499C92.615 26.2499 90.0366 25.1416 87.9366 22.9249C85.86 20.6616 84.8216 17.5349 84.8216 13.5449ZM101.972 13.5099C101.972 10.2899 101.388 7.71161 100.222 5.77494C99.055 3.83827 97.4916 2.86994 95.5316 2.86994C93.8983 2.86994 92.4983 3.83827 91.3316 5.77494C90.2116 7.68827 89.6516 10.1966 89.6516 13.2999C89.6516 16.5666 90.2233 19.1333 91.3666 20.9999C92.5333 22.8666 94.0966 23.7999 96.0566 23.7999C97.69 23.7999 99.0783 22.8433 100.222 20.9299C101.388 18.9933 101.972 16.5199 101.972 13.5099ZM109.252 12.3549L118.492 9.20494L118.142 12.8099L108.902 14.9099L109.252 12.3549ZM126.803 8.29494V14.7349V17.5699H126.873L139.788 -5.9545e-05L140.908 0.34994C140.324 1.86661 140.033 4.50327 140.033 8.25994V18.5849C140.033 21.7116 140.441 23.6833 141.258 24.4999L141.398 24.6049L141.223 25.6899H134.853V25.4799C135.459 24.4533 135.763 22.1549 135.763 18.5849V12.2149V10.2199H135.693L122.813 26.4599L121.658 26.1099C122.241 24.5933 122.533 21.9566 122.533 18.1999V8.29494C122.533 6.87161 122.416 5.63494 122.183 4.58494C121.973 3.53494 121.739 2.88161 121.483 2.62494L121.133 2.27494L121.308 1.18994H127.713V1.39994C127.106 2.42661 126.803 4.72494 126.803 8.29494ZM159.56 16.1349L162.57 16.8349C162.407 17.9083 162.103 18.9699 161.66 20.0199C161.217 21.0466 160.633 22.0266 159.91 22.9599C159.21 23.8933 158.323 24.6516 157.25 25.2349C156.177 25.7949 154.998 26.0749 153.715 26.0749C150.705 26.0749 148.36 25.0716 146.68 23.0649C145 21.0583 144.125 18.1999 144.055 14.4899C144.008 11.0366 144.93 7.95661 146.82 5.24994C147.753 3.89661 149.037 2.83494 150.67 2.06494C152.303 1.27161 154.123 0.87494 156.13 0.87494L161.065 1.18994L159.385 8.53994L158.3 8.36494C158.3 7.80494 158.253 7.19827 158.16 6.54494C157.88 4.35161 156.807 3.20827 154.94 3.11494C153.167 3.11494 151.708 4.14161 150.565 6.19494C149.445 8.24827 148.885 10.8266 148.885 13.9299C148.885 16.7533 149.398 18.9933 150.425 20.6499C151.452 22.2833 152.817 23.0999 154.52 23.0999C156.13 23.0999 157.39 22.3299 158.3 20.7899C159.233 19.2499 159.653 17.6983 159.56 16.1349ZM161.864 5.94994L164.559 1.18994H175.164C178.267 1.14327 180.344 1.04994 181.394 0.909941L181.919 0.804941L182.514 1.36494L180.659 5.31994H180.414C178.944 4.40994 176.891 3.88494 174.254 3.74494V18.5499C174.254 19.9733 174.359 21.2099 174.569 22.2599C174.802 23.3099 175.047 23.9633 175.304 24.2199L175.654 24.5699L175.479 25.6899H169.074V25.4799C169.704 24.4533 170.019 22.1433 170.019 18.5499V3.95494C168.456 4.09494 167.044 4.37494 165.784 4.79494C164.547 5.21494 163.719 5.62327 163.299 6.01994L162.739 6.50994L161.864 5.94994ZM181.789 13.5449C181.789 10.0683 182.874 7.03494 185.044 4.44494C187.261 1.85494 189.886 0.55994 192.919 0.55994C196.093 0.55994 198.694 1.69161 200.724 3.95494C202.754 6.19494 203.769 9.29827 203.769 13.2649C203.769 16.8116 202.649 19.8683 200.409 22.4349C198.216 24.9783 195.626 26.2499 192.639 26.2499C189.583 26.2499 187.004 25.1416 184.904 22.9249C182.828 20.6616 181.789 17.5349 181.789 13.5449ZM198.939 13.5099C198.939 10.2899 198.356 7.71161 197.189 5.77494C196.023 3.83827 194.459 2.86994 192.499 2.86994C190.866 2.86994 189.466 3.83827 188.299 5.77494C187.179 7.68827 186.619 10.1966 186.619 13.2999C186.619 16.5666 187.191 19.1333 188.334 20.9999C189.501 22.8666 191.064 23.7999 193.024 23.7999C194.658 23.7999 196.046 22.8433 197.189 20.9299C198.356 18.9933 198.939 16.5199 198.939 13.5099ZM206.863 2.65994L206.548 2.30994L206.723 1.18994H214.178C216.908 1.18994 219.101 1.59827 220.758 2.41494C222.811 3.32494 223.838 5.13327 223.838 7.83994C223.838 9.93994 222.893 11.8999 221.003 13.7199C219.159 15.5399 216.663 16.5199 213.513 16.6599L213.268 15.7499C214.878 15.4699 216.231 14.6299 217.328 13.2299C218.401 11.8533 218.938 10.1966 218.938 8.25994C218.938 6.62661 218.471 5.36661 217.538 4.47994C216.628 3.59327 215.449 3.14994 214.003 3.14994H212.113L212.043 18.5499C212.043 19.9733 212.148 21.2099 212.358 22.2599C212.591 23.3099 212.836 23.9633 213.093 24.2199L213.443 24.5699L213.268 25.6899H206.863V25.4799C207.469 24.4533 207.773 22.1433 207.773 18.5499V8.32994C207.773 6.90661 207.668 5.66994 207.458 4.61994C207.271 3.56994 207.073 2.91661 206.863 2.65994ZM231.427 8.29494V14.7349V17.5699H231.497L244.412 -5.9545e-05L245.532 0.34994C244.948 1.86661 244.657 4.50327 244.657 8.25994V18.5849C244.657 21.7116 245.065 23.6833 245.882 24.4999L246.022 24.6049L245.847 25.6899H239.477V25.4799C240.083 24.4533 240.387 22.1549 240.387 18.5849V12.2149V10.2199H240.317L227.437 26.4599L226.282 26.1099C226.865 24.5933 227.157 21.9566 227.157 18.1999V8.29494C227.157 6.87161 227.04 5.63494 226.807 4.58494C226.597 3.53494 226.363 2.88161 226.107 2.62494L225.757 2.27494L225.932 1.18994H232.337V1.39994C231.73 2.42661 231.427 4.72494 231.427 8.29494ZM249.756 9.37994C249.756 7.41994 250.643 5.58827 252.416 3.88494C254.376 2.08827 257.234 1.18994 260.991 1.18994H266.801V1.39994C266.218 2.33327 265.926 4.60827 265.926 8.22494V18.5499C265.926 21.6533 266.381 23.6599 267.291 24.5699L267.116 25.6899H260.711V25.4799C261.318 23.8466 261.621 21.5366 261.621 18.5499L261.691 3.14994C259.568 3.14994 257.818 3.73327 256.441 4.89994C255.111 6.06661 254.446 7.53661 254.446 9.30994C254.446 10.8733 254.948 12.0866 255.951 12.9499C256.954 13.8133 258.144 14.3499 259.521 14.5599L259.696 15.1199C259.486 15.3299 259.136 15.7966 258.646 16.5199C258.179 17.1966 257.491 18.4683 256.581 20.3349C255.694 22.1316 255.029 23.9166 254.586 25.6899H248.321V25.4099C251.214 21.5599 253.419 18.2699 254.936 15.5399C253.513 15.3533 252.288 14.6883 251.261 13.5449C250.258 12.4016 249.756 11.0133 249.756 9.37994Z" fill="white"/>
</svg>
