<svg width="303" height="135" viewBox="0 0 303 135" fill="none" xmlns="http://www.w3.org/2000/svg">
<g style="mix-blend-mode:difference">
<path d="M18.186 25.998L17.346 22.47H8.40004L7.72804 24.15C6.88804 26.222 6.76204 27.846 7.35004 29.022L7.47604 29.232L7.26604 30.534H3.90774e-05V30.282C0.784039 29.498 1.47004 28.56 2.05804 27.468L15.834 -5.84126e-06H16.716L22.806 22.008C23.786 25.48 24.948 27.888 26.292 29.232L26.082 30.534H17.64V30.282C18.34 29.078 18.522 27.65 18.186 25.998ZM14.868 12.054L14.154 9.072H14.028L9.61804 19.614L16.59 19.362L14.868 12.054ZM43.1281 13.902V13.986C45.5361 13.986 47.4121 14.56 48.7561 15.708C50.1281 16.856 50.8141 18.452 50.8141 20.496C50.8141 23.184 49.5961 25.536 47.1601 27.552C44.7521 29.54 41.5741 30.534 37.6261 30.534H28.9741V30.282C29.7021 29.05 30.0661 26.278 30.0661 21.966L30.1081 9.702C30.1081 7.994 29.9821 6.50999 29.7301 5.24999C29.5061 3.99 29.2541 3.206 28.9741 2.89799L28.5961 2.47799L28.8061 1.13399H36.9541C41.0421 1.13399 43.9541 1.56799 45.6901 2.436C47.4541 3.27599 48.3361 4.73199 48.3361 6.804C48.3361 8.232 47.7901 9.646 46.6981 11.046C45.5781 12.446 44.3881 13.398 43.1281 13.902ZM35.1901 27.846H36.3241C38.5641 27.846 40.5521 27.146 42.2881 25.746C44.0241 24.318 44.8921 22.526 44.8921 20.37C44.8921 18.522 44.3041 17.206 43.1281 16.422C41.9521 15.61 40.1461 15.204 37.7101 15.204L37.5421 14.364C38.8301 14 39.9781 13.188 40.9861 11.928C41.9941 10.612 42.4981 9.268 42.4981 7.896C42.4981 6.13199 41.9801 4.98399 40.9441 4.45199C39.9361 3.864 38.0321 3.57 35.2321 3.57L35.1901 27.846ZM50.4033 6.846L53.6373 1.13399H66.3633C70.0873 1.078 72.5793 0.965996 73.8393 0.797996L74.4693 0.671996L75.1833 1.34399L72.9573 6.09H72.6633C70.8993 4.99799 68.4353 4.36799 65.2713 4.2V21.966C65.2713 23.674 65.3973 25.158 65.6493 26.418C65.9293 27.678 66.2233 28.462 66.5313 28.77L66.9513 29.19L66.7413 30.534H59.0553V30.282C59.8113 29.05 60.1893 26.278 60.1893 21.966V4.45199C58.3133 4.62 56.6193 4.956 55.1073 5.46C53.6233 5.96399 52.6293 6.45399 52.1253 6.93L51.4533 7.51799L50.4033 6.846ZM74.3138 15.96C74.3138 11.788 75.6158 8.148 78.2198 5.03999C80.8798 1.93199 84.0298 0.377994 87.6698 0.377994C91.4778 0.377994 94.5998 1.73599 97.0358 4.45199C99.4718 7.13999 100.69 10.864 100.69 15.624C100.69 19.88 99.3458 23.548 96.6578 26.628C94.0258 29.68 90.9178 31.206 87.3338 31.206C83.6658 31.206 80.5718 29.876 78.0518 27.216C75.5598 24.5 74.3138 20.748 74.3138 15.96ZM94.8938 15.918C94.8938 12.054 94.1938 8.96 92.7938 6.636C91.3938 4.312 89.5178 3.15 87.1658 3.15C85.2058 3.15 83.5258 4.312 82.1258 6.636C80.7818 8.932 80.1098 11.942 80.1098 15.666C80.1098 19.586 80.7958 22.666 82.1678 24.906C83.5678 27.146 85.4438 28.266 87.7958 28.266C89.7558 28.266 91.4218 27.118 92.7938 24.822C94.1938 22.498 94.8938 19.53 94.8938 15.918ZM104.402 2.89799L104.024 2.47799L104.234 1.13399H113.18C116.456 1.13399 119.088 1.62399 121.076 2.604C123.54 3.69599 124.772 5.86599 124.772 9.11399C124.772 11.634 123.638 13.986 121.37 16.17C119.158 18.354 116.162 19.53 112.382 19.698L112.088 18.606C114.02 18.27 115.644 17.262 116.96 15.582C118.248 13.93 118.892 11.942 118.892 9.618C118.892 7.658 118.332 6.146 117.212 5.082C116.12 4.01799 114.706 3.48599 112.97 3.48599H110.702L110.618 21.966C110.618 23.674 110.744 25.158 110.996 26.418C111.276 27.678 111.57 28.462 111.878 28.77L112.298 29.19L112.088 30.534H104.402V30.282C105.13 29.05 105.494 26.278 105.494 21.966V9.702C105.494 7.994 105.368 6.50999 105.116 5.24999C104.892 3.99 104.654 3.206 104.402 2.89799ZM139.224 2.89799L138.846 2.47799L139.056 1.13399H148.002C151.278 1.13399 153.91 1.62399 155.898 2.604C158.362 3.69599 159.594 5.86599 159.594 9.11399C159.594 11.634 158.46 13.986 156.192 16.17C153.98 18.354 150.984 19.53 147.204 19.698L146.91 18.606C148.842 18.27 150.466 17.262 151.782 15.582C153.07 13.93 153.714 11.942 153.714 9.618C153.714 7.658 153.154 6.146 152.034 5.082C150.942 4.01799 149.528 3.48599 147.792 3.48599H145.524L145.44 21.966C145.44 23.674 145.566 25.158 145.818 26.418C146.098 27.678 146.392 28.462 146.7 28.77L147.12 29.19L146.91 30.534H139.224V30.282C139.952 29.05 140.316 26.278 140.316 21.966V9.702C140.316 7.994 140.19 6.50999 139.938 5.24999C139.714 3.99 139.476 3.206 139.224 2.89799ZM161.718 15.96C161.718 11.788 163.02 8.148 165.624 5.03999C168.284 1.93199 171.434 0.377994 175.074 0.377994C178.882 0.377994 182.004 1.73599 184.44 4.45199C186.876 7.13999 188.094 10.864 188.094 15.624C188.094 19.88 186.75 23.548 184.062 26.628C181.43 29.68 178.322 31.206 174.738 31.206C171.07 31.206 167.976 29.876 165.456 27.216C162.964 24.5 161.718 20.748 161.718 15.96ZM182.298 15.918C182.298 12.054 181.598 8.96 180.198 6.636C178.798 4.312 176.922 3.15 174.57 3.15C172.61 3.15 170.93 4.312 169.53 6.636C168.186 8.932 167.514 11.942 167.514 15.666C167.514 19.586 168.2 22.666 169.572 24.906C170.972 27.146 172.848 28.266 175.2 28.266C177.16 28.266 178.826 27.118 180.198 24.822C181.598 22.498 182.298 19.53 182.298 15.918ZM221.063 30.534H213.503V30.282C213.979 28.966 214.105 26.208 213.881 22.008L213.251 14.868L213.083 12.684H212.999L205.523 28.14H204.725L198.551 13.104H198.467L195.191 23.73C194.911 24.598 194.771 25.396 194.771 26.124C194.771 26.852 194.827 27.384 194.939 27.72C195.079 28.056 195.247 28.392 195.443 28.728C195.667 29.036 195.779 29.204 195.779 29.232L195.569 30.534H188.303V30.282C188.555 30.03 189.003 29.344 189.647 28.224C190.319 26.992 190.851 25.844 191.243 24.78L196.829 9.24L195.947 7.056C194.967 4.732 193.959 3.192 192.923 2.436L193.175 1.13399H199.475L205.481 16.212L206.615 18.984H206.783L216.107 0.0419961H217.115L218.963 22.008C219.271 25.62 219.985 27.986 221.105 29.106L221.273 29.232L221.063 30.534ZM240.368 25.998L239.528 22.47H230.582L229.91 24.15C229.07 26.222 228.944 27.846 229.532 29.022L229.658 29.232L229.448 30.534H222.182V30.282C222.966 29.498 223.652 28.56 224.24 27.468L238.016 -5.84126e-06H238.898L244.988 22.008C245.968 25.48 247.13 27.888 248.474 29.232L248.264 30.534H239.822V30.282C240.522 29.078 240.704 27.65 240.368 25.998ZM237.05 12.054L236.336 9.072H236.21L231.8 19.614L238.772 19.362L237.05 12.054ZM251.156 2.89799L250.778 2.47799L250.988 1.13399H258.464V1.386C257.764 2.422 257.414 5.194 257.414 9.702V13.65L268.502 13.062V9.702C268.502 5.866 268.068 3.514 267.2 2.646L267.032 2.47799L267.242 1.13399H274.676V1.386C274.004 2.45 273.668 5.222 273.668 9.702L273.626 21.966C273.626 23.674 273.752 25.158 274.004 26.418C274.284 27.678 274.578 28.462 274.886 28.77L275.306 29.19L275.096 30.534H267.41V30.282C268.138 29.05 268.502 26.278 268.502 21.966V16.548H257.414V21.966C257.414 23.478 257.512 24.794 257.708 25.914C257.904 27.006 258.1 27.762 258.296 28.182C258.492 28.602 258.688 28.882 258.884 29.022L259.052 29.19L258.842 30.534H251.156V30.282C251.912 29.05 252.29 26.278 252.29 21.966V9.702C252.29 7.994 252.164 6.50999 251.912 5.24999C251.688 3.99 251.436 3.206 251.156 2.89799ZM294.754 25.998L293.914 22.47H284.968L284.296 24.15C283.456 26.222 283.33 27.846 283.918 29.022L284.044 29.232L283.834 30.534H276.568V30.282C277.352 29.498 278.038 28.56 278.626 27.468L292.402 -5.84126e-06H293.284L299.374 22.008C300.354 25.48 301.516 27.888 302.86 29.232L302.65 30.534H294.208V30.282C294.908 29.078 295.09 27.65 294.754 25.998ZM291.436 12.054L290.722 9.072H290.596L286.186 19.614L293.158 19.362L291.436 12.054ZM17.3853 43.182L16.8633 47.474H9.84531C9.84531 42.4087 11.856 36.8793 15.8773 30.886L18.0233 32.22C16.2833 34.9653 15.336 37.3433 15.1813 39.354C15.0653 41.3647 15.8 42.6407 17.3853 43.182ZM8.39531 43.182L7.87331 47.474H0.855313C0.855313 42.4087 2.86598 36.8793 6.88731 30.886L9.03331 32.22C7.29331 34.9653 6.34598 37.3433 6.19131 39.354C6.07531 41.326 6.80998 42.602 8.39531 43.182ZM31.7657 51.708V62.38V67.078H31.8817L53.2837 37.962L55.1397 38.542C54.173 41.0553 53.6897 45.4247 53.6897 51.65V68.76C53.6897 73.9413 54.3664 77.2087 55.7197 78.562L55.9517 78.736L55.6617 80.534H45.1057V80.186C46.111 78.4847 46.6137 74.676 46.6137 68.76V58.204V54.898H46.4977L25.1537 81.81L23.2397 81.23C24.2064 78.7167 24.6897 74.3473 24.6897 68.122V51.708C24.6897 49.3493 24.4964 47.3 24.1097 45.56C23.7617 43.82 23.375 42.7373 22.9497 42.312L22.3697 41.732L22.6597 39.934H33.2737V40.282C32.2684 41.9833 31.7657 45.792 31.7657 51.708ZM86.0492 64.7L91.0372 65.86C90.7665 67.6387 90.2638 69.398 89.5292 71.138C88.7945 72.8393 87.8278 74.4633 86.6292 76.01C85.4692 77.5567 83.9998 78.8133 82.2212 79.78C80.4425 80.708 78.4898 81.172 76.3632 81.172C71.3752 81.172 67.4892 79.5093 64.7052 76.184C61.9212 72.8587 60.4712 68.122 60.3552 61.974C60.2778 56.2513 61.8052 51.1473 64.9372 46.662C66.4838 44.4193 68.6105 42.66 71.3172 41.384C74.0238 40.0693 77.0398 39.412 80.3652 39.412L88.5432 39.934L85.7592 52.114L83.9612 51.824C83.9612 50.896 83.8838 49.8907 83.7292 48.808C83.2652 45.1733 81.4865 43.2787 78.3932 43.124C75.4545 43.124 73.0378 44.8253 71.1432 48.228C69.2872 51.6307 68.3592 55.9033 68.3592 61.046C68.3592 65.7247 69.2098 69.4367 70.9112 72.182C72.6125 74.8887 74.8745 76.242 77.6972 76.242C80.3652 76.242 82.4532 74.966 83.9612 72.414C85.5078 69.862 86.2038 67.2907 86.0492 64.7ZM118.028 43.298L103.354 44.052V68.702C103.354 71.0607 103.528 73.11 103.876 74.85C104.263 76.59 104.669 77.6727 105.094 78.098L105.674 78.678L105.326 80.534H94.712V80.186C95.756 78.4847 96.278 74.6567 96.278 68.702V51.766C96.278 49.4073 96.104 47.358 95.756 45.618C95.4467 43.878 95.0987 42.7953 94.712 42.37L94.19 41.79L94.48 39.934H126.554V40.282C125.665 41.7127 125.181 45.5407 125.104 51.766L125.046 68.702C125.046 71.0607 125.22 73.11 125.568 74.85C125.955 76.59 126.361 77.6727 126.786 78.098L127.366 78.678L127.076 80.534H116.462V80.186C117.467 78.4847 117.97 74.6567 117.97 68.702L118.028 43.298ZM131.722 60.408C131.722 54.6467 133.52 49.62 137.116 45.328C140.79 41.036 145.14 38.89 150.166 38.89C155.425 38.89 159.736 40.7653 163.1 44.516C166.464 48.228 168.146 53.3707 168.146 59.944C168.146 65.8213 166.29 70.8867 162.578 75.14C158.944 79.3547 154.652 81.462 149.702 81.462C144.637 81.462 140.364 79.6253 136.884 75.952C133.443 72.2013 131.722 67.02 131.722 60.408ZM160.142 60.35C160.142 55.014 159.176 50.7413 157.242 47.532C155.309 44.3227 152.718 42.718 149.47 42.718C146.764 42.718 144.444 44.3227 142.51 47.532C140.654 50.7027 139.726 54.8593 139.726 60.002C139.726 65.4153 140.674 69.6687 142.568 72.762C144.502 75.8553 147.092 77.402 150.34 77.402C153.047 77.402 155.348 75.8167 157.242 72.646C159.176 69.4367 160.142 65.338 160.142 60.35ZM192.819 57.566V57.682C196.144 57.682 198.735 58.4747 200.591 60.06C202.485 61.6453 203.433 63.8493 203.433 66.672C203.433 70.384 201.751 73.632 198.387 76.416C195.061 79.1613 190.673 80.534 185.221 80.534H173.273V80.186C174.278 78.4847 174.781 74.6567 174.781 68.702L174.839 51.766C174.839 49.4073 174.665 47.358 174.317 45.618C174.007 43.878 173.659 42.7953 173.273 42.37L172.751 41.79L173.041 39.934H184.293C189.938 39.934 193.959 40.5333 196.357 41.732C198.793 42.892 200.011 44.9027 200.011 47.764C200.011 49.736 199.257 51.6887 197.749 53.622C196.202 55.5553 194.559 56.87 192.819 57.566ZM181.857 76.822H183.423C186.516 76.822 189.261 75.8553 191.659 73.922C194.056 71.95 195.255 69.4753 195.255 66.498C195.255 63.946 194.443 62.1287 192.819 61.046C191.195 59.9247 188.701 59.364 185.337 59.364L185.105 58.204C186.883 57.7013 188.469 56.58 189.861 54.84C191.253 53.0227 191.949 51.1667 191.949 49.272C191.949 46.836 191.233 45.2507 189.803 44.516C188.411 43.704 185.781 43.298 181.915 43.298L181.857 76.822ZM235.944 72.936L232.928 80.534H208.22V80.186C209.264 78.4847 209.786 74.676 209.786 68.76V51.65C209.786 50.2193 209.728 48.9433 209.612 47.822C209.534 46.7007 209.38 45.792 209.148 45.096C208.954 44.4 208.78 43.8587 208.626 43.472C208.471 43.0853 208.278 42.718 208.046 42.37C207.852 41.9833 207.736 41.7513 207.698 41.674L207.988 39.876H217.616C224.382 39.876 228.945 39.702 231.304 39.354L232.464 39.18L233.45 40.166L230.782 46.256H230.376C229.796 45.908 229.254 45.6373 228.752 45.444C227.94 45.096 226.412 44.7093 224.17 44.284C221.927 43.7813 219.491 43.588 216.862 43.704V57.566C219.568 57.3727 221.83 57.102 223.648 56.754C225.813 56.3673 227.321 56.0193 228.172 55.71L229.564 55.246L230.608 56.174L228.404 61.452H216.862V76.59C220.535 76.5513 223.938 76.126 227.07 75.314C229.931 74.5793 231.922 73.8447 233.044 73.11L234.552 72.008L235.944 72.936ZM257.896 80.534H235.044V80.244L255.576 38.368H256.794C260.583 54.1827 263.077 64.294 264.276 68.702C265.127 71.7953 265.977 74.154 266.828 75.778L269.96 75.662L270.308 76.126L265.842 87.61H263.58C263.773 87.146 263.851 86.334 263.812 85.174C263.812 82.0807 261.84 80.534 257.896 80.534ZM253.14 51.65L242.468 76.648L258.302 76.126L255.228 61.104L253.314 51.65H253.14ZM301.194 64.758C301.194 68.238 299.956 71.5827 297.482 74.792C296.206 76.4547 294.408 77.808 292.088 78.852C289.806 79.896 287.235 80.4567 284.374 80.534H273.47V80.186C274.475 78.4847 274.978 74.676 274.978 68.76L275.036 51.766C275.036 49.446 274.862 47.4353 274.514 45.734C274.204 43.994 273.856 42.8727 273.47 42.37L272.948 41.79L273.238 39.934H283.562V40.282C282.595 41.7127 282.112 45.5407 282.112 51.766L282.054 77.286H283.156C285.94 77.286 288.279 76.0487 290.174 73.574C292.107 71.0607 293.074 68.18 293.074 64.932C293.074 61.9933 292.378 59.944 290.986 58.784C289.632 57.624 287.641 57.1213 285.012 57.276L284.78 55.884C286.868 54.9947 288.898 54.5307 290.87 54.492C292.88 54.4147 294.64 54.7433 296.148 55.478C297.694 56.2127 298.912 57.392 299.802 59.016C300.73 60.6013 301.194 62.5153 301.194 64.758ZM57.3889 131.612L57.0789 133.534H10.7649V133.162C11.8395 131.343 12.3769 127.272 12.3769 120.948L12.4389 102.72C12.4389 100.199 12.2529 98.0287 11.8809 96.21C11.5502 94.35 11.1782 93.1927 10.7649 92.738L10.2069 92.056L10.5169 90.134H21.5529V90.506C20.5195 92.0353 20.0029 96.1067 20.0029 102.72L19.9409 129.38L29.6749 129.07L29.7369 102.72C29.7369 100.199 29.5509 98.0287 29.1789 96.21C28.8482 94.35 28.4762 93.1927 28.0629 92.738L27.5049 92.056L27.8149 90.134H38.1689V90.506L38.0449 90.816C37.0942 93.172 36.6189 97.14 36.6189 102.72V128.884L47.3449 128.512L47.4069 102.72C47.4069 100.199 47.2209 98.0287 46.8489 96.21C46.5182 94.35 46.1462 93.1927 45.7329 92.738L45.1749 92.056L45.4849 90.134H56.4589V90.506C55.4669 92.0767 54.9709 96.148 54.9709 102.72L54.9089 120.948C54.9089 123.469 55.0949 125.66 55.4669 127.52C55.8802 129.38 56.3142 130.537 56.7689 130.992L57.3889 131.612ZM73.6532 102.72V114.128V119.15H73.7772L96.6552 88.026L98.6392 88.646C97.6059 91.3327 97.0892 96.0033 97.0892 102.658V120.948C97.0892 126.487 97.8126 129.979 99.2592 131.426L99.5072 131.612L99.1972 133.534H87.9132V133.162C88.9879 131.343 89.5252 127.272 89.5252 120.948V109.664V106.13H89.4012L66.5852 134.898L64.5392 134.278C65.5726 131.591 66.0892 126.921 66.0892 120.266V102.72C66.0892 100.199 65.8826 98.008 65.4692 96.148C65.0972 94.288 64.6839 93.1307 64.2292 92.676L63.6092 92.056L63.9192 90.134H75.2652V90.506C74.1906 92.3247 73.6532 96.396 73.6532 102.72ZM151.01 133.534H139.85V133.162C140.553 131.219 140.739 127.148 140.408 120.948L139.478 110.408L139.23 107.184H139.106L128.07 130H126.892L117.778 107.804H117.654L112.818 123.49C112.405 124.771 112.198 125.949 112.198 127.024C112.198 128.099 112.281 128.884 112.446 129.38C112.653 129.876 112.901 130.372 113.19 130.868C113.521 131.323 113.686 131.571 113.686 131.612L113.376 133.534H102.65V133.162C103.022 132.79 103.683 131.777 104.634 130.124C105.626 128.305 106.411 126.611 106.99 125.04L115.236 102.1L113.934 98.876C112.487 95.4453 110.999 93.172 109.47 92.056L109.842 90.134H119.142L128.008 112.392L129.682 116.484H129.93L143.694 88.522H145.182L147.91 120.948C148.365 126.28 149.419 129.773 151.072 131.426L151.32 131.612L151.01 133.534ZM165.442 102.72V114.128V119.15H165.566L188.444 88.026L190.428 88.646C189.395 91.3327 188.878 96.0033 188.878 102.658V120.948C188.878 126.487 189.602 129.979 191.048 131.426L191.296 131.612L190.986 133.534H179.702V133.162C180.777 131.343 181.314 127.272 181.314 120.948V109.664V106.13H181.19L158.374 134.898L156.328 134.278C157.362 131.591 157.878 126.921 157.878 120.266V102.72C157.878 100.199 157.672 98.008 157.258 96.148C156.886 94.288 156.473 93.1307 156.018 92.676L155.398 92.056L155.708 90.134H167.054V90.506C165.98 92.3247 165.442 96.396 165.442 102.72ZM220.013 126.838L218.773 121.63H205.567L204.575 124.11C203.335 127.169 203.149 129.566 204.017 131.302L204.203 131.612L203.893 133.534H193.167V133.162C194.325 132.005 195.337 130.62 196.205 129.008L216.541 88.46H217.843L226.833 120.948C228.28 126.073 229.995 129.628 231.979 131.612L231.669 133.534H219.207V133.162C220.241 131.385 220.509 129.277 220.013 126.838ZM215.115 106.254L214.061 101.852H213.875L207.365 117.414L217.657 117.042L215.115 106.254ZM235.939 92.738L235.381 92.118L235.691 90.134H246.727V90.506C245.693 92.0353 245.177 96.1273 245.177 102.782V108.61L261.545 107.742V102.782C261.545 97.1193 260.904 93.6473 259.623 92.366L259.375 92.118L259.685 90.134H270.659V90.506C269.667 92.0767 269.171 96.1687 269.171 102.782L269.109 120.886C269.109 123.407 269.295 125.598 269.667 127.458C270.08 129.318 270.514 130.475 270.969 130.93L271.589 131.55L271.279 133.534H259.933V133.162C261.007 131.343 261.545 127.251 261.545 120.886V112.888H245.177V120.886C245.177 123.118 245.321 125.061 245.611 126.714C245.9 128.326 246.189 129.442 246.479 130.062C246.768 130.682 247.057 131.095 247.347 131.302L247.595 131.55L247.285 133.534H235.939V133.162C237.055 131.343 237.613 127.251 237.613 120.886V102.782C237.613 100.261 237.427 98.07 237.055 96.21C236.724 94.35 236.352 93.1927 235.939 92.738ZM276.942 94.66L277.5 90.072H285.002C285.002 95.4867 282.852 101.397 278.554 107.804L276.26 106.378C278.12 103.443 279.112 100.901 279.236 98.752C279.401 96.6027 278.636 95.2387 276.942 94.66ZM286.552 94.66L287.11 90.072H294.612C294.612 95.4867 292.462 101.397 288.164 107.804L285.87 106.378C287.73 103.443 288.722 100.922 288.846 98.814C289.011 96.6647 288.246 95.28 286.552 94.66Z" fill="white"/>
</g>
</svg>
