<svg width="537" height="44" viewBox="0 0 537 44" fill="none" xmlns="http://www.w3.org/2000/svg">
<path d="M25.8099 26.738L30.7979 27.898C30.5272 29.6767 30.0246 31.436 29.2899 33.176C28.5552 34.8774 27.5886 36.5014 26.3899 38.048C25.2299 39.5947 23.7606 40.8514 21.9819 41.818C20.2032 42.746 18.2506 43.21 16.1239 43.21C11.1359 43.21 7.2499 41.5474 4.4659 38.222C1.6819 34.8967 0.231899 30.16 0.115899 24.012C0.0385653 18.2894 1.5659 13.1854 4.6979 8.70002C6.24457 6.45735 8.37123 4.69802 11.0779 3.42202C13.7846 2.10735 16.8006 1.45002 20.1259 1.45002L28.3039 1.97202L25.5199 14.152L23.7219 13.862C23.7219 12.934 23.6446 11.9287 23.4899 10.846C23.0259 7.21135 21.2472 5.31669 18.1539 5.16202C15.2152 5.16202 12.7986 6.86335 10.9039 10.266C9.0479 13.6687 8.1199 17.9414 8.1199 23.084C8.1199 27.7627 8.97057 31.4747 10.6719 34.22C12.3732 36.9267 14.6352 38.28 17.4579 38.28C20.1259 38.28 22.2139 37.004 23.7219 34.452C25.2686 31.9 25.9646 29.3287 25.8099 26.738ZM35.9807 30.74L36.0387 13.804C36.0387 11.4454 35.8647 9.39602 35.5167 7.65602C35.2074 5.91602 34.8594 4.83335 34.4727 4.40802L33.9507 3.82802L34.2407 1.97202H44.5647V2.32002C43.5981 3.75069 43.1147 7.57869 43.1147 13.804L43.0567 30.74C43.0567 33.0987 43.2307 35.148 43.5787 36.888C43.9654 38.628 44.3714 39.7107 44.7967 40.136L45.3767 40.716L45.0867 42.572H34.4727V42.224C35.4781 40.5227 35.9807 36.6947 35.9807 30.74ZM66.6627 40.716L66.3727 42.572H56.9187C55.1401 36.1147 53.1294 31.1074 50.8867 27.55C48.6827 23.9927 46.5561 22.2334 44.5067 22.272L44.2167 21.112C52.4141 11.484 55.5654 5.72269 53.6707 3.82802L53.9607 1.97202H64.4007V2.32002C63.7434 3.20935 61.2881 6.12869 57.0347 11.078C52.9361 15.7954 50.4807 18.6954 49.6687 19.778H53.8447C55.7007 21.866 57.4407 24.418 59.0647 27.434C59.7221 28.6327 60.6501 30.4307 61.8487 32.828C63.0861 35.1867 64.0527 36.9654 64.7487 38.164C65.4447 39.324 66.0827 40.1747 66.6627 40.716ZM67.2917 22.446C67.2917 16.6847 69.0897 11.658 72.6857 7.36602C76.359 3.07402 80.709 0.928018 85.7357 0.928018C90.9943 0.928018 95.3057 2.80335 98.6697 6.55402C102.034 10.266 103.716 15.4087 103.716 21.982C103.716 27.8594 101.86 32.9247 98.1477 37.178C94.513 41.3927 90.221 43.5 85.2717 43.5C80.2063 43.5 75.9337 41.6634 72.4537 37.99C69.0123 34.2394 67.2917 29.058 67.2917 22.446ZM95.7117 22.388C95.7117 17.052 94.745 12.7794 92.8117 9.57002C90.8783 6.36069 88.2877 4.75602 85.0397 4.75602C82.333 4.75602 80.013 6.36069 78.0797 9.57002C76.2237 12.7407 75.2957 16.8974 75.2957 22.04C75.2957 27.4534 76.243 31.7067 78.1377 34.8C80.071 37.8934 82.6617 39.44 85.9097 39.44C88.6163 39.44 90.917 37.8547 92.8117 34.684C94.745 31.4747 95.7117 27.376 95.7117 22.388ZM108.842 4.40802L108.32 3.82802L108.61 1.97202H120.964C125.488 1.97202 129.123 2.64869 131.868 4.00202C135.271 5.51002 136.972 8.50669 136.972 12.992C136.972 16.472 135.406 19.72 132.274 22.736C129.219 25.752 125.082 27.376 119.862 27.608L119.456 26.1C122.124 25.636 124.367 24.244 126.184 21.924C127.963 19.6427 128.852 16.8974 128.852 13.688C128.852 10.9814 128.079 8.89335 126.532 7.42402C125.024 5.95469 123.071 5.22002 120.674 5.22002H117.542L117.426 30.74C117.426 33.0987 117.6 35.148 117.948 36.888C118.335 38.628 118.741 39.7107 119.166 40.136L119.746 40.716L119.456 42.572H108.842V42.224C109.847 40.5227 110.35 36.6947 110.35 30.74V13.804C110.35 11.4454 110.176 9.39602 109.828 7.65602C109.519 5.91602 109.19 4.83335 108.842 4.40802ZM139.905 22.446C139.905 16.6847 141.703 11.658 145.299 7.36602C148.972 3.07402 153.322 0.928018 158.349 0.928018C163.608 0.928018 167.919 2.80335 171.283 6.55402C174.647 10.266 176.329 15.4087 176.329 21.982C176.329 27.8594 174.473 32.9247 170.761 37.178C167.126 41.3927 162.834 43.5 157.885 43.5C152.82 43.5 148.547 41.6634 145.067 37.99C141.626 34.2394 139.905 29.058 139.905 22.446ZM168.325 22.388C168.325 17.052 167.358 12.7794 165.425 9.57002C163.492 6.36069 160.901 4.75602 157.653 4.75602C154.946 4.75602 152.626 6.36069 150.693 9.57002C148.837 12.7407 147.909 16.8974 147.909 22.04C147.909 27.4534 148.856 31.7067 150.751 34.8C152.684 37.8934 155.275 39.44 158.523 39.44C161.23 39.44 163.53 37.8547 165.425 34.684C167.358 31.4747 168.325 27.376 168.325 22.388ZM196.861 4.40802L196.339 3.82802L196.629 1.97202H206.953V2.32002C205.987 3.75069 205.503 7.57869 205.503 13.804V19.256L220.815 18.444V13.804C220.815 8.50669 220.216 5.25869 219.017 4.06002L218.785 3.82802L219.075 1.97202H229.341V2.32002C228.413 3.78935 227.949 7.61735 227.949 13.804L227.891 30.74C227.891 33.0987 228.065 35.148 228.413 36.888C228.8 38.628 229.206 39.7107 229.631 40.136L230.211 40.716L229.921 42.572H219.307V42.224C220.313 40.5227 220.815 36.6947 220.815 30.74V23.258H205.503V30.74C205.503 32.828 205.639 34.6454 205.909 36.192C206.18 37.7 206.451 38.744 206.721 39.324C206.992 39.904 207.263 40.2907 207.533 40.484L207.765 40.716L207.475 42.572H196.861V42.224C197.905 40.5227 198.427 36.6947 198.427 30.74V13.804C198.427 11.4454 198.253 9.39602 197.905 7.65602C197.596 5.91602 197.248 4.83335 196.861 4.40802ZM257.069 36.308L255.909 31.436H243.555L242.627 33.756C241.467 36.6174 241.293 38.86 242.105 40.484L242.279 40.774L241.989 42.572H231.955V42.224C233.038 41.1414 233.985 39.846 234.797 38.338L253.821 0.406018H255.039L263.449 30.798C264.802 35.5927 266.407 38.918 268.263 40.774L267.973 42.572H256.315V42.224C257.282 40.5614 257.533 38.5894 257.069 36.308ZM252.487 17.052L251.501 12.934H251.327L245.237 27.492L254.865 27.144L252.487 17.052ZM306.883 36.308L301.895 12.934H301.721L293.659 33.814C292.499 36.6367 292.306 38.86 293.079 40.484L293.253 40.774L292.963 42.572H283.045V42.224C284.089 41.18 284.998 39.8847 285.771 38.338L304.215 0.406018H305.433L313.263 30.798C314.5 35.4767 316.105 38.802 318.077 40.774L317.787 42.572H306.129V42.224C307.096 40.5614 307.347 38.5894 306.883 36.308ZM330.685 13.746V24.418V29.116H330.801L352.203 1.9908e-05L354.059 0.580019C353.092 3.09335 352.609 7.46269 352.609 13.688V30.798C352.609 35.9794 353.285 39.2467 354.639 40.6L354.871 40.774L354.581 42.572H344.025V42.224C345.03 40.5227 345.533 36.714 345.533 30.798V20.242V16.936H345.417L324.073 43.848L322.159 43.268C323.125 40.7547 323.609 36.3854 323.609 30.16V13.746C323.609 11.3874 323.415 9.33802 323.029 7.59802C322.681 5.85802 322.294 4.77535 321.869 4.35002L321.289 3.77002L321.579 1.97202H332.193V2.32002C331.187 4.02135 330.685 7.83002 330.685 13.746ZM356.331 9.86002L360.797 1.97202H378.371C383.514 1.89469 386.955 1.74002 388.695 1.50802L389.565 1.33402L390.551 2.26202L387.477 8.81602H387.071C384.635 7.30802 381.232 6.43802 376.863 6.20602V30.74C376.863 33.0987 377.037 35.148 377.385 36.888C377.772 38.628 378.178 39.7107 378.603 40.136L379.183 40.716L378.893 42.572H368.279V42.224C369.323 40.5227 369.845 36.6947 369.845 30.74V6.55402C367.254 6.78602 364.915 7.25002 362.827 7.94602C360.778 8.64202 359.405 9.31869 358.709 9.97602L357.781 10.788L356.331 9.86002ZM393.688 4.40802L393.166 3.82802L393.456 1.97202H403.78V2.32002C402.813 3.75069 402.33 7.57869 402.33 13.804V19.256L417.642 18.444V13.804C417.642 8.50669 417.042 5.25869 415.844 4.06002L415.612 3.82802L415.902 1.97202H426.168V2.32002C425.24 3.78935 424.776 7.61735 424.776 13.804L424.718 30.74C424.718 33.0987 424.892 35.148 425.24 36.888C425.626 38.628 426.032 39.7107 426.458 40.136L427.038 40.716L426.748 42.572H416.134V42.224C417.139 40.5227 417.642 36.6947 417.642 30.74V23.258H402.33V30.74C402.33 32.828 402.465 34.6454 402.736 36.192C403.006 37.7 403.277 38.744 403.548 39.324C403.818 39.904 404.089 40.2907 404.36 40.484L404.592 40.716L404.302 42.572H393.688V42.224C394.732 40.5227 395.254 36.6947 395.254 30.74V13.804C395.254 11.4454 395.08 9.39602 394.732 7.65602C394.422 5.91602 394.074 4.83335 393.688 4.40802ZM461.117 34.974L458.101 42.572H433.393V42.224C434.437 40.5227 434.959 36.714 434.959 30.798V13.688C434.959 12.2574 434.901 10.9814 434.785 9.86002C434.707 8.73869 434.553 7.83002 434.321 7.13402C434.127 6.43802 433.953 5.89669 433.799 5.51002C433.644 5.12335 433.451 4.75602 433.219 4.40802C433.025 4.02135 432.909 3.78935 432.871 3.71202L433.161 1.91402H442.789C449.555 1.91402 454.118 1.74002 456.477 1.39202L457.637 1.21802L458.623 2.20402L455.955 8.29402H455.549C454.969 7.94602 454.427 7.67535 453.925 7.48202C453.113 7.13402 451.585 6.74735 449.343 6.32202C447.1 5.81935 444.664 5.62602 442.035 5.74202V19.604C444.741 19.4107 447.003 19.14 448.821 18.792C450.986 18.4054 452.494 18.0574 453.345 17.748L454.737 17.284L455.781 18.212L453.577 23.49H442.035V38.628C445.708 38.5894 449.111 38.164 452.243 37.352C455.104 36.6174 457.095 35.8827 458.217 35.148L459.725 34.046L461.117 34.974ZM459.36 9.86002L463.826 1.97202H481.4C486.543 1.89469 489.984 1.74002 491.724 1.50802L492.594 1.33402L493.58 2.26202L490.506 8.81602H490.1C487.664 7.30802 484.262 6.43802 479.892 6.20602V30.74C479.892 33.0987 480.066 35.148 480.414 36.888C480.801 38.628 481.207 39.7107 481.632 40.136L482.212 40.716L481.922 42.572H471.308V42.224C472.352 40.5227 472.874 36.6947 472.874 30.74V6.55402C470.284 6.78602 467.944 7.25002 465.856 7.94602C463.807 8.64202 462.434 9.31869 461.738 9.97602L460.81 10.788L459.36 9.86002ZM524.441 34.974L521.425 42.572H496.717V42.224C497.761 40.5227 498.283 36.714 498.283 30.798V13.688C498.283 12.2574 498.225 10.9814 498.109 9.86002C498.032 8.73869 497.877 7.83002 497.645 7.13402C497.452 6.43802 497.278 5.89669 497.123 5.51002C496.968 5.12335 496.775 4.75602 496.543 4.40802C496.35 4.02135 496.234 3.78935 496.195 3.71202L496.485 1.91402H506.113C512.88 1.91402 517.442 1.74002 519.801 1.39202L520.961 1.21802L521.947 2.20402L519.279 8.29402H518.873C518.293 7.94602 517.752 7.67535 517.249 7.48202C516.437 7.13402 514.91 6.74735 512.667 6.32202C510.424 5.81935 507.988 5.62602 505.359 5.74202V19.604C508.066 19.4107 510.328 19.14 512.145 18.792C514.31 18.4054 515.818 18.0574 516.669 17.748L518.061 17.284L519.105 18.212L516.901 23.49H505.359V38.628C509.032 38.5894 512.435 38.164 515.567 37.352C518.428 36.6174 520.42 35.8827 521.541 35.148L523.049 34.046L524.441 34.974ZM528.4 2.08802L528.748 0.23202L536.23 1.97202L533.156 30.74H529.56C529.908 21.576 529.522 12.0254 528.4 2.08802ZM527.066 42.572L528.226 35.032H535.418L534.838 42.572H527.066Z" fill="white"/>
<a href="https://litnet.com/ru/kseniya-w-manichevskaya-u12708312">
<rect fill="black" fill-opacity="0" x="284.959" y="0.0310001" width="243.426" height="49.938"/>
</a>
</svg>
