<svg width="476" height="116" viewBox="0 0 476 116" fill="none" xmlns="http://www.w3.org/2000/svg">
<path d="M23.548 1.97202H34.104V2.32002C32.9053 4.09869 30.74 7.94602 27.608 13.862L26.216 16.53L24.708 19.43L23.2 22.214L21.692 25.172C20.3 28.0334 19.488 29.812 19.256 30.508C18.1346 33.5627 17.574 35.496 17.574 36.308C17.574 37.2747 17.7286 38.1447 18.038 38.918C18.3473 39.6914 18.6953 40.2134 19.082 40.484L19.546 40.774L19.314 42.572H7.88796V42.224C10.7106 38.5507 13.1466 34.4714 15.196 29.986H11.774C8.48729 20.6674 5.99329 14.094 4.29196 10.266C2.93863 7.25002 1.70129 5.25869 0.579961 4.29202L-3.9042e-05 3.77002L0.231961 1.97202H10.034V2.26202C10.3433 3.65402 10.846 5.49069 11.542 7.77202C12.702 11.484 13.804 14.6934 14.848 17.4L17.748 24.824H17.864L21.75 17.284C23.7606 13.4174 24.766 10.1114 24.766 7.36602C24.766 6.59269 24.65 5.89669 24.418 5.27802C24.186 4.62069 23.9346 4.21469 23.664 4.06002L23.316 3.77002L23.548 1.97202ZM64.8 42.572H54.186V42.224C55.1913 40.5227 55.694 36.6947 55.694 30.74L55.752 13.804C55.752 11.4454 55.578 9.39602 55.23 7.65602C54.9207 5.91602 54.5727 4.83335 54.186 4.40802L53.664 3.82802L53.954 1.97202H64.278V2.32002C63.3113 3.75069 62.828 7.57869 62.828 13.804L62.77 30.74C62.77 33.0987 62.944 35.148 63.292 36.888C63.6787 38.628 64.0847 39.7107 64.51 40.136L65.09 40.716L64.8 42.572ZM84.346 42.572H75.182C72.63 34.6067 70.6967 29.3287 69.382 26.738C67.7967 23.838 66.076 22.3494 64.22 22.272L63.93 21.112C70.89 12.9534 74.0413 7.48202 73.384 4.69802C73.268 4.27269 73.0747 3.98269 72.804 3.82802L73.094 1.97202H83.534V2.32002L69.382 19.778H72.398C74.254 21.866 75.936 24.418 77.444 27.434C78.024 28.5554 78.72 29.986 79.532 31.726C80.3827 33.4274 81.04 34.7614 81.504 35.728C81.968 36.6947 82.49 37.6614 83.07 38.628C83.65 39.5947 84.172 40.2907 84.636 40.716L84.346 42.572ZM42.586 42.572H32.958V42.166C33.886 41.3154 35.0267 39.5174 36.38 36.772C37.54 34.4134 39.048 31.436 40.904 27.84C42.6053 24.592 44.4033 21.9047 46.298 19.778H49.546C45.2153 13.166 42.064 8.81602 40.092 6.72802C38.4293 5.02669 37.0953 4.06002 36.09 3.82802L36.322 1.97202H46.762L46.82 2.37802C46.704 2.95802 46.7233 3.86669 46.878 5.10402C47.0327 6.10935 47.3613 7.32735 47.864 8.75802C49.14 12.3154 51.46 16.6654 54.824 21.808L54.708 22.04C51.112 22.3107 47.0713 29.1547 42.586 42.572ZM115.937 34.974L112.921 42.572H88.213V42.224C89.257 40.5227 89.779 36.714 89.779 30.798V13.688C89.779 12.2574 89.721 10.9814 89.605 9.86002C89.5276 8.73869 89.373 7.83002 89.141 7.13402C88.9476 6.43802 88.7736 5.89669 88.619 5.51002C88.4643 5.12335 88.271 4.75602 88.039 4.40802C87.8456 4.02135 87.7296 3.78935 87.691 3.71202L87.981 1.91402H97.609C104.376 1.91402 108.938 1.74002 111.297 1.39202L112.457 1.21802L113.443 2.20402L110.775 8.29402H110.369C109.789 7.94602 109.248 7.67535 108.745 7.48202C107.933 7.13402 106.406 6.74735 104.163 6.32202C101.92 5.81935 99.4843 5.62602 96.855 5.74202V19.604C99.5616 19.4107 101.824 19.14 103.641 18.792C105.806 18.4054 107.314 18.0574 108.165 17.748L109.557 17.284L110.601 18.212L108.397 23.49H96.855V38.628C100.528 38.5894 103.931 38.164 107.063 37.352C109.924 36.6174 111.916 35.8827 113.037 35.148L114.545 34.046L115.937 34.974ZM135.904 4.40802L135.382 3.82802L135.672 1.97202H145.996V2.32002C145.03 3.75069 144.546 7.57869 144.546 13.804V19.256L159.858 18.444V13.804C159.858 8.50669 159.259 5.25869 158.06 4.06002L157.828 3.82802L158.118 1.97202H168.384V2.32002C167.456 3.78935 166.992 7.61735 166.992 13.804L166.934 30.74C166.934 33.0987 167.108 35.148 167.456 36.888C167.843 38.628 168.249 39.7107 168.674 40.136L169.254 40.716L168.964 42.572H158.35V42.224C159.356 40.5227 159.858 36.6947 159.858 30.74V23.258H144.546V30.74C144.546 32.828 144.682 34.6454 144.952 36.192C145.223 37.7 145.494 38.744 145.764 39.324C146.035 39.904 146.306 40.2907 146.576 40.484L146.808 40.716L146.518 42.572H135.904V42.224C136.948 40.5227 137.47 36.6947 137.47 30.74V13.804C137.47 11.4454 137.296 9.39602 136.948 7.65602C136.639 5.91602 136.291 4.83335 135.904 4.40802ZM196.112 36.308L194.952 31.436H182.598L181.67 33.756C180.51 36.6174 180.336 38.86 181.148 40.484L181.322 40.774L181.032 42.572H170.998V42.224C172.081 41.1414 173.028 39.846 173.84 38.338L192.864 0.406018H194.082L202.492 30.798C203.845 35.5927 205.45 38.918 207.306 40.774L207.016 42.572H195.358V42.224C196.325 40.5614 196.576 38.5894 196.112 36.308ZM191.53 17.052L190.544 12.934H190.37L184.28 27.492L193.908 27.144L191.53 17.052ZM245.926 36.308L240.938 12.934H240.764L232.702 33.814C231.542 36.6367 231.349 38.86 232.122 40.484L232.296 40.774L232.006 42.572H222.088V42.224C223.132 41.18 224.041 39.8847 224.814 38.338L243.258 0.406018H244.476L252.306 30.798C253.543 35.4767 255.148 38.802 257.12 40.774L256.83 42.572H245.172V42.224C246.139 40.5614 246.39 38.5894 245.926 36.308ZM269.728 13.746V24.418V29.116H269.844L291.246 1.9908e-05L293.102 0.580019C292.135 3.09335 291.652 7.46269 291.652 13.688V30.798C291.652 35.9794 292.328 39.2467 293.682 40.6L293.914 40.774L293.624 42.572H283.068V42.224C284.073 40.5227 284.576 36.714 284.576 30.798V20.242V16.936H284.46L263.116 43.848L261.202 43.268C262.168 40.7547 262.652 36.3854 262.652 30.16V13.746C262.652 11.3874 262.458 9.33802 262.072 7.59802C261.724 5.85802 261.337 4.77535 260.912 4.35002L260.332 3.77002L260.622 1.97202H271.236V2.32002C270.23 4.02135 269.728 7.83002 269.728 13.746ZM295.374 9.86002L299.84 1.97202H317.414C322.557 1.89469 325.998 1.74002 327.738 1.50802L328.608 1.33402L329.594 2.26202L326.52 8.81602H326.114C323.678 7.30802 320.275 6.43802 315.906 6.20602V30.74C315.906 33.0987 316.08 35.148 316.428 36.888C316.815 38.628 317.221 39.7107 317.646 40.136L318.226 40.716L317.936 42.572H307.322V42.224C308.366 40.5227 308.888 36.6947 308.888 30.74V6.55402C306.297 6.78602 303.958 7.25002 301.87 7.94602C299.821 8.64202 298.448 9.31869 297.752 9.97602L296.824 10.788L295.374 9.86002ZM332.731 4.40802L332.209 3.82802L332.499 1.97202H342.823V2.32002C341.856 3.75069 341.373 7.57869 341.373 13.804V19.256L356.685 18.444V13.804C356.685 8.50669 356.085 5.25869 354.887 4.06002L354.655 3.82802L354.945 1.97202H365.211V2.32002C364.283 3.78935 363.819 7.61735 363.819 13.804L363.761 30.74C363.761 33.0987 363.935 35.148 364.283 36.888C364.669 38.628 365.075 39.7107 365.501 40.136L366.081 40.716L365.791 42.572H355.177V42.224C356.182 40.5227 356.685 36.6947 356.685 30.74V23.258H341.373V30.74C341.373 32.828 341.508 34.6454 341.779 36.192C342.049 37.7 342.32 38.744 342.591 39.324C342.861 39.904 343.132 40.2907 343.403 40.484L343.635 40.716L343.345 42.572H332.731V42.224C333.775 40.5227 334.297 36.6947 334.297 30.74V13.804C334.297 11.4454 334.123 9.39602 333.775 7.65602C333.465 5.91602 333.117 4.83335 332.731 4.40802ZM400.16 34.974L397.144 42.572H372.436V42.224C373.48 40.5227 374.002 36.714 374.002 30.798V13.688C374.002 12.2574 373.944 10.9814 373.828 9.86002C373.75 8.73869 373.596 7.83002 373.364 7.13402C373.17 6.43802 372.996 5.89669 372.842 5.51002C372.687 5.12335 372.494 4.75602 372.262 4.40802C372.068 4.02135 371.952 3.78935 371.914 3.71202L372.204 1.91402H381.832C388.598 1.91402 393.161 1.74002 395.52 1.39202L396.68 1.21802L397.666 2.20402L394.998 8.29402H394.592C394.012 7.94602 393.47 7.67535 392.968 7.48202C392.156 7.13402 390.628 6.74735 388.386 6.32202C386.143 5.81935 383.707 5.62602 381.078 5.74202V19.604C383.784 19.4107 386.046 19.14 387.864 18.792C390.029 18.4054 391.537 18.0574 392.388 17.748L393.78 17.284L394.824 18.212L392.62 23.49H381.078V38.628C384.751 38.5894 388.154 38.164 391.286 37.352C394.147 36.6174 396.138 35.8827 397.26 35.148L398.768 34.046L400.16 34.974ZM398.403 9.86002L402.869 1.97202H420.443C425.586 1.89469 429.027 1.74002 430.767 1.50802L431.637 1.33402L432.623 2.26202L429.549 8.81602H429.143C426.707 7.30802 423.305 6.43802 418.935 6.20602V30.74C418.935 33.0987 419.109 35.148 419.457 36.888C419.844 38.628 420.25 39.7107 420.675 40.136L421.255 40.716L420.965 42.572H410.351V42.224C411.395 40.5227 411.917 36.6947 411.917 30.74V6.55402C409.327 6.78602 406.987 7.25002 404.899 7.94602C402.85 8.64202 401.477 9.31869 400.781 9.97602L399.853 10.788L398.403 9.86002ZM463.484 34.974L460.468 42.572H435.76V42.224C436.804 40.5227 437.326 36.714 437.326 30.798V13.688C437.326 12.2574 437.268 10.9814 437.152 9.86002C437.075 8.73869 436.92 7.83002 436.688 7.13402C436.495 6.43802 436.321 5.89669 436.166 5.51002C436.011 5.12335 435.818 4.75602 435.586 4.40802C435.393 4.02135 435.277 3.78935 435.238 3.71202L435.528 1.91402H445.156C451.923 1.91402 456.485 1.74002 458.844 1.39202L460.004 1.21802L460.99 2.20402L458.322 8.29402H457.916C457.336 7.94602 456.795 7.67535 456.292 7.48202C455.48 7.13402 453.953 6.74735 451.71 6.32202C449.467 5.81935 447.031 5.62602 444.402 5.74202V19.604C447.109 19.4107 449.371 19.14 451.188 18.792C453.353 18.4054 454.861 18.0574 455.712 17.748L457.104 17.284L458.148 18.212L455.944 23.49H444.402V38.628C448.075 38.5894 451.478 38.164 454.61 37.352C457.471 36.6174 459.463 35.8827 460.584 35.148L462.092 34.046L463.484 34.974ZM467.443 2.08802L467.791 0.23202L475.273 1.97202L472.199 30.74H468.603C468.951 21.576 468.565 12.0254 467.443 2.08802ZM466.109 42.572L467.269 35.032H474.461L473.881 42.572H466.109ZM2.26996 50.252L1.90996 49.852L2.10996 48.572H9.22996V48.812C8.56329 49.7987 8.22996 52.4387 8.22996 56.732V60.492L18.79 59.932V56.732C18.79 53.0787 18.3766 50.8387 17.55 50.012L17.39 49.852L17.59 48.572H24.67V48.812C24.03 49.8254 23.71 52.4654 23.71 56.732L23.67 68.412C23.67 70.0387 23.79 71.452 24.03 72.652C24.2966 73.852 24.5766 74.5987 24.87 74.892L25.27 75.292L25.07 76.572H17.75V76.332C18.4433 75.1587 18.79 72.5187 18.79 68.412V63.252H8.22996V68.412C8.22996 69.852 8.32329 71.1054 8.50996 72.172C8.69663 73.212 8.88329 73.932 9.06996 74.332C9.25663 74.732 9.44329 74.9987 9.62996 75.132L9.78996 75.292L9.58996 76.572H2.26996V76.332C2.98996 75.1587 3.34996 72.5187 3.34996 68.412V56.732C3.34996 55.1054 3.22996 53.692 2.98996 52.492C2.77663 51.292 2.53663 50.5454 2.26996 50.252ZM28.3021 62.692C28.3021 58.7187 29.5421 55.252 32.0221 52.292C34.5555 49.332 37.5555 47.852 41.0221 47.852C44.6488 47.852 47.6221 49.1454 49.9421 51.732C52.2621 54.292 53.4222 57.8387 53.4222 62.372C53.4222 66.4254 52.1421 69.9187 49.5821 72.852C47.0755 75.7587 44.1155 77.212 40.7021 77.212C37.2088 77.212 34.2621 75.9454 31.8621 73.412C29.4888 70.8254 28.3021 67.252 28.3021 62.692ZM47.9021 62.652C47.9021 58.972 47.2355 56.0254 45.9021 53.812C44.5688 51.5987 42.7821 50.492 40.5421 50.492C38.6755 50.492 37.0755 51.5987 35.7421 53.812C34.4621 55.9987 33.8221 58.8654 33.8221 62.412C33.8221 66.1454 34.4755 69.0787 35.7821 71.212C37.1155 73.3454 38.9021 74.412 41.1421 74.412C43.0088 74.412 44.5955 73.3187 45.9021 71.132C47.2355 68.9187 47.9021 66.092 47.9021 62.652ZM70.4375 60.732V60.812C72.7308 60.812 74.5175 61.3587 75.7975 62.452C77.1041 63.5454 77.7575 65.0654 77.7575 67.012C77.7575 69.572 76.5975 71.812 74.2775 73.732C71.9841 75.6254 68.9575 76.572 65.1975 76.572H56.9575V76.332C57.6508 75.1587 57.9975 72.5187 57.9975 68.412L58.0375 56.732C58.0375 55.1054 57.9175 53.692 57.6775 52.492C57.4641 51.292 57.2241 50.5454 56.9575 50.252L56.5975 49.852L56.7975 48.572H64.5575C68.4508 48.572 71.2241 48.9854 72.8775 49.812C74.5575 50.612 75.3975 51.9987 75.3975 53.972C75.3975 55.332 74.8775 56.6787 73.8375 58.012C72.7708 59.3454 71.6375 60.252 70.4375 60.732ZM62.8775 74.012H63.9575C66.0908 74.012 67.9841 73.3454 69.6375 72.012C71.2908 70.652 72.1175 68.9454 72.1175 66.892C72.1175 65.132 71.5575 63.8787 70.4375 63.132C69.3175 62.3587 67.5975 61.972 65.2775 61.972L65.1175 61.172C66.3441 60.8254 67.4375 60.052 68.3975 58.852C69.3575 57.5987 69.8375 56.3187 69.8375 55.012C69.8375 53.332 69.3441 52.2387 68.3575 51.732C67.3975 51.172 65.5841 50.892 62.9175 50.892L62.8775 74.012ZM94.4565 72.252L93.6565 68.892H85.1365L84.4965 70.492C83.6965 72.4654 83.5765 74.012 84.1365 75.132L84.2565 75.332L84.0565 76.572H77.1365V76.332C77.8832 75.5854 78.5365 74.692 79.0965 73.652L92.2165 47.492H93.0565L98.8565 68.452C99.7899 71.7587 100.897 74.052 102.177 75.332L101.977 76.572H93.9365V76.332C94.6032 75.1854 94.7765 73.8254 94.4565 72.252ZM91.2965 58.972L90.6165 56.132H90.4965L86.2965 66.172L92.9365 65.932L91.2965 58.972ZM104.611 57.932C104.611 55.692 105.624 53.5987 107.651 51.652C109.891 49.5987 113.158 48.572 117.451 48.572H124.091V48.812C123.424 49.8787 123.091 52.4787 123.091 56.612V68.412C123.091 71.9587 123.611 74.252 124.651 75.292L124.451 76.572H117.131V76.332C117.824 74.4654 118.171 71.8254 118.171 68.412L118.251 50.812C115.824 50.812 113.824 51.4787 112.251 52.812C110.731 54.1454 109.971 55.8254 109.971 57.852C109.971 59.6387 110.544 61.0254 111.691 62.012C112.838 62.9987 114.198 63.612 115.771 63.852L115.971 64.492C115.731 64.732 115.331 65.2654 114.771 66.092C114.238 66.8654 113.451 68.3187 112.411 70.452C111.398 72.5054 110.638 74.5454 110.131 76.572H102.971V76.252C106.278 71.852 108.798 68.092 110.531 64.972C108.904 64.7587 107.504 63.9987 106.331 62.692C105.184 61.3854 104.611 59.7987 104.611 57.932ZM145.338 51.292V68.412C145.338 70.0387 145.458 71.452 145.698 72.652C145.965 73.852 146.245 74.5987 146.538 74.892L146.938 75.292L146.738 76.572H139.418V76.332C140.112 75.1587 140.458 72.5187 140.458 68.412L140.498 56.732C140.498 55.1054 140.378 53.692 140.138 52.492C139.925 51.292 139.685 50.5454 139.418 50.252L139.058 49.852L139.258 48.572H146.378C150.325 48.5187 153.098 48.412 154.698 48.252L155.498 48.132L156.178 48.772L153.898 53.772H153.538C153.325 53.4787 152.938 53.1587 152.378 52.812C150.618 51.612 148.272 51.1054 145.338 51.292ZM167.209 72.252L163.769 56.132H163.649L158.089 70.532C157.289 72.4787 157.156 74.012 157.689 75.132L157.809 75.332L157.609 76.572H150.769V76.332C151.489 75.612 152.116 74.7187 152.649 73.652L165.369 47.492H166.209L171.609 68.452C172.463 71.6787 173.569 73.972 174.929 75.332L174.729 76.572H166.689V76.332C167.356 75.1854 167.529 73.8254 167.209 72.252ZM192.855 72.252L192.055 68.892H183.535L182.895 70.492C182.095 72.4654 181.975 74.012 182.535 75.132L182.655 75.332L182.455 76.572H175.535V76.332C176.282 75.5854 176.935 74.692 177.495 73.652L190.615 47.492H191.455L197.255 68.452C198.188 71.7587 199.295 74.052 200.575 75.332L200.375 76.572H192.335V76.332C193.002 75.1854 193.175 73.8254 192.855 72.252ZM189.695 58.972L189.015 56.132H188.895L184.695 66.172L191.335 65.932L189.695 58.972ZM216.609 60.732V60.812C218.903 60.812 220.689 61.3587 221.969 62.452C223.276 63.5454 223.929 65.0654 223.929 67.012C223.929 69.572 222.769 71.812 220.449 73.732C218.156 75.6254 215.129 76.572 211.369 76.572H203.129V76.332C203.823 75.1587 204.169 72.5187 204.169 68.412L204.209 56.732C204.209 55.1054 204.089 53.692 203.849 52.492C203.636 51.292 203.396 50.5454 203.129 50.252L202.769 49.852L202.969 48.572H210.729C214.623 48.572 217.396 48.9854 219.049 49.812C220.729 50.612 221.569 51.9987 221.569 53.972C221.569 55.332 221.049 56.6787 220.009 58.012C218.943 59.3454 217.809 60.252 216.609 60.732ZM209.049 74.012H210.129C212.263 74.012 214.156 73.3454 215.809 72.012C217.463 70.652 218.289 68.9454 218.289 66.892C218.289 65.132 217.729 63.8787 216.609 63.132C215.489 62.3587 213.769 61.972 211.449 61.972L211.289 61.172C212.516 60.8254 213.609 60.052 214.569 58.852C215.529 57.5987 216.009 56.3187 216.009 55.012C216.009 53.332 215.516 52.2387 214.529 51.732C213.569 51.172 211.756 50.892 209.089 50.892L209.049 74.012ZM240.628 72.252L239.828 68.892H231.308L230.668 70.492C229.868 72.4654 229.748 74.012 230.308 75.132L230.428 75.332L230.228 76.572H223.308V76.332C224.055 75.5854 224.708 74.692 225.268 73.652L238.388 47.492H239.228L245.028 68.452C245.962 71.7587 247.068 74.052 248.348 75.332L248.148 76.572H240.108V76.332C240.775 75.1854 240.948 73.8254 240.628 72.252ZM237.468 58.972L236.788 56.132H236.668L232.468 66.172L239.108 65.932L237.468 58.972ZM261.943 68.412L261.983 56.732C261.983 55.1054 261.863 53.692 261.623 52.492C261.409 51.292 261.169 50.5454 260.903 50.252L260.543 49.852L260.743 48.572H267.863V48.812C267.196 49.7987 266.863 52.4387 266.863 56.732L266.823 68.412C266.823 70.0387 266.943 71.452 267.183 72.652C267.449 73.852 267.729 74.5987 268.023 74.892L268.423 75.292L268.223 76.572H260.903V76.332C261.596 75.1587 261.943 72.5187 261.943 68.412ZM283.103 75.292L282.903 76.572H276.383C275.156 72.1187 273.769 68.6654 272.223 66.212C270.703 63.7587 269.236 62.5454 267.823 62.572L267.623 61.772C273.276 55.132 275.449 51.1587 274.143 49.852L274.343 48.572H281.543V48.812C281.089 49.4254 279.396 51.4387 276.463 54.852C273.636 58.1054 271.943 60.1054 271.383 60.852H274.263C275.543 62.292 276.743 64.052 277.863 66.132C278.316 66.9587 278.956 68.1987 279.783 69.852C280.636 71.4787 281.303 72.7054 281.783 73.532C282.263 74.332 282.703 74.9187 283.103 75.292ZM301.019 72.252L300.219 68.892H291.699L291.059 70.492C290.259 72.4654 290.139 74.012 290.699 75.132L290.819 75.332L290.619 76.572H283.699V76.332C284.446 75.5854 285.099 74.692 285.659 73.652L298.779 47.492H299.619L305.419 68.452C306.352 71.7587 307.459 74.052 308.739 75.332L308.539 76.572H300.499V76.332C301.166 75.1854 301.339 73.8254 301.019 72.252ZM297.859 58.972L297.179 56.132H297.059L292.859 66.172L299.499 65.932L297.859 58.972ZM331.084 76.572H323.764V76.332C324.457 75.1587 324.804 72.5187 324.804 68.412L324.844 56.732C324.844 55.1054 324.724 53.692 324.484 52.492C324.271 51.292 324.031 50.5454 323.764 50.252L323.404 49.852L323.604 48.572H330.724V48.812C330.057 49.7987 329.724 52.4387 329.724 56.732L329.684 68.412C329.684 70.0387 329.804 71.452 330.044 72.652C330.311 73.852 330.591 74.5987 330.884 74.892L331.284 75.292L331.084 76.572ZM344.564 76.572H338.244C336.484 71.0787 335.151 67.4387 334.244 65.652C333.151 63.652 331.964 62.6254 330.684 62.572L330.484 61.772C335.284 56.1454 337.457 52.372 337.004 50.452C336.924 50.1587 336.791 49.9587 336.604 49.852L336.804 48.572H344.004V48.812L334.244 60.852H336.324C337.604 62.292 338.764 64.052 339.804 66.132C340.204 66.9054 340.684 67.892 341.244 69.092C341.831 70.2654 342.284 71.1854 342.604 71.852C342.924 72.5187 343.284 73.1854 343.684 73.852C344.084 74.5187 344.444 74.9987 344.764 75.292L344.564 76.572ZM315.764 76.572H309.124V76.292C309.764 75.7054 310.551 74.4654 311.484 72.572C312.284 70.9454 313.324 68.892 314.604 66.412C315.777 64.172 317.017 62.3187 318.324 60.852H320.564C317.577 56.292 315.404 53.292 314.044 51.852C312.897 50.6787 311.977 50.012 311.284 49.852L311.444 48.572H318.644L318.684 48.852C318.604 49.252 318.617 49.8787 318.724 50.732C318.831 51.4254 319.057 52.2654 319.404 53.252C320.284 55.7054 321.884 58.7054 324.204 62.252L324.124 62.412C321.644 62.5987 318.857 67.3187 315.764 76.572ZM361.139 76.572H345.379V76.372L359.539 47.492H360.379C362.992 58.3987 364.712 65.372 365.539 68.412C366.125 70.5454 366.712 72.172 367.299 73.292L369.459 73.212L369.699 73.532L366.619 81.452H365.059C365.192 81.132 365.245 80.572 365.219 79.772C365.219 77.6387 363.859 76.572 361.139 76.572ZM357.859 56.652L350.499 73.892L361.419 73.532L359.299 63.172L357.979 56.652H357.859ZM384.744 48.572H392.024V48.812C391.197 50.0387 389.704 52.692 387.544 56.772L386.584 58.612L385.544 60.612L384.504 62.532L383.464 64.572C382.504 66.5454 381.944 67.772 381.784 68.252C381.01 70.3587 380.624 71.692 380.624 72.252C380.624 72.9187 380.73 73.5187 380.944 74.052C381.157 74.5854 381.397 74.9454 381.664 75.132L381.984 75.332L381.824 76.572H373.944V76.332C375.89 73.7987 377.57 70.9854 378.984 67.892H376.624C374.357 61.4654 372.637 56.932 371.464 54.292C370.53 52.212 369.677 50.8387 368.904 50.172L368.504 49.812L368.664 48.572H375.424V48.772C375.637 49.732 375.984 50.9987 376.464 52.572C377.264 55.132 378.024 57.3454 378.744 59.212L380.744 64.332H380.824L383.504 59.132C384.89 56.4654 385.584 54.1854 385.584 52.292C385.584 51.7587 385.504 51.2787 385.344 50.852C385.184 50.3987 385.01 50.1187 384.824 50.012L384.584 49.812L384.744 48.572ZM399.675 63.372V68.412C399.675 69.852 399.769 71.1054 399.955 72.172C400.142 73.212 400.329 73.932 400.515 74.332C400.702 74.732 400.889 74.9987 401.075 75.132L401.235 75.292L401.035 76.572H393.715V76.332C394.435 75.1587 394.795 72.5187 394.795 68.412V56.692C394.795 55.0654 394.675 53.652 394.435 52.452C394.222 51.252 393.982 50.5054 393.715 50.212L393.355 49.812L393.555 48.532H400.675V48.772C400.009 49.7587 399.675 52.3987 399.675 56.692V60.692L403.715 60.412C404.035 56.892 405.182 53.9454 407.155 51.572C409.155 49.2254 411.622 48.052 414.555 48.052C418.075 48.052 420.835 49.3454 422.835 51.932C424.835 54.5187 425.835 58.132 425.835 62.772C425.835 66.8787 424.729 70.2787 422.515 72.972C420.302 75.6654 417.542 77.012 414.235 77.012C411.089 77.012 408.569 75.8254 406.675 73.452C404.809 71.052 403.795 67.692 403.635 63.372H399.675ZM420.315 63.052C420.315 60.7054 420.115 58.6654 419.715 56.932C419.315 55.1187 418.622 53.6787 417.635 52.612C416.675 51.5187 415.489 50.972 414.075 50.972C412.395 50.972 411.035 51.972 409.995 53.972C408.982 55.9987 408.475 58.6787 408.475 62.012C408.475 65.8254 408.982 68.7854 409.995 70.892C411.035 72.972 412.595 74.012 414.675 74.012C416.435 74.012 417.809 73.0387 418.795 71.092C419.809 69.1187 420.315 66.4387 420.315 63.052ZM18.35 84.892L8.22996 85.412V102.412C8.22996 104.039 8.34996 105.452 8.58996 106.652C8.85663 107.852 9.13663 108.599 9.42996 108.892L9.82996 109.292L9.58996 110.572H2.26996V110.332C2.98996 109.159 3.34996 106.519 3.34996 102.412V90.732C3.34996 89.1054 3.22996 87.692 2.98996 86.492C2.77663 85.292 2.53663 84.5454 2.26996 84.252L1.90996 83.852L2.10996 82.572H24.23V82.812C23.6166 83.7987 23.2833 86.4387 23.23 90.732L23.19 102.412C23.19 104.039 23.31 105.452 23.55 106.652C23.8166 107.852 24.0966 108.599 24.39 108.892L24.79 109.292L24.59 110.572H17.27V110.332C17.9633 109.159 18.31 106.519 18.31 102.412L18.35 84.892ZM29.025 91.932C29.025 89.692 30.0383 87.5987 32.065 85.652C34.305 83.5987 37.5716 82.572 41.865 82.572H48.505V82.812C47.8383 83.8787 47.505 86.4787 47.505 90.612V102.412C47.505 105.959 48.025 108.252 49.065 109.292L48.865 110.572H41.545V110.332C42.2383 108.465 42.585 105.825 42.585 102.412L42.665 84.812C40.2383 84.812 38.2383 85.4787 36.665 86.812C35.145 88.1454 34.385 89.8254 34.385 91.852C34.385 93.6387 34.9583 95.0254 36.105 96.012C37.2516 96.9987 38.6116 97.612 40.185 97.852L40.385 98.492C40.145 98.732 39.745 99.2654 39.185 100.092C38.6516 100.865 37.865 102.319 36.825 104.452C35.8116 106.505 35.0516 108.545 34.545 110.572H27.385V110.252C30.6916 105.852 33.2116 102.092 34.945 98.972C33.3183 98.7587 31.9183 97.9987 30.745 96.692C29.5983 95.3854 29.025 93.7987 29.025 91.932ZM50.0615 88.012L53.1415 82.572H65.2615C68.8082 82.5187 71.1815 82.412 72.3815 82.252L72.9815 82.132L73.6615 82.772L71.5415 87.292H71.2615C69.5815 86.252 67.2349 85.652 64.2215 85.492V102.412C64.2215 104.039 64.3415 105.452 64.5815 106.652C64.8482 107.852 65.1282 108.599 65.4215 108.892L65.8215 109.292L65.6215 110.572H58.3015V110.332C59.0215 109.159 59.3815 106.519 59.3815 102.412V85.732C57.5949 85.892 55.9815 86.212 54.5415 86.692C53.1282 87.172 52.1815 87.6387 51.7015 88.092L51.0615 88.652L50.0615 88.012ZM75.8246 84.252L75.4646 83.852L75.6646 82.572H82.7846V82.812C82.118 83.7987 81.7846 86.4387 81.7846 90.732V94.492L92.3446 93.932V90.732C92.3446 87.0787 91.9313 84.8387 91.1046 84.012L90.9446 83.852L91.1446 82.572H98.2246V82.812C97.5846 83.8254 97.2646 86.4654 97.2646 90.732L97.2246 102.412C97.2246 104.039 97.3446 105.452 97.5847 106.652C97.8513 107.852 98.1313 108.599 98.4246 108.892L98.8247 109.292L98.6246 110.572H91.3046V110.332C91.998 109.159 92.3446 106.519 92.3446 102.412V97.252H81.7846V102.412C81.7846 103.852 81.878 105.105 82.0646 106.172C82.2513 107.212 82.438 107.932 82.6246 108.332C82.8113 108.732 82.998 108.999 83.1846 109.132L83.3446 109.292L83.1446 110.572H75.8246V110.332C76.5446 109.159 76.9046 106.519 76.9046 102.412V90.732C76.9046 89.1054 76.7846 87.692 76.5446 86.492C76.3313 85.292 76.0913 84.5454 75.8246 84.252ZM109.327 90.692V98.052V101.292H109.407L124.167 81.212L125.447 81.612C124.781 83.3454 124.447 86.3587 124.447 90.652V102.452C124.447 106.025 124.914 108.279 125.847 109.212L126.007 109.332L125.807 110.572H118.527V110.332C119.221 109.159 119.567 106.532 119.567 102.452V95.172V92.892H119.487L104.767 111.452L103.447 111.052C104.114 109.319 104.447 106.305 104.447 102.012V90.692C104.447 89.0654 104.314 87.652 104.047 86.452C103.807 85.252 103.541 84.5054 103.247 84.212L102.847 83.812L103.047 82.572H110.367V82.812C109.674 83.9854 109.327 86.612 109.327 90.692ZM151.635 107.412L154.955 107.212L155.195 107.532L152.195 115.452H150.595C150.755 115.079 150.835 114.519 150.835 113.772C150.835 111.639 149.568 110.572 147.035 110.572H130.395V110.332C131.062 109.345 131.395 106.705 131.395 102.412L131.435 90.732C131.435 89.1054 131.315 87.692 131.075 86.492C130.862 85.292 130.635 84.5454 130.395 84.252L130.035 83.852L130.235 82.572H137.635V82.812C137.555 82.892 137.422 83.1187 137.235 83.492C137.102 83.812 136.915 84.6387 136.675 85.972C136.435 87.332 136.315 88.9187 136.315 90.732L136.275 108.052L146.235 107.532V90.732C146.235 89.1054 146.115 87.692 145.875 86.492C145.662 85.292 145.435 84.5454 145.195 84.252L144.835 83.852L145.075 82.572H152.275V82.812C152.168 82.972 152.062 83.1987 151.955 83.492C151.768 83.8654 151.582 84.7587 151.395 86.172C151.208 87.5854 151.115 89.1054 151.115 90.732V102.412C151.115 104.519 151.288 106.185 151.635 107.412ZM170.212 82.572H177.492V82.812C176.666 84.0387 175.172 86.692 173.012 90.772L172.052 92.612L171.012 94.612L169.972 96.532L168.932 98.572C167.972 100.545 167.412 101.772 167.252 102.252C166.479 104.359 166.092 105.692 166.092 106.252C166.092 106.919 166.199 107.519 166.412 108.052C166.626 108.585 166.866 108.945 167.132 109.132L167.452 109.332L167.292 110.572H159.412V110.332C161.359 107.799 163.039 104.985 164.452 101.892H162.092C159.826 95.4654 158.106 90.932 156.932 88.292C155.999 86.212 155.146 84.8387 154.372 84.172L153.972 83.812L154.132 82.572H160.892V82.772C161.106 83.732 161.452 84.9987 161.932 86.572C162.732 89.132 163.492 91.3454 164.212 93.212L166.212 98.332H166.292L168.972 93.132C170.359 90.4654 171.052 88.1854 171.052 86.292C171.052 85.7587 170.972 85.2787 170.812 84.852C170.652 84.3987 170.479 84.1187 170.292 84.012L170.052 83.812L170.212 82.572Z" fill="white"/>
<a href="https://litnet.com/ru/kseniya-w-manichevskaya-u12708312">
<rect fill="black" fill-opacity="0" x="222.088" y="0.0310001" width="243.426" height="49.938"/>
</a>
</svg>
