<svg width="492" height="117" viewBox="0 0 492 117" fill="none" xmlns="http://www.w3.org/2000/svg">
<path d="M24.36 2.03998H35.28V2.39998C34.04 4.23998 31.8 8.21998 28.56 14.34L27.12 17.1L25.56 20.1L24 22.98L22.44 26.04C21 29 20.16 30.84 19.92 31.56C18.76 34.72 18.18 36.72 18.18 37.56C18.18 38.56 18.34 39.46 18.66 40.26C18.98 41.06 19.34 41.6 19.74 41.88L20.22 42.18L19.98 44.04H8.15995V43.68C11.08 39.88 13.6 35.66 15.72 31.02H12.18C8.77995 21.38 6.19995 14.58 4.43995 10.62C3.03995 7.49998 1.75995 5.43998 0.599951 4.43998L-4.88069e-05 3.89998L0.239951 2.03998H10.38V2.33997C10.7 3.77998 11.22 5.67998 11.94 8.03998C13.14 11.88 14.28 15.2 15.36 18L18.36 25.68H18.48L22.5 17.88C24.58 13.88 25.62 10.46 25.62 7.61997C25.62 6.81998 25.5 6.09998 25.26 5.45998C25.02 4.77998 24.76 4.35998 24.48 4.19998L24.12 3.89998L24.36 2.03998ZM67.0345 44.04H56.0545V43.68C57.0945 41.92 57.6145 37.96 57.6145 31.8L57.6745 14.28C57.6745 11.84 57.4945 9.71998 57.1345 7.91997C56.8145 6.11998 56.4545 4.99998 56.0545 4.55997L55.5145 3.95998L55.8145 2.03998H66.4945V2.39998C65.4945 3.87998 64.9945 7.83998 64.9945 14.28L64.9345 31.8C64.9345 34.24 65.1145 36.36 65.4745 38.16C65.8745 39.96 66.2945 41.08 66.7345 41.52L67.3345 42.12L67.0345 44.04ZM87.2545 44.04H77.7745C75.1345 35.8 73.1345 30.34 71.7745 27.66C70.1345 24.66 68.3545 23.12 66.4345 23.04L66.1345 21.84C73.3345 13.4 76.5945 7.73998 75.9145 4.85997C75.7945 4.41998 75.5945 4.11998 75.3145 3.95998L75.6145 2.03998H86.4145V2.39998L71.7745 20.46H74.8945C76.8145 22.62 78.5545 25.26 80.1145 28.38C80.7145 29.54 81.4345 31.02 82.2745 32.82C83.1545 34.58 83.8345 35.96 84.3145 36.96C84.7945 37.96 85.3345 38.96 85.9345 39.96C86.5345 40.96 87.0745 41.68 87.5545 42.12L87.2545 44.04ZM44.0545 44.04H34.0945V43.62C35.0545 42.74 36.2345 40.88 37.6345 38.04C38.8345 35.6 40.3945 32.52 42.3145 28.8C44.0745 25.44 45.9345 22.66 47.8945 20.46H51.2545C46.7745 13.62 43.5145 9.11998 41.4745 6.95998C39.7545 5.19998 38.3745 4.19997 37.3345 3.95998L37.5745 2.03998H48.3745L48.4345 2.45998C48.3145 3.05998 48.3345 3.99998 48.4945 5.27998C48.6545 6.31998 48.9945 7.57998 49.5145 9.05998C50.8345 12.74 53.2345 17.24 56.7145 22.56L56.5945 22.8C52.8745 23.08 48.6945 30.16 44.0545 44.04ZM119.935 36.18L116.815 44.04H91.2548V43.68C92.3348 41.92 92.8748 37.98 92.8748 31.86V14.16C92.8748 12.68 92.8148 11.36 92.6948 10.2C92.6148 9.03998 92.4548 8.09998 92.2148 7.37998C92.0148 6.65998 91.8348 6.09998 91.6748 5.69997C91.5148 5.29997 91.3148 4.91998 91.0748 4.55997C90.8748 4.15998 90.7548 3.91998 90.7148 3.83998L91.0148 1.97998H100.975C107.975 1.97998 112.695 1.79998 115.135 1.43998L116.335 1.25997L117.355 2.27998L114.595 8.57998H114.175C113.575 8.21998 113.015 7.93998 112.495 7.73998C111.655 7.37998 110.075 6.97998 107.755 6.53998C105.435 6.01998 102.915 5.81998 100.195 5.93998V20.28C102.995 20.08 105.335 19.8 107.215 19.44C109.455 19.04 111.015 18.68 111.895 18.36L113.335 17.88L114.415 18.84L112.135 24.3H100.195V39.96C103.995 39.92 107.515 39.48 110.755 38.64C113.715 37.88 115.775 37.12 116.935 36.36L118.495 35.22L119.935 36.18ZM140.591 4.55997L140.051 3.95998L140.351 2.03998H151.031V2.39998C150.031 3.87998 149.531 7.83998 149.531 14.28V19.92L165.371 19.08V14.28C165.371 8.79998 164.751 5.43998 163.511 4.19998L163.271 3.95998L163.571 2.03998H174.191V2.39998C173.231 3.91998 172.751 7.87998 172.751 14.28L172.691 31.8C172.691 34.24 172.871 36.36 173.231 38.16C173.631 39.96 174.051 41.08 174.491 41.52L175.091 42.12L174.791 44.04H163.811V43.68C164.851 41.92 165.371 37.96 165.371 31.8V24.06H149.531V31.8C149.531 33.96 149.671 35.84 149.951 37.44C150.231 39 150.511 40.08 150.791 40.68C151.071 41.28 151.351 41.68 151.631 41.88L151.871 42.12L151.571 44.04H140.591V43.68C141.671 41.92 142.211 37.96 142.211 31.8V14.28C142.211 11.84 142.031 9.71998 141.671 7.91997C141.351 6.11998 140.991 4.99998 140.591 4.55997ZM202.874 37.56L201.674 32.52H188.894L187.934 34.92C186.734 37.88 186.554 40.2 187.394 41.88L187.574 42.18L187.274 44.04H176.894V43.68C178.014 42.56 178.994 41.22 179.834 39.66L199.514 0.419975H200.774L209.474 31.86C210.874 36.82 212.534 40.26 214.454 42.18L214.154 44.04H202.094V43.68C203.094 41.96 203.354 39.92 202.874 37.56ZM198.134 17.64L197.114 13.38H196.934L190.634 28.44L200.594 28.08L198.134 17.64ZM254.406 37.56L249.246 13.38H249.066L240.726 34.98C239.526 37.9 239.326 40.2 240.126 41.88L240.306 42.18L240.006 44.04H229.746V43.68C230.826 42.6 231.766 41.26 232.566 39.66L251.646 0.419975H252.906L261.006 31.86C262.286 36.7 263.946 40.14 265.986 42.18L265.686 44.04H253.626V43.68C254.626 41.96 254.886 39.92 254.406 37.56ZM279.029 14.22V25.26V30.12H279.149L301.289 -2.36034e-05L303.209 0.599976C302.209 3.19998 301.709 7.71998 301.709 14.16V31.86C301.709 37.22 302.409 40.6 303.809 42L304.049 42.18L303.749 44.04H292.829V43.68C293.869 41.92 294.389 37.98 294.389 31.86V20.94V17.52H294.269L272.189 45.36L270.209 44.76C271.209 42.16 271.709 37.64 271.709 31.2V14.22C271.709 11.78 271.509 9.65998 271.109 7.85998C270.749 6.05998 270.349 4.93998 269.909 4.49998L269.309 3.89998L269.609 2.03998H280.589V2.39998C279.549 4.15998 279.029 8.09998 279.029 14.22ZM305.559 10.2L310.179 2.03998H328.359C333.679 1.95998 337.239 1.79998 339.039 1.55998L339.939 1.37998L340.959 2.33997L337.779 9.11998H337.359C334.839 7.55998 331.319 6.65998 326.799 6.41998V31.8C326.799 34.24 326.979 36.36 327.339 38.16C327.739 39.96 328.159 41.08 328.599 41.52L329.199 42.12L328.899 44.04H317.919V43.68C318.999 41.92 319.539 37.96 319.539 31.8V6.77997C316.859 7.01998 314.439 7.49998 312.279 8.21998C310.159 8.93998 308.739 9.63998 308.019 10.32L307.059 11.16L305.559 10.2ZM344.204 4.55997L343.664 3.95998L343.964 2.03998H354.644V2.39998C353.644 3.87998 353.144 7.83998 353.144 14.28V19.92L368.984 19.08V14.28C368.984 8.79998 368.364 5.43998 367.124 4.19998L366.884 3.95998L367.184 2.03998H377.804V2.39998C376.844 3.91998 376.364 7.87998 376.364 14.28L376.304 31.8C376.304 34.24 376.484 36.36 376.844 38.16C377.244 39.96 377.664 41.08 378.104 41.52L378.704 42.12L378.404 44.04H367.424V43.68C368.464 41.92 368.984 37.96 368.984 31.8V24.06H353.144V31.8C353.144 33.96 353.284 35.84 353.564 37.44C353.844 39 354.124 40.08 354.404 40.68C354.684 41.28 354.964 41.68 355.244 41.88L355.484 42.12L355.184 44.04H344.204V43.68C345.284 41.92 345.824 37.96 345.824 31.8V14.28C345.824 11.84 345.644 9.71998 345.284 7.91997C344.964 6.11998 344.604 4.99998 344.204 4.55997ZM413.958 36.18L410.838 44.04H385.278V43.68C386.358 41.92 386.898 37.98 386.898 31.86V14.16C386.898 12.68 386.838 11.36 386.718 10.2C386.638 9.03998 386.478 8.09998 386.238 7.37998C386.038 6.65998 385.858 6.09998 385.698 5.69997C385.538 5.29997 385.338 4.91998 385.098 4.55997C384.898 4.15998 384.778 3.91998 384.738 3.83998L385.038 1.97998H394.998C401.998 1.97998 406.718 1.79998 409.158 1.43998L410.358 1.25997L411.378 2.27998L408.618 8.57998H408.198C407.598 8.21998 407.038 7.93998 406.518 7.73998C405.678 7.37998 404.098 6.97998 401.778 6.53998C399.458 6.01998 396.938 5.81998 394.218 5.93998V20.28C397.018 20.08 399.358 19.8 401.238 19.44C403.478 19.04 405.038 18.68 405.918 18.36L407.358 17.88L408.438 18.84L406.158 24.3H394.218V39.96C398.018 39.92 401.538 39.48 404.778 38.64C407.738 37.88 409.798 37.12 410.958 36.36L412.518 35.22L413.958 36.18ZM412.141 10.2L416.761 2.03998H434.941C440.261 1.95998 443.821 1.79998 445.621 1.55998L446.521 1.37998L447.541 2.33997L444.361 9.11998H443.941C441.421 7.55998 437.901 6.65998 433.381 6.41998V31.8C433.381 34.24 433.561 36.36 433.921 38.16C434.321 39.96 434.741 41.08 435.181 41.52L435.781 42.12L435.481 44.04H424.501V43.68C425.581 41.92 426.121 37.96 426.121 31.8V6.77997C423.441 7.01998 421.021 7.49998 418.861 8.21998C416.741 8.93998 415.321 9.63998 414.601 10.32L413.641 11.16L412.141 10.2ZM479.466 36.18L476.346 44.04H450.786V43.68C451.866 41.92 452.406 37.98 452.406 31.86V14.16C452.406 12.68 452.346 11.36 452.226 10.2C452.146 9.03998 451.986 8.09998 451.746 7.37998C451.546 6.65998 451.366 6.09998 451.206 5.69997C451.046 5.29997 450.846 4.91998 450.606 4.55997C450.406 4.15998 450.286 3.91998 450.246 3.83998L450.546 1.97998H460.506C467.506 1.97998 472.226 1.79998 474.666 1.43998L475.866 1.25997L476.886 2.27998L474.126 8.57998H473.706C473.106 8.21998 472.546 7.93998 472.026 7.73998C471.186 7.37998 469.606 6.97998 467.286 6.53998C464.966 6.01998 462.446 5.81998 459.726 5.93998V20.28C462.526 20.08 464.866 19.8 466.746 19.44C468.986 19.04 470.546 18.68 471.426 18.36L472.866 17.88L473.946 18.84L471.666 24.3H459.726V39.96C463.526 39.92 467.046 39.48 470.286 38.64C473.246 37.88 475.306 37.12 476.466 36.36L478.026 35.22L479.466 36.18ZM483.562 2.15998L483.922 0.239977L491.662 2.03998L488.482 31.8H484.762C485.122 22.32 484.722 12.44 483.562 2.15998ZM482.182 44.04L483.382 36.24H490.822L490.222 44.04H482.182ZM2.25995 51.72L1.89995 51.32L2.09995 50.04H9.21995V50.28C8.55328 51.2666 8.21995 53.9066 8.21995 58.2V61.96L18.78 61.4V58.2C18.78 54.5466 18.3666 52.3066 17.54 51.48L17.38 51.32L17.58 50.04H24.66V50.28C24.02 51.2933 23.7 53.9333 23.7 58.2L23.66 69.88C23.66 71.5066 23.78 72.92 24.02 74.12C24.2866 75.32 24.5666 76.0666 24.86 76.36L25.26 76.76L25.06 78.04H17.74V77.8C18.4333 76.6266 18.78 73.9866 18.78 69.88V64.72H8.21995V69.88C8.21995 71.32 8.31329 72.5733 8.49995 73.64C8.68662 74.68 8.87329 75.4 9.05995 75.8C9.24662 76.2 9.43328 76.4666 9.61995 76.6L9.77995 76.76L9.57995 78.04H2.25995V77.8C2.97995 76.6266 3.33995 73.9866 3.33995 69.88V58.2C3.33995 56.5733 3.21995 55.16 2.97995 53.96C2.76662 52.76 2.52662 52.0133 2.25995 51.72ZM28.2921 64.16C28.2921 60.1866 29.5321 56.72 32.0121 53.76C34.5455 50.8 37.5455 49.32 41.0121 49.32C44.6388 49.32 47.6121 50.6133 49.9321 53.2C52.2521 55.76 53.4121 59.3066 53.4121 63.84C53.4121 67.8933 52.1321 71.3866 49.5721 74.32C47.0655 77.2266 44.1055 78.68 40.6921 78.68C37.1988 78.68 34.2521 77.4133 31.8521 74.88C29.4788 72.2933 28.2921 68.72 28.2921 64.16ZM47.8921 64.12C47.8921 60.44 47.2255 57.4933 45.8921 55.28C44.5588 53.0666 42.7721 51.96 40.5321 51.96C38.6655 51.96 37.0655 53.0666 35.7321 55.28C34.4521 57.4666 33.8121 60.3333 33.8121 63.88C33.8121 67.6133 34.4655 70.5466 35.7721 72.68C37.1055 74.8133 38.8921 75.88 41.1321 75.88C42.9988 75.88 44.5855 74.7866 45.8921 72.6C47.2255 70.3866 47.8921 67.56 47.8921 64.12ZM70.4275 62.2V62.28C72.7208 62.28 74.5075 62.8266 75.7875 63.92C77.0941 65.0133 77.7475 66.5333 77.7475 68.48C77.7475 71.04 76.5875 73.28 74.2675 75.2C71.9741 77.0933 68.9475 78.04 65.1875 78.04H56.9475V77.8C57.6408 76.6266 57.9875 73.9866 57.9875 69.88L58.0275 58.2C58.0275 56.5733 57.9075 55.16 57.6675 53.96C57.4541 52.76 57.2141 52.0133 56.9475 51.72L56.5875 51.32L56.7875 50.04H64.5475C68.4408 50.04 71.2141 50.4533 72.8675 51.28C74.5475 52.08 75.3875 53.4666 75.3875 55.44C75.3875 56.8 74.8675 58.1466 73.8275 59.48C72.7608 60.8133 71.6275 61.72 70.4275 62.2ZM62.8675 75.48H63.9475C66.0808 75.48 67.9741 74.8133 69.6275 73.48C71.2808 72.12 72.1075 70.4133 72.1075 68.36C72.1075 66.6 71.5475 65.3466 70.4275 64.6C69.3075 63.8266 67.5875 63.44 65.2675 63.44L65.1075 62.64C66.3341 62.2933 67.4275 61.52 68.3875 60.32C69.3475 59.0666 69.8275 57.7866 69.8275 56.48C69.8275 54.8 69.3341 53.7066 68.3475 53.2C67.3875 52.64 65.5741 52.36 62.9075 52.36L62.8675 75.48ZM99.969 67.16C99.969 69.56 99.1157 71.8666 97.409 74.08C96.529 75.2266 95.289 76.16 93.689 76.88C92.1157 77.6 90.3423 77.9866 88.369 78.04H81.049V77.8C81.7423 76.6266 82.089 74 82.089 69.92L82.129 58.2C82.129 56.6 82.009 55.2133 81.769 54.04C81.5557 52.84 81.3157 52.0666 81.049 51.72L80.689 51.32L80.889 50.04H88.009V50.28C87.3423 51.2666 87.009 53.9066 87.009 58.2L86.969 75.8H87.529C89.449 75.8 91.0623 74.9466 92.369 73.24C93.7023 71.5066 94.369 69.52 94.369 67.28C94.369 65.2266 93.9157 63.8133 93.009 63.04C92.129 62.24 90.7957 61.8933 89.009 62L88.849 61.04C90.289 60.4266 91.689 60.1066 93.049 60.08C94.409 60.0266 95.5957 60.2533 96.609 60.76C97.6223 61.2666 98.4357 62.08 99.049 63.2C99.6623 64.2933 99.969 65.6133 99.969 67.16ZM106.969 58.16L106.929 69.92C106.929 71.5466 107.049 72.96 107.289 74.16C107.556 75.36 107.836 76.1066 108.129 76.4L108.529 76.8L108.329 78.04H101.009V77.84C101.729 76.64 102.089 74 102.089 69.92V58.16C102.089 56.5333 101.969 55.1333 101.729 53.96C101.516 52.76 101.276 52.0133 101.009 51.72L100.649 51.28L100.849 50.04H107.969V50.28C107.302 51.2666 106.969 53.8933 106.969 58.16ZM132.005 72.8L129.925 78.04H112.885V77.8C113.605 76.6266 113.965 74 113.965 69.92V58.12C113.965 57.1333 113.925 56.2533 113.845 55.48C113.792 54.7066 113.685 54.08 113.525 53.6C113.392 53.12 113.272 52.7466 113.165 52.48C113.058 52.2133 112.925 51.96 112.765 51.72C112.632 51.4533 112.552 51.2933 112.525 51.24L112.725 50H119.365C124.032 50 127.178 49.88 128.805 49.64L129.605 49.52L130.285 50.2L128.445 54.4H128.165C127.765 54.16 127.392 53.9733 127.045 53.84C126.485 53.6 125.432 53.3333 123.885 53.04C122.338 52.6933 120.658 52.56 118.845 52.64V62.2C120.712 62.0666 122.272 61.88 123.525 61.64C125.018 61.3733 126.058 61.1333 126.645 60.92L127.605 60.6L128.325 61.24L126.805 64.88H118.845V75.32C121.378 75.2933 123.725 75 125.885 74.44C127.858 73.9333 129.232 73.4266 130.005 72.92L131.045 72.16L132.005 72.8ZM151.696 52.76V69.88C151.696 71.5066 151.816 72.92 152.056 74.12C152.322 75.32 152.602 76.0666 152.896 76.36L153.296 76.76L153.096 78.04H145.776V77.8C146.469 76.6266 146.816 73.9866 146.816 69.88L146.856 58.2C146.856 56.5733 146.736 55.16 146.496 53.96C146.282 52.76 146.042 52.0133 145.776 51.72L145.416 51.32L145.616 50.04H152.736C156.682 49.9866 159.456 49.88 161.056 49.72L161.856 49.6L162.536 50.24L160.256 55.24H159.896C159.682 54.9466 159.296 54.6266 158.736 54.28C156.976 53.08 154.629 52.5733 151.696 52.76ZM173.567 73.72L170.127 57.6H170.007L164.447 72C163.647 73.9466 163.513 75.48 164.047 76.6L164.167 76.8L163.967 78.04H157.127V77.8C157.847 77.08 158.473 76.1866 159.007 75.12L171.727 48.96H172.567L177.967 69.92C178.82 73.1466 179.927 75.44 181.287 76.8L181.087 78.04H173.047V77.8C173.713 76.6533 173.887 75.2933 173.567 73.72ZM199.212 73.72L198.412 70.36H189.892L189.252 71.96C188.452 73.9333 188.332 75.48 188.892 76.6L189.012 76.8L188.812 78.04H181.892V77.8C182.639 77.0533 183.292 76.16 183.852 75.12L196.972 48.96H197.812L203.612 69.92C204.545 73.2266 205.652 75.52 206.932 76.8L206.732 78.04H198.692V77.8C199.359 76.6533 199.532 75.2933 199.212 73.72ZM196.052 60.44L195.372 57.6H195.252L191.052 67.64L197.692 67.4L196.052 60.44ZM222.967 62.2V62.28C225.26 62.28 227.047 62.8266 228.327 63.92C229.633 65.0133 230.287 66.5333 230.287 68.48C230.287 71.04 229.127 73.28 226.807 75.2C224.513 77.0933 221.487 78.04 217.727 78.04H209.487V77.8C210.18 76.6266 210.527 73.9866 210.527 69.88L210.567 58.2C210.567 56.5733 210.447 55.16 210.207 53.96C209.993 52.76 209.753 52.0133 209.487 51.72L209.127 51.32L209.327 50.04H217.087C220.98 50.04 223.753 50.4533 225.407 51.28C227.087 52.08 227.927 53.4666 227.927 55.44C227.927 56.8 227.407 58.1466 226.367 59.48C225.3 60.8133 224.167 61.72 222.967 62.2ZM215.407 75.48H216.487C218.62 75.48 220.513 74.8133 222.167 73.48C223.82 72.12 224.647 70.4133 224.647 68.36C224.647 66.6 224.087 65.3466 222.967 64.6C221.847 63.8266 220.127 63.44 217.807 63.44L217.647 62.64C218.873 62.2933 219.967 61.52 220.927 60.32C221.887 59.0666 222.367 57.7866 222.367 56.48C222.367 54.8 221.873 53.7066 220.887 53.2C219.927 52.64 218.113 52.36 215.447 52.36L215.407 75.48ZM252.508 67.16C252.508 69.56 251.655 71.8666 249.948 74.08C249.068 75.2266 247.828 76.16 246.228 76.88C244.655 77.6 242.881 77.9866 240.908 78.04H233.588V77.8C234.281 76.6266 234.628 74 234.628 69.92L234.668 58.2C234.668 56.6 234.548 55.2133 234.308 54.04C234.095 52.84 233.855 52.0666 233.588 51.72L233.228 51.32L233.428 50.04H240.548V50.28C239.881 51.2666 239.548 53.9066 239.548 58.2L239.508 75.8H240.068C241.988 75.8 243.601 74.9466 244.908 73.24C246.241 71.5066 246.908 69.52 246.908 67.28C246.908 65.2266 246.455 63.8133 245.548 63.04C244.668 62.24 243.335 61.8933 241.548 62L241.388 61.04C242.828 60.4266 244.228 60.1066 245.588 60.08C246.948 60.0266 248.135 60.2533 249.148 60.76C250.161 61.2666 250.975 62.08 251.588 63.2C252.201 64.2933 252.508 65.6133 252.508 67.16ZM259.508 58.16L259.468 69.92C259.468 71.5466 259.588 72.96 259.828 74.16C260.095 75.36 260.375 76.1066 260.668 76.4L261.068 76.8L260.868 78.04H253.548V77.84C254.268 76.64 254.628 74 254.628 69.92V58.16C254.628 56.5333 254.508 55.1333 254.268 53.96C254.055 52.76 253.815 52.0133 253.548 51.72L253.188 51.28L253.388 50.04H260.508V50.28C259.841 51.2666 259.508 53.8933 259.508 58.16ZM276.855 69.88L276.895 58.2C276.895 56.5733 276.775 55.16 276.535 53.96C276.321 52.76 276.081 52.0133 275.815 51.72L275.455 51.32L275.655 50.04H282.775V50.28C282.108 51.2666 281.775 53.9066 281.775 58.2L281.735 69.88C281.735 71.5066 281.855 72.92 282.095 74.12C282.361 75.32 282.641 76.0666 282.935 76.36L283.335 76.76L283.135 78.04H275.815V77.8C276.508 76.6266 276.855 73.9866 276.855 69.88ZM298.015 76.76L297.815 78.04H291.295C290.068 73.5866 288.681 70.1333 287.135 67.68C285.615 65.2266 284.148 64.0133 282.735 64.04L282.535 63.24C288.188 56.6 290.361 52.6266 289.055 51.32L289.255 50.04H296.455V50.28C296.001 50.8933 294.308 52.9066 291.375 56.32C288.548 59.5733 286.855 61.5733 286.295 62.32H289.175C290.455 63.76 291.655 65.52 292.775 67.6C293.228 68.4266 293.868 69.6666 294.695 71.32C295.548 72.9466 296.215 74.1733 296.695 75C297.175 75.8 297.615 76.3866 298.015 76.76ZM315.931 73.72L315.131 70.36H306.611L305.971 71.96C305.171 73.9333 305.051 75.48 305.611 76.6L305.731 76.8L305.531 78.04H298.611V77.8C299.358 77.0533 300.011 76.16 300.571 75.12L313.691 48.96H314.531L320.331 69.92C321.264 73.2266 322.371 75.52 323.651 76.8L323.451 78.04H315.411V77.8C316.078 76.6533 316.251 75.2933 315.931 73.72ZM312.771 60.44L312.091 57.6H311.971L307.771 67.64L314.411 67.4L312.771 60.44ZM345.996 78.04H338.676V77.8C339.369 76.6266 339.716 73.9866 339.716 69.88L339.756 58.2C339.756 56.5733 339.636 55.16 339.396 53.96C339.183 52.76 338.943 52.0133 338.676 51.72L338.316 51.32L338.516 50.04H345.636V50.28C344.969 51.2666 344.636 53.9066 344.636 58.2L344.596 69.88C344.596 71.5066 344.716 72.92 344.956 74.12C345.223 75.32 345.503 76.0666 345.796 76.36L346.196 76.76L345.996 78.04ZM359.476 78.04H353.156C351.396 72.5466 350.063 68.9066 349.156 67.12C348.063 65.12 346.876 64.0933 345.596 64.04L345.396 63.24C350.196 57.6133 352.369 53.84 351.916 51.92C351.836 51.6266 351.703 51.4266 351.516 51.32L351.716 50.04H358.916V50.28L349.156 62.32H351.236C352.516 63.76 353.676 65.52 354.716 67.6C355.116 68.3733 355.596 69.36 356.156 70.56C356.743 71.7333 357.196 72.6533 357.516 73.32C357.836 73.9866 358.196 74.6533 358.596 75.32C358.996 75.9866 359.356 76.4666 359.676 76.76L359.476 78.04ZM330.676 78.04H324.036V77.76C324.676 77.1733 325.463 75.9333 326.396 74.04C327.196 72.4133 328.236 70.36 329.516 67.88C330.689 65.64 331.929 63.7866 333.236 62.32H335.476C332.489 57.76 330.316 54.76 328.956 53.32C327.809 52.1466 326.889 51.48 326.196 51.32L326.356 50.04H333.556L333.596 50.32C333.516 50.72 333.529 51.3466 333.636 52.2C333.743 52.8933 333.969 53.7333 334.316 54.72C335.196 57.1733 336.796 60.1733 339.116 63.72L339.036 63.88C336.556 64.0666 333.769 68.7866 330.676 78.04ZM376.051 78.04H360.291V77.84L374.451 48.96H375.291C377.904 59.8666 379.624 66.84 380.451 69.88C381.037 72.0133 381.624 73.64 382.211 74.76L384.371 74.68L384.611 75L381.531 82.92H379.971C380.104 82.6 380.157 82.04 380.131 81.24C380.131 79.1066 378.771 78.04 376.051 78.04ZM372.771 58.12L365.411 75.36L376.331 75L374.211 64.64L372.891 58.12H372.771ZM405.711 67.16C405.711 69.56 404.858 71.8666 403.151 74.08C402.271 75.2266 401.031 76.16 399.431 76.88C397.858 77.6 396.085 77.9866 394.111 78.04H386.791V77.8C387.485 76.6266 387.831 74 387.831 69.92L387.871 58.2C387.871 56.6 387.751 55.2133 387.511 54.04C387.298 52.84 387.058 52.0666 386.791 51.72L386.431 51.32L386.631 50.04H393.751V50.28C393.085 51.2666 392.751 53.9066 392.751 58.2L392.711 75.8H393.271C395.191 75.8 396.805 74.9466 398.111 73.24C399.445 71.5066 400.111 69.52 400.111 67.28C400.111 65.2266 399.658 63.8133 398.751 63.04C397.871 62.24 396.538 61.8933 394.751 62L394.591 61.04C396.031 60.4266 397.431 60.1066 398.791 60.08C400.151 60.0266 401.338 60.2533 402.351 60.76C403.365 61.2666 404.178 62.08 404.791 63.2C405.405 64.2933 405.711 65.6133 405.711 67.16ZM412.711 58.16L412.671 69.92C412.671 71.5466 412.791 72.96 413.031 74.16C413.298 75.36 413.578 76.1066 413.871 76.4L414.271 76.8L414.071 78.04H406.751V77.84C407.471 76.64 407.831 74 407.831 69.92V58.16C407.831 56.5333 407.711 55.1333 407.471 53.96C407.258 52.76 407.018 52.0133 406.751 51.72L406.391 51.28L406.591 50.04H413.711V50.28C413.045 51.2666 412.711 53.8933 412.711 58.16ZM424.747 58.16V65.52V68.76H424.827L439.587 48.68L440.867 49.08C440.2 50.8133 439.867 53.8266 439.867 58.12V69.92C439.867 73.4933 440.334 75.7466 441.267 76.68L441.427 76.8L441.227 78.04H433.947V77.8C434.64 76.6266 434.987 74 434.987 69.92V62.64V60.36H434.907L420.187 78.92L418.867 78.52C419.534 76.7866 419.867 73.7733 419.867 69.48V58.16C419.867 56.5333 419.734 55.12 419.467 53.92C419.227 52.72 418.96 51.9733 418.667 51.68L418.267 51.28L418.467 50.04H425.787V50.28C425.094 51.4533 424.747 54.08 424.747 58.16ZM436.787 43.64L437.507 44.52C435.987 46.2 434.36 47.3066 432.627 47.84C430.6 48.4266 427.84 48.0266 424.347 46.64L427.147 42.28H427.387C428.667 43.3733 429.92 44.12 431.147 44.52C432.374 44.92 433.427 45.0266 434.307 44.84C435.214 44.6533 436.04 44.2533 436.787 43.64ZM18.34 86.36L8.21995 86.88V103.88C8.21995 105.507 8.33995 106.92 8.57995 108.12C8.84662 109.32 9.12662 110.067 9.41995 110.36L9.81995 110.76L9.57995 112.04H2.25995V111.8C2.97995 110.627 3.33995 107.987 3.33995 103.88V92.2C3.33995 90.5733 3.21995 89.16 2.97995 87.96C2.76662 86.76 2.52662 86.0133 2.25995 85.72L1.89995 85.32L2.09995 84.04H24.22V84.28C23.6066 85.2666 23.2733 87.9066 23.22 92.2L23.18 103.88C23.18 105.507 23.3 106.92 23.54 108.12C23.8066 109.32 24.0866 110.067 24.38 110.36L24.78 110.76L24.58 112.04H17.26V111.8C17.9533 110.627 18.3 107.987 18.3 103.88L18.34 86.36ZM27.7843 98.16C27.7843 94.1866 29.0243 90.72 31.5043 87.76C34.0377 84.8 37.0377 83.32 40.5043 83.32C44.131 83.32 47.1043 84.6133 49.4243 87.2C51.7443 89.76 52.9043 93.3066 52.9043 97.84C52.9043 101.893 51.6243 105.387 49.0643 108.32C46.5577 111.227 43.5977 112.68 40.1843 112.68C36.691 112.68 33.7443 111.413 31.3443 108.88C28.971 106.293 27.7843 102.72 27.7843 98.16ZM47.3843 98.12C47.3843 94.44 46.7177 91.4933 45.3843 89.28C44.051 87.0666 42.2643 85.96 40.0243 85.96C38.1577 85.96 36.5577 87.0666 35.2243 89.28C33.9443 91.4666 33.3043 94.3333 33.3043 97.88C33.3043 101.613 33.9577 104.547 35.2643 106.68C36.5977 108.813 38.3843 109.88 40.6243 109.88C42.491 109.88 44.0777 108.787 45.3843 106.6C46.7177 104.387 47.3843 101.56 47.3843 98.12ZM56.4396 85.72L56.0796 85.32L56.2796 84.04H63.3996V84.28C62.733 85.2666 62.3996 87.9066 62.3996 92.2V95.96L72.9596 95.4V92.2C72.9596 88.5466 72.5463 86.3066 71.7196 85.48L71.5596 85.32L71.7596 84.04H78.8396V84.28C78.1996 85.2933 77.8796 87.9333 77.8796 92.2L77.8396 103.88C77.8396 105.507 77.9596 106.92 78.1996 108.12C78.4663 109.32 78.7463 110.067 79.0396 110.36L79.4396 110.76L79.2396 112.04H71.9196V111.8C72.613 110.627 72.9596 107.987 72.9596 103.88V98.72H62.3996V103.88C62.3996 105.32 62.493 106.573 62.6796 107.64C62.8663 108.68 63.053 109.4 63.2396 109.8C63.4263 110.2 63.613 110.467 63.7996 110.6L63.9596 110.76L63.7596 112.04H56.4396V111.8C57.1596 110.627 57.5196 107.987 57.5196 103.88V92.2C57.5196 90.5733 57.3996 89.16 57.1596 87.96C56.9463 86.76 56.7063 86.0133 56.4396 85.72ZM102.942 106.8L100.862 112.04H83.8225V111.8C84.5425 110.627 84.9025 108 84.9025 103.92V92.12C84.9025 91.1333 84.8625 90.2533 84.7825 89.48C84.7291 88.7066 84.6225 88.08 84.4625 87.6C84.3291 87.12 84.2091 86.7466 84.1025 86.48C83.9958 86.2133 83.8625 85.96 83.7025 85.72C83.5691 85.4533 83.4891 85.2933 83.4625 85.24L83.6625 84H90.3025C94.9691 84 98.1158 83.88 99.7425 83.64L100.542 83.52L101.222 84.2L99.3825 88.4H99.1025C98.7025 88.16 98.3291 87.9733 97.9825 87.84C97.4225 87.6 96.3691 87.3333 94.8225 87.04C93.2758 86.6933 91.5958 86.56 89.7825 86.64V96.2C91.6491 96.0666 93.2091 95.88 94.4625 95.64C95.9558 95.3733 96.9958 95.1333 97.5825 94.92L98.5425 94.6L99.2625 95.24L97.7425 98.88H89.7825V109.32C92.3158 109.293 94.6625 109 96.8225 108.44C98.7958 107.933 100.169 107.427 100.942 106.92L101.982 106.16L102.942 106.8ZM118.082 112.04H102.322V111.84L116.482 82.96H117.322C119.935 93.8666 121.655 100.84 122.482 103.88C123.068 106.013 123.655 107.64 124.242 108.76L126.402 108.68L126.642 109L123.562 116.92H122.002C122.135 116.6 122.188 116.04 122.162 115.24C122.162 113.107 120.802 112.04 118.082 112.04ZM114.802 92.12L107.442 109.36L118.362 109L116.242 98.64L114.922 92.12H114.802ZM147.942 106.8L145.862 112.04H128.822V111.8C129.542 110.627 129.902 108 129.902 103.92V92.12C129.902 91.1333 129.862 90.2533 129.782 89.48C129.729 88.7066 129.622 88.08 129.462 87.6C129.329 87.12 129.209 86.7466 129.102 86.48C128.996 86.2133 128.862 85.96 128.702 85.72C128.569 85.4533 128.489 85.2933 128.462 85.24L128.662 84H135.302C139.969 84 143.116 83.88 144.742 83.64L145.542 83.52L146.222 84.2L144.382 88.4H144.102C143.702 88.16 143.329 87.9733 142.982 87.84C142.422 87.6 141.369 87.3333 139.822 87.04C138.276 86.6933 136.596 86.56 134.782 86.64V96.2C136.649 96.0666 138.209 95.88 139.462 95.64C140.956 95.3733 141.996 95.1333 142.582 94.92L143.542 94.6L144.262 95.24L142.742 98.88H134.782V109.32C137.316 109.293 139.662 109 141.822 108.44C143.796 107.933 145.169 107.427 145.942 106.92L146.982 106.16L147.942 106.8ZM163.762 107.72L160.322 91.6H160.202L154.642 106C153.842 107.947 153.708 109.48 154.242 110.6L154.362 110.8L154.162 112.04H147.322V111.8C148.042 111.08 148.668 110.187 149.202 109.12L161.922 82.96H162.762L168.162 103.92C169.015 107.147 170.122 109.44 171.482 110.8L171.282 112.04H163.242V111.8C163.908 110.653 164.082 109.293 163.762 107.72ZM193.177 101.16C193.177 103.56 192.323 105.867 190.617 108.08C189.737 109.227 188.497 110.16 186.897 110.88C185.323 111.6 183.55 111.987 181.577 112.04H174.057V111.8C174.75 110.627 175.097 108 175.097 103.92L175.137 92.2C175.137 90.6 175.017 89.2133 174.777 88.04C174.563 86.84 174.323 86.0666 174.057 85.72L173.697 85.32L173.897 84.04H181.017V84.28C180.35 85.2666 180.017 87.9066 180.017 92.2L179.977 109.8H180.737C182.657 109.8 184.27 108.947 185.577 107.24C186.91 105.507 187.577 103.52 187.577 101.28C187.577 99.2533 187.097 97.84 186.137 97.04C185.203 96.24 183.83 95.8933 182.017 96L181.857 95.04C183.297 94.4266 184.697 94.1066 186.057 94.08C187.443 94.0266 188.657 94.2533 189.697 94.76C190.763 95.2666 191.603 96.08 192.217 97.2C192.857 98.2933 193.177 99.6133 193.177 101.16ZM196.088 85.72L195.728 85.32L195.928 84.04H203.048V84.28C202.381 85.2666 202.048 87.9066 202.048 92.2V95.96L212.608 95.4V92.2C212.608 88.5466 212.195 86.3066 211.368 85.48L211.208 85.32L211.408 84.04H218.488V84.28C217.848 85.2933 217.528 87.9333 217.528 92.2L217.488 103.88C217.488 105.507 217.608 106.92 217.848 108.12C218.115 109.32 218.395 110.067 218.688 110.36L219.088 110.76L218.888 112.04H211.568V111.8C212.261 110.627 212.608 107.987 212.608 103.88V98.72H202.048V103.88C202.048 105.32 202.141 106.573 202.328 107.64C202.515 108.68 202.701 109.4 202.888 109.8C203.075 110.2 203.261 110.467 203.448 110.6L203.608 110.76L203.408 112.04H196.088V111.8C196.808 110.627 197.168 107.987 197.168 103.88V92.2C197.168 90.5733 197.048 89.16 196.808 87.96C196.595 86.76 196.355 86.0133 196.088 85.72ZM229.591 92.16V99.52V102.76H229.671L244.431 82.68L245.711 83.08C245.044 84.8133 244.711 87.8266 244.711 92.12V103.92C244.711 107.493 245.178 109.747 246.111 110.68L246.271 110.8L246.071 112.04H238.791V111.8C239.484 110.627 239.831 108 239.831 103.92V96.64V94.36H239.751L225.031 112.92L223.711 112.52C224.378 110.787 224.711 107.773 224.711 103.48V92.16C224.711 90.5333 224.578 89.12 224.311 87.92C224.071 86.72 223.804 85.9733 223.511 85.68L223.111 85.28L223.311 84.04H230.631V84.28C229.938 85.4533 229.591 88.08 229.591 92.16ZM251.698 103.88L251.738 92.2C251.738 90.5733 251.618 89.16 251.378 87.96C251.165 86.76 250.925 86.0133 250.658 85.72L250.298 85.32L250.498 84.04H257.618V84.28C256.952 85.2666 256.618 87.9066 256.618 92.2L256.578 103.88C256.578 105.507 256.698 106.92 256.938 108.12C257.205 109.32 257.485 110.067 257.778 110.36L258.178 110.76L257.978 112.04H250.658V111.8C251.352 110.627 251.698 107.987 251.698 103.88ZM272.858 110.76L272.658 112.04H266.138C264.912 107.587 263.525 104.133 261.978 101.68C260.458 99.2266 258.992 98.0133 257.578 98.04L257.378 97.24C263.032 90.6 265.205 86.6266 263.898 85.32L264.098 84.04H271.298V84.28C270.845 84.8933 269.152 86.9066 266.218 90.32C263.392 93.5733 261.698 95.5733 261.138 96.32H264.018C265.298 97.76 266.498 99.52 267.618 101.6C268.072 102.427 268.712 103.667 269.538 105.32C270.392 106.947 271.058 108.173 271.538 109C272.018 109.8 272.458 110.387 272.858 110.76Z" fill="white"/>
</svg>
