<svg width="281" height="122" viewBox="0 0 281 122" fill="none" xmlns="http://www.w3.org/2000/svg">
<g style="mix-blend-mode:difference">
<path d="M34.9648 33.972H28.1248V33.744C28.5554 32.5533 28.6694 30.058 28.4668 26.258L27.8968 19.798L27.7448 17.822H27.6688L20.9048 31.806H20.1828L14.5968 18.202H14.5208L11.5568 27.816C11.3034 28.6013 11.1768 29.3233 11.1768 29.982C11.1768 30.6407 11.2274 31.122 11.3288 31.426C11.4554 31.73 11.6074 32.034 11.7848 32.338C11.9874 32.6167 12.0888 32.7687 12.0888 32.794L11.8988 33.972H5.32477V33.744C5.55277 33.516 5.9581 32.8953 6.54077 31.882C7.14877 30.7673 7.6301 29.7287 7.98477 28.766L13.0388 14.706L12.2408 12.73C11.3541 10.6273 10.4421 9.23398 9.50477 8.54998L9.73277 7.37198H15.4328L20.8668 21.014L21.8928 23.522H22.0448L30.4808 6.38398H31.3928L33.0648 26.258C33.3434 29.526 33.9894 31.6667 35.0028 32.68L35.1548 32.794L34.9648 33.972ZM50.4032 7.37198H57.3192V7.59998C56.5338 8.76532 55.1152 11.286 53.0632 15.162L52.1512 16.91L51.1632 18.81L50.1752 20.634L49.1872 22.572C48.2752 24.4467 47.7432 25.612 47.5912 26.068C46.8565 28.0693 46.4892 29.336 46.4892 29.868C46.4892 30.5013 46.5905 31.0713 46.7932 31.578C46.9958 32.0847 47.2238 32.4267 47.4772 32.604L47.7812 32.794L47.6292 33.972H40.1432V33.744C41.9925 31.3373 43.5885 28.6647 44.9312 25.726H42.6892C40.5358 19.6207 38.9018 15.314 37.7872 12.806C36.9005 10.83 36.0898 9.52532 35.3552 8.89198L34.9752 8.54998L35.1272 7.37198H41.5492V7.56198C41.7518 8.47398 42.0812 9.67732 42.5372 11.172C43.2972 13.604 44.0192 15.7067 44.7032 17.48L46.6032 22.344H46.6792L49.2252 17.404C50.5425 14.8707 51.2012 12.7047 51.2012 10.906C51.2012 10.3993 51.1252 9.94332 50.9732 9.53798C50.8212 9.10732 50.6565 8.84132 50.4792 8.73998L50.2512 8.54998L50.4032 7.37198ZM75.5022 7.37198L75.6542 7.82798C71.9302 10.7667 70.0682 13.1607 70.0682 15.01C70.0682 15.8713 70.8915 17.2267 72.5382 19.076C74.2102 20.8493 75.0462 22.7113 75.0462 24.662C75.0462 27.5247 74.0455 29.8807 72.0442 31.73C70.0428 33.5793 67.9528 34.504 65.7742 34.504C64.0515 34.504 62.3542 33.9973 60.6822 32.984C59.7448 32.4267 58.9342 31.54 58.2502 30.324C57.5915 29.0827 57.1482 27.6387 56.9202 25.992L60.8722 24.852C60.8975 26.6 61.3282 28.196 62.1642 29.64C62.9748 31.0587 64.0388 31.768 65.3562 31.768C66.5215 31.768 67.5602 31.274 68.4722 30.286C69.3842 29.2473 69.8402 28.006 69.8402 26.562C69.8402 24.4593 69.0802 22.458 67.5602 20.558C66.4962 19.114 65.5462 18.0373 64.7102 17.328V17.024L69.9922 10.26C67.7122 10.3867 65.6222 10.6653 63.7222 11.096C61.7208 11.552 60.3022 11.9827 59.4662 12.388L58.1742 12.958L57.2622 12.388L59.3142 7.37198H75.5022ZM96.7537 23.636C96.7537 25.916 95.943 28.1073 94.3217 30.21C93.4857 31.2993 92.3077 32.186 90.7877 32.87C89.293 33.554 87.6083 33.9213 85.7337 33.972H78.7797V33.744C79.4383 32.6293 79.7677 30.134 79.7677 26.258L79.8057 15.124C79.8057 13.604 79.6917 12.2866 79.4637 11.172C79.261 10.032 79.033 9.29732 78.7797 8.96798L78.4377 8.58798L78.6277 7.37198H85.3917V7.59998C84.7583 8.53732 84.4417 11.0453 84.4417 15.124L84.4037 31.844H84.9357C86.7597 31.844 88.2923 31.0333 89.5337 29.412C90.8003 27.7653 91.4337 25.878 91.4337 23.75C91.4337 21.7993 91.003 20.4567 90.1417 19.722C89.3057 18.962 88.039 18.6327 86.3417 18.734L86.1897 17.822C87.5577 17.2393 88.8877 16.9353 90.1797 16.91C91.4717 16.8593 92.599 17.0747 93.5617 17.556C94.5243 18.0373 95.297 18.81 95.8797 19.874C96.4623 20.9127 96.7537 22.1667 96.7537 23.636ZM103.404 15.086L103.366 26.258C103.366 27.8033 103.48 29.146 103.708 30.286C103.961 31.426 104.227 32.1353 104.506 32.414L104.886 32.794L104.696 33.972H97.7417V33.782C98.4257 32.642 98.7677 30.134 98.7677 26.258V15.086C98.7677 13.5407 98.6537 12.2107 98.4257 11.096C98.223 9.95598 97.995 9.24665 97.7417 8.96798L97.3997 8.54998L97.5897 7.37198H104.354V7.59998C103.72 8.53732 103.404 11.0327 103.404 15.086ZM110.012 26.22L110.05 15.124C110.05 13.5787 109.936 12.236 109.708 11.096C109.505 9.95598 109.277 9.24665 109.024 8.96798L108.682 8.58798L108.872 7.37198H115.636V7.59998C115.002 8.53732 114.686 11.0453 114.686 15.124L114.648 26.22C114.648 27.7653 114.762 29.108 114.99 30.248C115.243 31.388 115.509 32.0973 115.788 32.376L116.168 32.756L115.978 33.972H109.024V33.744C109.682 32.6293 110.012 30.1213 110.012 26.22ZM130.114 32.756L129.924 33.972H123.73C122.564 29.7413 121.247 26.4607 119.778 24.13C118.334 21.7993 116.94 20.6467 115.598 20.672L115.408 19.912C120.778 13.604 122.843 9.82932 121.602 8.58798L121.792 7.37198H128.632V7.59998C128.201 8.18265 126.592 10.0953 123.806 13.338C121.12 16.4287 119.512 18.3287 118.98 19.038H121.716C122.932 20.406 124.072 22.078 125.136 24.054C125.566 24.8393 126.174 26.0173 126.96 27.588C127.77 29.1333 128.404 30.2987 128.86 31.084C129.316 31.844 129.734 32.4013 130.114 32.756ZM147.134 29.868L146.374 26.676H138.28L137.672 28.196C136.912 30.0707 136.798 31.54 137.33 32.604L137.444 32.794L137.254 33.972H130.68V33.744C131.39 33.0347 132.01 32.186 132.542 31.198L145.006 6.34598H145.804L151.314 26.258C152.201 29.3993 153.252 31.578 154.468 32.794L154.278 33.972H146.64V33.744C147.274 32.6547 147.438 31.3627 147.134 29.868ZM144.132 17.252L143.486 14.554H143.372L139.382 24.092L145.69 23.864L144.132 17.252ZM170.642 29.868L167.374 14.554H167.26L161.978 28.234C161.218 30.0833 161.091 31.54 161.598 32.604L161.712 32.794L161.522 33.972H155.024V33.744C155.708 33.06 156.303 32.2113 156.81 31.198L168.894 6.34598H169.692L174.822 26.258C175.633 29.3233 176.684 31.502 177.976 32.794L177.786 33.972H170.148V33.744C170.781 32.6547 170.946 31.3627 170.642 29.868ZM198.586 23.636C198.586 25.916 197.776 28.1073 196.154 30.21C195.318 31.2993 194.14 32.186 192.62 32.87C191.126 33.554 189.441 33.9213 187.566 33.972H180.422V33.744C181.081 32.6293 181.41 30.134 181.41 26.258L181.448 15.124C181.448 13.604 181.334 12.2866 181.106 11.172C180.904 10.032 180.676 9.29732 180.422 8.96798L180.08 8.58798L180.27 7.37198H187.034V7.59998C186.401 8.53732 186.084 11.0453 186.084 15.124L186.046 31.844H186.768C188.592 31.844 190.125 31.0333 191.366 29.412C192.633 27.7653 193.266 25.878 193.266 23.75C193.266 21.8247 192.81 20.482 191.898 19.722C191.012 18.962 189.707 18.6327 187.984 18.734L187.832 17.822C189.2 17.2393 190.53 16.9353 191.822 16.91C193.14 16.8593 194.292 17.0747 195.28 17.556C196.294 18.0373 197.092 18.81 197.674 19.874C198.282 20.9127 198.586 22.1667 198.586 23.636ZM201.352 8.96798L201.01 8.58798L201.2 7.37198H207.964V7.59998C207.331 8.53732 207.014 11.0453 207.014 15.124V18.696L217.046 18.164V15.124C217.046 11.6533 216.653 9.52532 215.868 8.73998L215.716 8.58798L215.906 7.37198H222.632V7.59998C222.024 8.56265 221.72 11.0707 221.72 15.124L221.682 26.22C221.682 27.7653 221.796 29.108 222.024 30.248C222.277 31.388 222.543 32.0973 222.822 32.376L223.202 32.756L223.012 33.972H216.058V33.744C216.717 32.6293 217.046 30.1213 217.046 26.22V21.318H207.014V26.22C207.014 27.588 207.103 28.7787 207.28 29.792C207.457 30.78 207.635 31.464 207.812 31.844C207.989 32.224 208.167 32.4773 208.344 32.604L208.496 32.756L208.306 33.972H201.352V33.744C202.036 32.6293 202.378 30.1213 202.378 26.22V15.124C202.378 13.5787 202.264 12.236 202.036 11.096C201.833 9.95598 201.605 9.24665 201.352 8.96798ZM245.34 23.636C245.34 25.916 244.529 28.1073 242.908 30.21C242.072 31.2993 240.894 32.186 239.374 32.87C237.879 33.554 236.194 33.9213 234.32 33.972H227.366V33.744C228.024 32.6293 228.354 30.134 228.354 26.258L228.392 15.124C228.392 13.604 228.278 12.2866 228.05 11.172C227.847 10.032 227.619 9.29732 227.366 8.96798L227.024 8.58798L227.214 7.37198H233.978V7.59998C233.344 8.53732 233.028 11.0453 233.028 15.124L232.99 31.844H233.522C235.346 31.844 236.878 31.0333 238.12 29.412C239.386 27.7653 240.02 25.878 240.02 23.75C240.02 21.7993 239.589 20.4567 238.728 19.722C237.892 18.962 236.625 18.6327 234.928 18.734L234.776 17.822C236.144 17.2393 237.474 16.9353 238.766 16.91C240.058 16.8593 241.185 17.0747 242.148 17.556C243.11 18.0373 243.883 18.81 244.466 19.874C245.048 20.9127 245.34 22.1667 245.34 23.636ZM251.99 15.086L251.952 26.258C251.952 27.8033 252.066 29.146 252.294 30.286C252.547 31.426 252.813 32.1353 253.092 32.414L253.472 32.794L253.282 33.972H246.328V33.782C247.012 32.642 247.354 30.134 247.354 26.258V15.086C247.354 13.5407 247.24 12.2107 247.012 11.096C246.809 9.95598 246.581 9.24665 246.328 8.96798L245.986 8.54998L246.176 7.37198H252.94V7.59998C252.306 8.53732 251.99 11.0327 251.99 15.086ZM263.424 15.086V22.078V25.156H263.5L277.522 6.07998L278.738 6.45998C278.104 8.10665 277.788 10.9693 277.788 15.048V26.258C277.788 29.6527 278.231 31.7933 279.118 32.68L279.27 32.794L279.08 33.972H272.164V33.744C272.822 32.6293 273.152 30.134 273.152 26.258V19.342V17.176H273.076L259.092 34.808L257.838 34.428C258.471 32.7813 258.788 29.9187 258.788 25.84V15.086C258.788 13.5407 258.661 12.198 258.408 11.058C258.18 9.91798 257.926 9.20865 257.648 8.92998L257.268 8.54998L257.458 7.37198H264.412V7.59998C263.753 8.71465 263.424 11.21 263.424 15.086ZM274.862 1.29198L275.546 2.12798C274.102 3.72398 272.556 4.77532 270.91 5.28198C268.984 5.83932 266.362 5.45932 263.044 4.14198L265.704 -1.71661e-05H265.932C267.148 1.03865 268.338 1.74798 269.504 2.12798C270.669 2.50798 271.67 2.60932 272.506 2.43198C273.367 2.25465 274.152 1.87465 274.862 1.29198ZM21.65 71.572L20.65 67.372H10L9.2 69.372C8.2 71.8387 8.05 73.772 8.75 75.172L8.9 75.422L8.65 76.972H1.76951e-08V76.672C0.933333 75.7387 1.75 74.622 2.45 73.322L18.85 40.622H19.9L27.15 66.822C28.3167 70.9553 29.7 73.822 31.3 75.422L31.05 76.972H21V76.672C21.8333 75.2387 22.05 73.5387 21.65 71.572ZM17.7 54.972L16.85 51.422H16.7L11.45 63.972L19.75 63.672L17.7 54.972ZM52.5813 71.572L48.2813 51.422H48.1313L41.1813 69.422C40.1813 71.8553 40.0146 73.772 40.6813 75.172L40.8313 75.422L40.5813 76.972H32.0313V76.672C32.9313 75.772 33.7146 74.6553 34.3813 73.322L50.2813 40.622H51.3313L58.0813 66.822C59.1479 70.8553 60.5313 73.722 62.2313 75.422L61.9813 76.972H51.9313V76.672C52.7646 75.2387 52.9813 73.5387 52.5813 71.572ZM89.35 63.372C89.35 66.372 88.2833 69.2553 86.15 72.022C85.05 73.4553 83.5 74.622 81.5 75.522C79.5333 76.422 77.3167 76.9053 74.85 76.972H65.45V76.672C66.3167 75.2053 66.75 71.922 66.75 66.822L66.8 52.172C66.8 50.172 66.65 48.4386 66.35 46.972C66.0833 45.472 65.7833 44.5053 65.45 44.072L65 43.572L65.25 41.972H74.15V42.272C73.3167 43.5053 72.9 46.8053 72.9 52.172L72.85 74.172H73.8C76.2 74.172 78.2167 73.1053 79.85 70.972C81.5167 68.8053 82.35 66.322 82.35 63.522C82.35 60.9887 81.75 59.222 80.55 58.222C79.3833 57.222 77.6667 56.7887 75.4 56.922L75.2 55.722C77 54.9553 78.75 54.5553 80.45 54.522C82.1833 54.4553 83.7 54.7387 85 55.372C86.3333 56.0053 87.3833 57.022 88.15 58.422C88.95 59.7887 89.35 61.4387 89.35 63.372ZM100.589 45.222L100.389 74.272H101.339C103.739 74.272 105.839 73.1887 107.639 71.022C109.472 68.8553 110.389 66.372 110.389 63.572C110.389 58.8053 107.906 56.6053 102.939 56.972L102.739 55.772C104.639 54.9387 106.589 54.522 108.589 54.522C111.156 54.522 113.256 55.322 114.889 56.922C116.522 58.522 117.339 60.6887 117.339 63.422C117.339 64.5553 117.156 65.722 116.789 66.922C116.456 68.122 115.872 69.322 115.039 70.522C114.239 71.722 113.256 72.8053 112.089 73.772C110.956 74.7053 109.489 75.472 107.689 76.072C105.922 76.672 103.972 76.972 101.839 76.972H92.9891V76.672C93.7891 75.072 94.2224 71.772 94.2891 66.772L94.3391 52.172C94.3391 47.6387 93.7724 44.8053 92.6391 43.672L92.5391 43.572L92.7891 41.972H105.939C107.939 41.972 109.756 41.9053 111.389 41.772C113.322 41.6053 114.389 41.4886 114.589 41.422L115.489 42.222L112.839 47.872H112.489C109.022 45.9053 105.056 45.022 100.589 45.222ZM120.842 59.622C120.842 54.6553 122.392 50.322 125.492 46.622C128.658 42.922 132.408 41.072 136.742 41.072C141.275 41.072 144.992 42.6886 147.892 45.922C150.792 49.122 152.242 53.5553 152.242 59.222C152.242 64.2887 150.642 68.6553 147.442 72.322C144.308 75.9553 140.608 77.772 136.342 77.772C131.975 77.772 128.292 76.1887 125.292 73.022C122.325 69.7887 120.842 65.322 120.842 59.622ZM145.342 59.572C145.342 54.972 144.508 51.2887 142.842 48.522C141.175 45.7553 138.942 44.372 136.142 44.372C133.808 44.372 131.808 45.7553 130.142 48.522C128.542 51.2553 127.742 54.8387 127.742 59.272C127.742 63.9387 128.558 67.6053 130.192 70.272C131.858 72.9387 134.092 74.272 136.892 74.272C139.225 74.272 141.208 72.9053 142.842 70.172C144.508 67.4053 145.342 63.872 145.342 59.572ZM191.49 76.972H182.49V76.672C183.057 75.1053 183.207 71.822 182.94 66.822L182.19 58.322L181.99 55.722H181.89L172.99 74.122H172.04L164.69 56.222H164.59L160.69 68.872C160.357 69.9053 160.19 70.8553 160.19 71.722C160.19 72.5887 160.257 73.222 160.39 73.622C160.557 74.022 160.757 74.422 160.99 74.822C161.257 75.1887 161.39 75.3887 161.39 75.422L161.14 76.972H152.49V76.672C152.79 76.372 153.324 75.5553 154.09 74.222C154.89 72.7553 155.524 71.3887 155.99 70.122L162.64 51.622L161.59 49.022C160.424 46.2553 159.224 44.422 157.99 43.522L158.29 41.972H165.79L172.94 59.922L174.29 63.222H174.49L185.59 40.672H186.79L188.99 66.822C189.357 71.122 190.207 73.9387 191.54 75.272L191.74 75.422L191.49 76.972ZM229.056 44.872L216.406 45.522V66.772C216.406 68.8053 216.556 70.572 216.856 72.072C217.189 73.572 217.539 74.5053 217.906 74.872L218.406 75.372L218.106 76.972H208.956V76.672C209.856 75.2053 210.306 71.9053 210.306 66.772V52.172C210.306 50.1386 210.156 48.372 209.856 46.872C209.589 45.372 209.289 44.4387 208.956 44.072L208.506 43.572L208.756 41.972H236.406V42.272C235.639 43.5053 235.223 46.8053 235.156 52.172L235.106 66.772C235.106 68.8053 235.256 70.572 235.556 72.072C235.889 73.572 236.239 74.5053 236.606 74.872L237.106 75.372L236.856 76.972H227.706V76.672C228.573 75.2053 229.006 71.9053 229.006 66.772L229.056 44.872ZM240.861 59.622C240.861 54.6553 242.411 50.322 245.511 46.622C248.678 42.922 252.428 41.072 256.761 41.072C261.295 41.072 265.011 42.6886 267.911 45.922C270.811 49.122 272.261 53.5553 272.261 59.222C272.261 64.2887 270.661 68.6553 267.461 72.322C264.328 75.9553 260.628 77.772 256.361 77.772C251.995 77.772 248.311 76.1887 245.311 73.022C242.345 69.7887 240.861 65.322 240.861 59.622ZM265.361 59.572C265.361 54.972 264.528 51.2887 262.861 48.522C261.195 45.7553 258.961 44.372 256.161 44.372C253.828 44.372 251.828 45.7553 250.161 48.522C248.561 51.2553 247.761 54.8387 247.761 59.272C247.761 63.9387 248.578 67.6053 250.211 70.272C251.878 72.9387 254.111 74.272 256.911 74.272C259.245 74.272 261.228 72.9053 262.861 70.172C264.528 67.4053 265.361 63.872 265.361 59.572ZM23.3889 100.172V100.272C26.2555 100.272 28.4889 100.955 30.0889 102.322C31.7222 103.689 32.5389 105.589 32.5389 108.022C32.5389 111.222 31.0889 114.022 28.1889 116.422C25.3222 118.789 21.5389 119.972 16.8389 119.972H6.53887V119.672C7.40553 118.205 7.83887 114.905 7.83887 109.772L7.88887 95.172C7.88887 93.1386 7.73887 91.372 7.43887 89.872C7.1722 88.372 6.8722 87.4387 6.53887 87.072L6.08887 86.572L6.33887 84.972H16.0389C20.9055 84.972 24.3722 85.4886 26.4389 86.522C28.5389 87.522 29.5889 89.2553 29.5889 91.722C29.5889 93.422 28.9389 95.1053 27.6389 96.772C26.3055 98.4387 24.8889 99.572 23.3889 100.172ZM13.9389 116.772H15.2889C17.9555 116.772 20.3222 115.939 22.3889 114.272C24.4555 112.572 25.4889 110.439 25.4889 107.872C25.4889 105.672 24.7889 104.105 23.3889 103.172C21.9889 102.205 19.8389 101.722 16.9389 101.722L16.7389 100.722C18.2722 100.289 19.6389 99.322 20.8389 97.822C22.0389 96.2553 22.6389 94.6553 22.6389 93.022C22.6389 90.922 22.0222 89.5553 20.7889 88.922C19.5889 88.222 17.3222 87.872 13.9889 87.872L13.9389 116.772ZM58.2018 106.322L62.5018 107.322C62.2684 108.855 61.8351 110.372 61.2018 111.872C60.5684 113.339 59.7351 114.739 58.7018 116.072C57.7018 117.405 56.4351 118.489 54.9018 119.322C53.3684 120.122 51.6851 120.522 49.8518 120.522C45.5518 120.522 42.2018 119.089 39.8018 116.222C37.4018 113.355 36.1518 109.272 36.0518 103.972C35.9851 99.0387 37.3018 94.6386 40.0018 90.772C41.3351 88.8387 43.1684 87.322 45.5018 86.222C47.8351 85.0886 50.4351 84.522 53.3018 84.522L60.3518 84.972L57.9518 95.472L56.4018 95.222C56.4018 94.422 56.3351 93.5553 56.2018 92.622C55.8018 89.4886 54.2684 87.8553 51.6018 87.722C49.0684 87.722 46.9851 89.1886 45.3518 92.122C43.7518 95.0553 42.9518 98.7387 42.9518 103.172C42.9518 107.205 43.6851 110.405 45.1518 112.772C46.6184 115.105 48.5684 116.272 51.0018 116.272C53.3018 116.272 55.1018 115.172 56.4018 112.972C57.7351 110.772 58.3351 108.555 58.2018 106.322ZM89.5697 113.422L86.9697 119.972H65.6697V119.672C66.5697 118.205 67.0197 114.922 67.0197 109.822V95.072C67.0197 93.8387 66.9697 92.7387 66.8697 91.772C66.8031 90.8053 66.6697 90.022 66.4697 89.422C66.3031 88.822 66.1531 88.3553 66.0197 88.022C65.8864 87.6886 65.7197 87.372 65.5197 87.072C65.3531 86.7386 65.2531 86.5386 65.2197 86.472L65.4697 84.922H73.7697C79.6031 84.922 83.5364 84.772 85.5697 84.472L86.5697 84.322L87.4197 85.172L85.1197 90.422H84.7697C84.2697 90.122 83.8031 89.8887 83.3697 89.722C82.6697 89.422 81.3531 89.0887 79.4197 88.722C77.4864 88.2887 75.3864 88.122 73.1197 88.222V100.172C75.4531 100.005 77.4031 99.772 78.9697 99.472C80.8364 99.1387 82.1364 98.8387 82.8697 98.572L84.0697 98.172L84.9697 98.972L83.0697 103.522H73.1197V116.572C76.2864 116.539 79.2197 116.172 81.9197 115.472C84.3864 114.839 86.1031 114.205 87.0697 113.572L88.3697 112.622L89.5697 113.422ZM109.344 114.572L105.044 94.422H104.894L97.9439 112.422C96.9439 114.855 96.7773 116.772 97.4439 118.172L97.5939 118.422L97.3439 119.972H88.7939V119.672C89.6939 118.772 90.4773 117.655 91.1439 116.322L107.044 83.622H108.094L114.844 109.822C115.911 113.855 117.294 116.722 118.994 118.422L118.744 119.972H108.694V119.672C109.527 118.239 109.744 116.539 109.344 114.572ZM146.113 113.422L143.513 119.972H122.213V119.672C123.113 118.205 123.563 114.922 123.563 109.822V95.072C123.563 93.8387 123.513 92.7387 123.413 91.772C123.346 90.8053 123.213 90.022 123.013 89.422C122.846 88.822 122.696 88.3553 122.563 88.022C122.429 87.6886 122.263 87.372 122.063 87.072C121.896 86.7386 121.796 86.5386 121.763 86.472L122.013 84.922H130.313C136.146 84.922 140.079 84.772 142.113 84.472L143.113 84.322L143.963 85.172L141.663 90.422H141.313C140.813 90.122 140.346 89.8887 139.913 89.722C139.213 89.422 137.896 89.0887 135.963 88.722C134.029 88.2887 131.929 88.122 129.663 88.222V100.172C131.996 100.005 133.946 99.772 135.513 99.472C137.379 99.1387 138.679 98.8387 139.413 98.572L140.613 98.172L141.513 98.972L139.613 103.522H129.663V116.572C132.829 116.539 135.763 116.172 138.463 115.472C140.929 114.839 142.646 114.205 143.613 113.572L144.913 112.622L146.113 113.422ZM149.312 87.072L148.862 86.572L149.112 84.972H158.012V85.272C157.179 86.5053 156.762 89.8053 156.762 95.172V99.872L169.962 99.172V95.172C169.962 90.6053 169.446 87.8053 168.412 86.772L168.212 86.572L168.462 84.972H177.312V85.272C176.512 86.5387 176.112 89.8387 176.112 95.172L176.062 109.772C176.062 111.805 176.212 113.572 176.512 115.072C176.846 116.572 177.196 117.505 177.562 117.872L178.062 118.372L177.812 119.972H168.662V119.672C169.529 118.205 169.962 114.905 169.962 109.772V103.322H156.762V109.772C156.762 111.572 156.879 113.139 157.112 114.472C157.346 115.772 157.579 116.672 157.812 117.172C158.046 117.672 158.279 118.005 158.512 118.172L158.712 118.372L158.462 119.972H149.312V119.672C150.212 118.205 150.662 114.905 150.662 109.772V95.172C150.662 93.1386 150.512 91.372 150.212 89.872C149.946 88.372 149.646 87.4387 149.312 87.072ZM183.541 87.072L183.091 86.572L183.341 84.972H192.241V85.272C191.407 86.5053 190.991 89.8053 190.991 95.172V99.872L204.191 99.172V95.172C204.191 90.6053 203.674 87.8053 202.641 86.772L202.441 86.572L202.691 84.972H211.541V85.272C210.741 86.5387 210.341 89.8387 210.341 95.172L210.291 109.772C210.291 111.805 210.441 113.572 210.741 115.072C211.074 116.572 211.424 117.505 211.791 117.872L212.291 118.372L212.041 119.972H202.891V119.672C203.757 118.205 204.191 114.905 204.191 109.772V103.322H190.991V109.772C190.991 111.572 191.107 113.139 191.341 114.472C191.574 115.772 191.807 116.672 192.041 117.172C192.274 117.672 192.507 118.005 192.741 118.172L192.941 118.372L192.691 119.972H183.541V119.672C184.441 118.205 184.891 114.905 184.891 109.772V95.172C184.891 93.1386 184.741 91.372 184.441 89.872C184.174 88.372 183.874 87.4387 183.541 87.072ZM216.081 102.622C216.081 97.6553 217.631 93.322 220.731 89.622C223.898 85.922 227.648 84.072 231.981 84.072C236.514 84.072 240.231 85.6886 243.131 88.922C246.031 92.122 247.481 96.5553 247.481 102.222C247.481 107.289 245.881 111.655 242.681 115.322C239.548 118.955 235.848 120.772 231.581 120.772C227.214 120.772 223.531 119.189 220.531 116.022C217.564 112.789 216.081 108.322 216.081 102.622ZM240.581 102.572C240.581 97.972 239.748 94.2887 238.081 91.522C236.414 88.7553 234.181 87.372 231.381 87.372C229.048 87.372 227.048 88.7553 225.381 91.522C223.781 94.2553 222.981 97.8387 222.981 102.272C222.981 106.939 223.798 110.605 225.431 113.272C227.098 115.939 229.331 117.272 232.131 117.272C234.464 117.272 236.448 115.905 238.081 113.172C239.748 110.405 240.581 106.872 240.581 102.572ZM259.55 95.122V104.322V108.372H259.65L278.1 83.272L279.7 83.772C278.867 85.9386 278.45 89.7053 278.45 95.072V109.822C278.45 114.289 279.034 117.105 280.2 118.272L280.4 118.422L280.15 119.972H271.05V119.672C271.917 118.205 272.35 114.922 272.35 109.822V100.722V97.872H272.25L253.85 121.072L252.2 120.572C253.034 118.405 253.45 114.639 253.45 109.272V95.122C253.45 93.0887 253.284 91.322 252.95 89.822C252.65 88.322 252.317 87.3887 251.95 87.022L251.45 86.522L251.7 84.972H260.85V85.272C259.984 86.7387 259.55 90.022 259.55 95.122ZM274.6 76.972L275.5 78.072C273.6 80.172 271.567 81.5553 269.4 82.222C266.867 82.9553 263.417 82.4553 259.05 80.722L262.55 75.272H262.85C264.45 76.6386 266.017 77.572 267.55 78.072C269.084 78.572 270.4 78.7053 271.5 78.472C272.634 78.2387 273.667 77.7387 274.6 76.972Z" fill="white"/>
</g>
</svg>
