<svg width="232" height="134" viewBox="0 0 232 134" fill="none" xmlns="http://www.w3.org/2000/svg">
<g style="mix-blend-mode:difference">
<path d="M20.55 4.60001L7.9 5.25001V26.5C7.9 28.5333 8.05 30.3 8.35 31.8C8.68333 33.3 9.03333 34.2333 9.4 34.6L9.9 35.1L9.6 36.7H0.45V36.4C1.35 34.9333 1.8 31.6333 1.8 26.5V11.9C1.8 9.86668 1.65 8.10001 1.35 6.60001C1.08333 5.10001 0.783333 4.16668 0.45 3.80001L1.71363e-07 3.30001L0.25 1.70001H27.9V2.00001C27.1333 3.23335 26.7167 6.53335 26.65 11.9L26.6 26.5C26.6 28.5333 26.75 30.3 27.05 31.8C27.3833 33.3 27.7333 34.2333 28.1 34.6L28.6 35.1L28.35 36.7H19.2V36.4C20.0667 34.9333 20.5 31.6333 20.5 26.5L20.55 4.60001ZM41.6938 11.85V21.05V25.1H41.7938L60.2437 1.0848e-05L61.8438 0.50001C61.0104 2.66668 60.5938 6.43334 60.5938 11.8V26.55C60.5938 31.0167 61.1771 33.8333 62.3438 35L62.5438 35.15L62.2938 36.7H53.1938V36.4C54.0604 34.9333 54.4938 31.65 54.4938 26.55V17.45V14.6H54.3938L35.9938 37.8L34.3438 37.3C35.1771 35.1333 35.5938 31.3667 35.5938 26V11.85C35.5938 9.81668 35.4271 8.05001 35.0938 6.55001C34.7938 5.05001 34.4604 4.11668 34.0938 3.75001L33.5938 3.25001L33.8438 1.70001H42.9938V2.00001C42.1271 3.46668 41.6938 6.75001 41.6938 11.85ZM88.4898 23.05L92.7898 24.05C92.5565 25.5833 92.1232 27.1 91.4898 28.6C90.8565 30.0667 90.0232 31.4667 88.9898 32.8C87.9898 34.1333 86.7232 35.2167 85.1898 36.05C83.6565 36.85 81.9732 37.25 80.1398 37.25C75.8398 37.25 72.4898 35.8167 70.0898 32.95C67.6898 30.0833 66.4398 26 66.3398 20.7C66.2732 15.7667 67.5898 11.3667 70.2898 7.50001C71.6232 5.56668 73.4565 4.05001 75.7898 2.95001C78.1232 1.81668 80.7232 1.25001 83.5898 1.25001L90.6398 1.70001L88.2398 12.2L86.6898 11.95C86.6898 11.15 86.6232 10.2833 86.4898 9.35001C86.0898 6.21668 84.5565 4.58334 81.8898 4.45001C79.3565 4.45001 77.2732 5.91668 75.6398 8.85001C74.0398 11.7833 73.2398 15.4667 73.2398 19.9C73.2398 23.9333 73.9732 27.1333 75.4398 29.5C76.9065 31.8333 78.8565 33 81.2898 33C83.5898 33 85.3898 31.9 86.6898 29.7C88.0232 27.5 88.6232 25.2833 88.4898 23.05ZM113.437 31.3L112.437 27.1H101.787L100.987 29.1C99.9871 31.5667 99.8371 33.5 100.537 34.9L100.687 35.15L100.437 36.7H91.7871V36.4C92.7204 35.4667 93.5371 34.35 94.2371 33.05L110.637 0.350009H111.687L118.937 26.55C120.104 30.6833 121.487 33.55 123.087 35.15L122.837 36.7H112.787V36.4C113.62 34.9667 113.837 33.2667 113.437 31.3ZM109.487 14.7L108.637 11.15H108.487L103.237 23.7L111.537 23.4L109.487 14.7ZM119.076 8.50001L122.926 1.70001H138.076C142.51 1.63334 145.476 1.50001 146.976 1.30001L147.726 1.15001L148.576 1.95001L145.926 7.60001H145.576C143.476 6.30001 140.543 5.55001 136.776 5.35001V26.5C136.776 28.5333 136.926 30.3 137.226 31.8C137.56 33.3 137.91 34.2333 138.276 34.6L138.776 35.1L138.526 36.7H129.376V36.4C130.276 34.9333 130.726 31.6333 130.726 26.5V5.65001C128.493 5.85001 126.476 6.25001 124.676 6.85001C122.91 7.45001 121.726 8.03334 121.126 8.60001L120.326 9.30001L119.076 8.50001ZM175.18 30.15L172.58 36.7H151.28V36.4C152.18 34.9333 152.63 31.65 152.63 26.55V11.8C152.63 10.5667 152.58 9.46668 152.48 8.50001C152.413 7.53334 152.28 6.75001 152.08 6.15001C151.913 5.55001 151.763 5.08334 151.63 4.75001C151.497 4.41668 151.33 4.10001 151.13 3.80001C150.963 3.46668 150.863 3.26668 150.83 3.20001L151.08 1.65001H159.38C165.213 1.65001 169.147 1.50001 171.18 1.20001L172.18 1.05001L173.03 1.90001L170.73 7.15001H170.38C169.88 6.85001 169.413 6.61668 168.98 6.45001C168.28 6.15001 166.963 5.81668 165.03 5.45001C163.097 5.01668 160.997 4.85001 158.73 4.95001V16.9C161.063 16.7333 163.013 16.5 164.58 16.2C166.447 15.8667 167.747 15.5667 168.48 15.3L169.68 14.9L170.58 15.7L168.68 20.25H158.73V33.3C161.897 33.2667 164.83 32.9 167.53 32.2C169.997 31.5667 171.713 30.9333 172.68 30.3L173.98 29.35L175.18 30.15ZM194.954 31.3L190.654 11.15H190.504L183.554 29.15C182.554 31.5833 182.388 33.5 183.054 34.9L183.204 35.15L182.954 36.7H174.404V36.4C175.304 35.5 176.088 34.3833 176.754 33.05L192.654 0.350009H193.704L200.454 26.55C201.521 30.5833 202.904 33.45 204.604 35.15L204.354 36.7H194.304V36.4C195.138 34.9667 195.354 33.2667 194.954 31.3ZM231.723 23.1C231.723 26.1 230.656 28.9833 228.523 31.75C227.423 33.1833 225.873 34.35 223.873 35.25C221.906 36.15 219.69 36.6333 217.223 36.7H207.823V36.4C208.69 34.9333 209.123 31.65 209.123 26.55L209.173 11.9C209.173 9.90001 209.023 8.16668 208.723 6.70001C208.456 5.20001 208.156 4.23334 207.823 3.80001L207.373 3.30001L207.623 1.70001H216.523V2.00001C215.69 3.23335 215.273 6.53335 215.273 11.9L215.223 33.9H216.173C218.573 33.9 220.59 32.8333 222.223 30.7C223.89 28.5333 224.723 26.05 224.723 23.25C224.723 20.7167 224.123 18.95 222.923 17.95C221.756 16.95 220.04 16.5167 217.773 16.65L217.573 15.45C219.373 14.6833 221.123 14.2833 222.823 14.25C224.556 14.1833 226.073 14.4667 227.373 15.1C228.706 15.7333 229.756 16.75 230.523 18.15C231.323 19.5167 231.723 21.1667 231.723 23.1ZM25.9381 76.868L24.8581 72.332H13.3561L12.4921 74.492C11.4121 77.156 11.2501 79.244 12.0061 80.756L12.1681 81.026L11.8981 82.7H2.55613V82.376C3.56413 81.368 4.44613 80.162 5.20213 78.758L22.9141 43.442H24.0481L31.8781 71.738C33.1381 76.202 34.6321 79.298 36.3601 81.026L36.0901 82.7H25.2361V82.376C26.1361 80.828 26.3701 78.992 25.9381 76.868ZM21.6721 58.94L20.7541 55.106H20.5921L14.9221 68.66L23.8861 68.336L21.6721 58.94ZM41.2125 71.684L41.2665 55.916C41.2665 53.72 41.1045 51.812 40.7805 50.192C40.4925 48.572 40.1685 47.564 39.8085 47.168L39.3225 46.628L39.5925 44.9H49.2045V45.224C48.3045 46.556 47.8545 50.12 47.8545 55.916L47.8005 71.684C47.8005 73.88 47.9625 75.788 48.2865 77.408C48.6465 79.028 49.0245 80.036 49.4205 80.432L49.9605 80.972L49.6905 82.7H39.8085V82.376C40.7445 80.792 41.2125 77.228 41.2125 71.684ZM69.7785 80.972L69.5085 82.7H60.7065C59.0505 76.688 57.1785 72.026 55.0905 68.714C53.0385 65.402 51.0585 63.764 49.1505 63.8L48.8805 62.72C56.5125 53.756 59.4465 48.392 57.6825 46.628L57.9525 44.9H67.6725V45.224C67.0605 46.052 64.7745 48.77 60.8145 53.378C56.9985 57.77 54.7125 60.47 53.9565 61.478H57.8445C59.5725 63.422 61.1925 65.798 62.7045 68.606C63.3165 69.722 64.1805 71.396 65.2965 73.628C66.4485 75.824 67.3485 77.48 67.9965 78.596C68.6445 79.676 69.2385 80.468 69.7785 80.972ZM67.624 52.244L71.782 44.9H88.144C92.932 44.828 96.136 44.684 97.756 44.468L98.566 44.306L99.484 45.17L96.622 51.272H96.244C93.976 49.868 90.808 49.058 86.74 48.842V71.684C86.74 73.88 86.902 75.788 87.226 77.408C87.586 79.028 87.964 80.036 88.36 80.432L88.9 80.972L88.63 82.7H78.748V82.376C79.72 80.792 80.206 77.228 80.206 71.684V49.166C77.794 49.382 75.616 49.814 73.672 50.462C71.764 51.11 70.486 51.74 69.838 52.352L68.974 53.108L67.624 52.244ZM102.404 47.168L101.918 46.628L102.188 44.9H113.69C117.902 44.9 121.286 45.53 123.842 46.79C127.01 48.194 128.594 50.984 128.594 55.16C128.594 58.4 127.136 61.424 124.22 64.232C121.376 67.04 117.524 68.552 112.664 68.768L112.286 67.364C114.77 66.932 116.858 65.636 118.55 63.476C120.206 61.352 121.034 58.796 121.034 55.808C121.034 53.288 120.314 51.344 118.874 49.976C117.47 48.608 115.652 47.924 113.42 47.924H110.504L110.396 71.684C110.396 73.88 110.558 75.788 110.882 77.408C111.242 79.028 111.62 80.036 112.016 80.432L112.556 80.972L112.286 82.7H102.404V82.376C103.34 80.792 103.808 77.228 103.808 71.684V55.916C103.808 53.72 103.646 51.812 103.322 50.192C103.034 48.572 102.728 47.564 102.404 47.168ZM140.303 55.862V65.798V70.172H140.411L160.337 43.064L162.065 43.604C161.165 45.944 160.715 50.012 160.715 55.808V71.738C160.715 76.562 161.345 79.604 162.605 80.864L162.821 81.026L162.551 82.7H152.723V82.376C153.659 80.792 154.127 77.246 154.127 71.738V61.91V58.832H154.019L134.147 83.888L132.365 83.348C133.265 81.008 133.715 76.94 133.715 71.144V55.862C133.715 53.666 133.535 51.758 133.175 50.138C132.851 48.518 132.491 47.51 132.095 47.114L131.555 46.574L131.825 44.9H141.707V45.224C140.771 46.808 140.303 50.354 140.303 55.862ZM190.843 67.958L195.487 69.038C195.235 70.694 194.767 72.332 194.083 73.952C193.399 75.536 192.499 77.048 191.383 78.488C190.303 79.928 188.935 81.098 187.279 81.998C185.623 82.862 183.805 83.294 181.825 83.294C177.181 83.294 173.563 81.746 170.971 78.65C168.379 75.554 167.029 71.144 166.921 65.42C166.849 60.092 168.271 55.34 171.187 51.164C172.627 49.076 174.607 47.438 177.127 46.25C179.647 45.026 182.455 44.414 185.551 44.414L193.165 44.9L190.573 56.24L188.899 55.97C188.899 55.106 188.827 54.17 188.683 53.162C188.251 49.778 186.595 48.014 183.715 47.87C180.979 47.87 178.729 49.454 176.965 52.622C175.237 55.79 174.373 59.768 174.373 64.556C174.373 68.912 175.165 72.368 176.749 74.924C178.333 77.444 180.439 78.704 183.067 78.704C185.551 78.704 187.495 77.516 188.899 75.14C190.339 72.764 190.987 70.37 190.843 67.958ZM217.786 76.868L216.706 72.332H205.204L204.34 74.492C203.26 77.156 203.098 79.244 203.854 80.756L204.016 81.026L203.746 82.7H194.404V82.376C195.412 81.368 196.294 80.162 197.05 78.758L214.762 43.442H215.896L223.726 71.738C224.986 76.202 226.48 79.298 228.208 81.026L227.938 82.7H217.084V82.376C217.984 80.828 218.218 78.992 217.786 76.868ZM213.52 58.94L212.602 55.106H212.44L206.77 68.66L215.734 68.336L213.52 58.94ZM47.1521 132.7H36.7121V132.352C37.3694 130.535 37.5434 126.726 37.2341 120.926L36.3641 111.066L36.1321 108.05H36.0161L25.6921 129.394H24.5901L16.0641 108.63H15.9481L11.4241 123.304C11.0374 124.503 10.8441 125.605 10.8441 126.61C10.8441 127.615 10.9214 128.35 11.0761 128.814C11.2694 129.278 11.5014 129.742 11.7721 130.206C12.0814 130.631 12.2361 130.863 12.2361 130.902L11.9461 132.7H1.91207V132.352C2.26007 132.004 2.87874 131.057 3.76807 129.51C4.69607 127.809 5.43074 126.223 5.97207 124.754L13.6861 103.294L12.4681 100.278C11.1147 97.0687 9.72274 94.942 8.29207 93.898L8.64007 92.1H17.3401L25.6341 112.922L27.2001 116.75H27.4321L40.3081 90.592H41.7001L44.2521 120.926C44.6774 125.914 45.6634 129.181 47.2101 130.728L47.4421 130.902L47.1521 132.7ZM60.6534 103.874V114.546V119.244H60.7694L82.1714 90.128L84.0274 90.708C83.0607 93.2213 82.5774 97.5907 82.5774 103.816V120.926C82.5774 126.107 83.2541 129.375 84.6074 130.728L84.8394 130.902L84.5494 132.7H73.9934V132.352C74.9987 130.651 75.5014 126.842 75.5014 120.926V110.37V107.064H75.3854L54.0414 133.976L52.1274 133.396C53.094 130.883 53.5774 126.513 53.5774 120.288V103.874C53.5774 101.515 53.384 99.466 52.9974 97.726C52.6494 95.986 52.2627 94.9033 51.8374 94.478L51.2574 93.898L51.5474 92.1H62.1614V92.448C61.1561 94.1493 60.6534 97.958 60.6534 103.874ZM114.937 116.866L119.925 118.026C119.654 119.805 119.152 121.564 118.417 123.304C117.682 125.005 116.716 126.629 115.517 128.176C114.357 129.723 112.888 130.979 111.109 131.946C109.33 132.874 107.378 133.338 105.251 133.338C100.263 133.338 96.3769 131.675 93.5929 128.35C90.8089 125.025 89.3589 120.288 89.2429 114.14C89.1655 108.417 90.6929 103.313 93.8249 98.828C95.3715 96.5853 97.4982 94.826 100.205 93.55C102.912 92.2353 105.928 91.578 109.253 91.578L117.431 92.1L114.647 104.28L112.849 103.99C112.849 103.062 112.772 102.057 112.617 100.974C112.153 97.3393 110.374 95.4447 107.281 95.29C104.342 95.29 101.926 96.9913 100.031 100.394C98.1749 103.797 97.2469 108.069 97.2469 113.212C97.2469 117.891 98.0975 121.603 99.7989 124.348C101.5 127.055 103.762 128.408 106.585 128.408C109.253 128.408 111.341 127.132 112.849 124.58C114.396 122.028 115.092 119.457 114.937 116.866ZM118.755 99.988L123.221 92.1H140.795C145.938 92.0227 149.379 91.868 151.119 91.636L151.989 91.462L152.975 92.39L149.901 98.944H149.495C147.059 97.436 143.656 96.566 139.287 96.334V120.868C139.287 123.227 139.461 125.276 139.809 127.016C140.196 128.756 140.602 129.839 141.027 130.264L141.607 130.844L141.317 132.7H130.703V132.352C131.747 130.651 132.269 126.823 132.269 120.868V96.682C129.678 96.914 127.339 97.378 125.251 98.074C123.202 98.77 121.829 99.4467 121.133 100.104L120.205 100.916L118.755 99.988ZM164.985 103.874V114.546V119.244H165.101L186.503 90.128L188.359 90.708C187.393 93.2213 186.909 97.5907 186.909 103.816V120.926C186.909 126.107 187.586 129.375 188.939 130.728L189.171 130.902L188.881 132.7H178.325V132.352C179.331 130.651 179.833 126.842 179.833 120.926V110.37V107.064H179.717L158.373 133.976L156.459 133.396C157.426 130.883 157.909 126.513 157.909 120.288V103.874C157.909 101.515 157.716 99.466 157.329 97.726C156.981 95.986 156.595 94.9033 156.169 94.478L155.589 93.898L155.879 92.1H166.493V92.448C165.488 94.1493 164.985 97.958 164.985 103.874ZM197.041 120.868L197.099 103.932C197.099 101.573 196.925 99.524 196.577 97.784C196.268 96.044 195.92 94.9613 195.533 94.536L195.011 93.956L195.301 92.1H205.625V92.448C204.659 93.8787 204.175 97.7067 204.175 103.932L204.117 120.868C204.117 123.227 204.291 125.276 204.639 127.016C205.026 128.756 205.432 129.839 205.857 130.264L206.437 130.844L206.147 132.7H195.533V132.352C196.539 130.651 197.041 126.823 197.041 120.868ZM227.723 130.844L227.433 132.7H217.979C216.201 126.243 214.19 121.235 211.947 117.678C209.743 114.121 207.617 112.361 205.567 112.4L205.277 111.24C213.475 101.612 216.626 95.8507 214.731 93.956L215.021 92.1H225.461V92.448C224.804 93.3373 222.349 96.2567 218.095 101.206C213.997 105.923 211.541 108.823 210.729 109.906H214.905C216.761 111.994 218.501 114.546 220.125 117.562C220.783 118.761 221.711 120.559 222.909 122.956C224.147 125.315 225.113 127.093 225.809 128.292C226.505 129.452 227.143 130.303 227.723 130.844Z" fill="white"/>
</g>
</svg>
