<svg width="255" height="65" viewBox="0 0 255 65" fill="none" xmlns="http://www.w3.org/2000/svg">
<g style="mix-blend-mode:difference">
<path d="M16.44 3.68002L6.32005 4.20002V21.2C6.32005 22.8267 6.44005 24.24 6.68005 25.44C6.94672 26.64 7.22672 27.3867 7.52005 27.68L7.92005 28.08L7.68005 29.36H0.360049V29.12C1.08005 27.9467 1.44005 25.3067 1.44005 21.2V9.52002C1.44005 7.89335 1.32005 6.48001 1.08005 5.28001C0.866716 4.08001 0.626716 3.33335 0.360049 3.04001L4.89652e-05 2.64001L0.200049 1.36001H22.3201V1.60002C21.7067 2.58668 21.3734 5.22668 21.32 9.52002L21.28 21.2C21.28 22.8267 21.4 24.24 21.64 25.44C21.9067 26.64 22.1867 27.3867 22.4801 27.68L22.8801 28.08L22.6801 29.36H15.36V29.12C16.0534 27.9467 16.4001 25.3067 16.4001 21.2L16.44 3.68002ZM25.8844 15.48C25.8844 11.5067 27.1244 8.04001 29.6044 5.08001C32.1378 2.12001 35.1378 0.640014 38.6044 0.640014C42.2311 0.640014 45.2044 1.93335 47.5244 4.52001C49.8444 7.08001 51.0044 10.6267 51.0044 15.16C51.0044 19.2133 49.7244 22.7067 47.1644 25.64C44.6578 28.5467 41.6978 30 38.2844 30C34.7911 30 31.8444 28.7333 29.4444 26.2C27.0711 23.6133 25.8844 20.04 25.8844 15.48ZM45.4844 15.44C45.4844 11.76 44.8178 8.81335 43.4844 6.60002C42.1511 4.38668 40.3644 3.28002 38.1244 3.28002C36.2578 3.28002 34.6578 4.38668 33.3244 6.60002C32.0444 8.78668 31.4044 11.6533 31.4044 15.2C31.4044 18.9333 32.0578 21.8667 33.3644 24C34.6978 26.1333 36.4844 27.2 38.7244 27.2C40.5911 27.2 42.1778 26.1067 43.4844 23.92C44.8178 21.7067 45.4844 18.88 45.4844 15.44ZM60.4597 4.08001V21.2C60.4597 22.8267 60.5797 24.24 60.8197 25.44C61.0864 26.64 61.3664 27.3867 61.6597 27.68L62.0597 28.08L61.8597 29.36H54.5397V29.12C55.2331 27.9467 55.5797 25.3067 55.5797 21.2L55.6197 9.52002C55.6197 7.89335 55.4997 6.48001 55.2597 5.28001C55.0464 4.08001 54.8064 3.33335 54.5397 3.04001L54.1797 2.64001L54.3797 1.36001H61.4997C65.4464 1.30668 68.2197 1.20002 69.8197 1.04002L70.6197 0.920015L71.2997 1.56001L69.0197 6.56001H68.6597C68.4464 6.26668 68.0597 5.94668 67.4997 5.60001C65.7397 4.40001 63.3931 3.89335 60.4597 4.08001ZM73.1335 3.04001L72.7735 2.64001L72.9735 1.36001H81.4935C84.6135 1.36001 87.1202 1.82668 89.0135 2.76002C91.3602 3.80001 92.5335 5.86668 92.5335 8.96001C92.5335 11.36 91.4535 13.6 89.2935 15.68C87.1868 17.76 84.3335 18.88 80.7335 19.04L80.4535 18C82.2935 17.68 83.8402 16.72 85.0935 15.12C86.3202 13.5467 86.9335 11.6533 86.9335 9.44001C86.9335 7.57335 86.4002 6.13335 85.3335 5.12002C84.2935 4.10668 82.9468 3.60001 81.2935 3.60001H79.1335L79.0535 21.2C79.0535 22.8267 79.1735 24.24 79.4135 25.44C79.6802 26.64 79.9602 27.3867 80.2535 27.68L80.6535 28.08L80.4535 29.36H73.1335V29.12C73.8268 27.9467 74.1735 25.3067 74.1735 21.2V9.52002C74.1735 7.89335 74.0535 6.48001 73.8135 5.28001C73.6002 4.08001 73.3735 3.33335 73.1335 3.04001ZM110.178 1.36001H117.458V1.60002C116.631 2.82668 115.138 5.48002 112.978 9.56001L112.018 11.4L110.978 13.4L109.938 15.32L108.898 17.36C107.938 19.3333 107.378 20.56 107.218 21.04C106.444 23.1467 106.058 24.48 106.058 25.04C106.058 25.7067 106.164 26.3067 106.378 26.84C106.591 27.3733 106.831 27.7333 107.098 27.92L107.418 28.12L107.258 29.36H99.3775V29.12C101.324 26.5867 103.004 23.7733 104.418 20.68H102.058C99.7909 14.2533 98.0709 9.72001 96.8975 7.08001C95.9642 5.00001 95.1109 3.62668 94.3375 2.96001L93.9375 2.60001L94.0975 1.36001H100.858V1.56001C101.071 2.52001 101.418 3.78668 101.898 5.36001C102.698 7.92002 103.458 10.1333 104.178 12L106.178 17.12H106.258L108.938 11.92C110.324 9.25335 111.018 6.97335 111.018 5.08001C111.018 4.54668 110.938 4.06668 110.778 3.64002C110.618 3.18668 110.444 2.90668 110.258 2.80001L110.018 2.60001L110.178 1.36001ZM136.598 1.36001L136.758 1.84001C132.838 4.93335 130.878 7.45335 130.878 9.40002C130.878 10.3067 131.744 11.7333 133.478 13.68C135.238 15.5467 136.118 17.5067 136.118 19.56C136.118 22.5733 135.064 25.0533 132.958 27C130.851 28.9467 128.651 29.92 126.358 29.92C124.544 29.92 122.758 29.3867 120.998 28.32C120.011 27.7333 119.158 26.8 118.438 25.52C117.744 24.2133 117.278 22.6933 117.038 20.96L121.198 19.76C121.224 21.6 121.678 23.28 122.558 24.8C123.411 26.2933 124.531 27.04 125.918 27.04C127.144 27.04 128.238 26.52 129.198 25.48C130.158 24.3867 130.638 23.08 130.638 21.56C130.638 19.3467 129.838 17.24 128.238 15.24C127.118 13.72 126.118 12.5867 125.238 11.84V11.52L130.798 4.40002C128.398 4.53335 126.198 4.82668 124.198 5.28001C122.091 5.76001 120.598 6.21335 119.718 6.64002L118.358 7.24001L117.398 6.64002L119.558 1.36001H136.598ZM146.168 9.48002V16.84V20.08H146.248L161.008 1.4782e-05L162.288 0.400014C161.621 2.13335 161.288 5.14668 161.288 9.44001V21.24C161.288 24.8133 161.754 27.0667 162.688 28L162.848 28.12L162.648 29.36H155.368V29.12C156.061 27.9467 156.408 25.32 156.408 21.24V13.96V11.68H156.328L141.608 30.24L140.288 29.84C140.954 28.1067 141.288 25.0933 141.288 20.8V9.48002C141.288 7.85335 141.154 6.44001 140.888 5.24001C140.648 4.04002 140.381 3.29335 140.088 3.00001L139.688 2.60001L139.888 1.36001H147.208V1.60002C146.514 2.77335 146.168 5.40001 146.168 9.48002ZM163.855 6.80002L166.935 1.36001H179.055C182.601 1.30668 184.975 1.20002 186.175 1.04002L186.775 0.920015L187.455 1.56001L185.335 6.08002H185.055C183.375 5.04001 181.028 4.44001 178.015 4.28001V21.2C178.015 22.8267 178.135 24.24 178.375 25.44C178.641 26.64 178.921 27.3867 179.215 27.68L179.615 28.08L179.415 29.36H172.095V29.12C172.815 27.9467 173.175 25.3067 173.175 21.2V4.52001C171.388 4.68001 169.775 5.00002 168.335 5.48002C166.921 5.96001 165.975 6.42668 165.495 6.88001L164.855 7.44001L163.855 6.80002ZM208.738 18.48C208.738 20.88 207.885 23.1867 206.178 25.4C205.298 26.5467 204.058 27.48 202.458 28.2C200.885 28.92 199.111 29.3067 197.138 29.36H189.618V29.12C190.311 27.9467 190.658 25.32 190.658 21.24L190.698 9.52002C190.698 7.92001 190.578 6.53335 190.338 5.36001C190.125 4.16001 189.885 3.38668 189.618 3.04001L189.258 2.64001L189.458 1.36001H196.578V1.60002C195.911 2.58668 195.578 5.22668 195.578 9.52002L195.538 27.12H196.298C198.218 27.12 199.831 26.2667 201.138 24.56C202.471 22.8267 203.138 20.84 203.138 18.6C203.138 16.5733 202.658 15.16 201.698 14.36C200.765 13.56 199.391 13.2133 197.578 13.32L197.418 12.36C198.858 11.7467 200.258 11.4267 201.618 11.4C203.005 11.3467 204.218 11.5733 205.258 12.08C206.325 12.5867 207.165 13.4 207.778 14.52C208.418 15.6133 208.738 16.9333 208.738 18.48ZM228.878 18.44L232.318 19.24C232.131 20.4667 231.785 21.68 231.278 22.88C230.771 24.0533 230.105 25.1733 229.278 26.24C228.478 27.3067 227.465 28.1733 226.238 28.84C225.011 29.48 223.665 29.8 222.198 29.8C218.758 29.8 216.078 28.6533 214.158 26.36C212.238 24.0667 211.238 20.8 211.158 16.56C211.105 12.6133 212.158 9.09335 214.318 6.00001C215.385 4.45335 216.851 3.24002 218.718 2.36002C220.585 1.45335 222.665 1.00001 224.958 1.00001L230.598 1.36001L228.678 9.76002L227.438 9.56001C227.438 8.92001 227.385 8.22668 227.278 7.48001C226.958 4.97335 225.731 3.66668 223.598 3.56001C221.571 3.56001 219.905 4.73335 218.598 7.08001C217.318 9.42668 216.678 12.3733 216.678 15.92C216.678 19.1467 217.265 21.7067 218.438 23.6C219.611 25.4667 221.171 26.4 223.118 26.4C224.958 26.4 226.398 25.52 227.438 23.76C228.505 22 228.985 20.2267 228.878 18.44ZM234.732 10.72C234.732 8.48002 235.746 6.38668 237.772 4.44001C240.012 2.38668 243.279 1.36001 247.572 1.36001H254.212V1.60002C253.546 2.66668 253.212 5.26668 253.212 9.40002V21.2C253.212 24.7467 253.732 27.04 254.772 28.08L254.572 29.36H247.252V29.12C247.946 27.2533 248.292 24.6133 248.292 21.2L248.372 3.60001C245.946 3.60001 243.946 4.26668 242.372 5.60001C240.852 6.93335 240.092 8.61335 240.092 10.64C240.092 12.4267 240.666 13.8133 241.812 14.8C242.959 15.7867 244.319 16.4 245.892 16.64L246.092 17.28C245.852 17.52 245.452 18.0533 244.892 18.88C244.359 19.6533 243.572 21.1067 242.532 23.24C241.519 25.2933 240.759 27.3333 240.252 29.36H233.092V29.04C236.399 24.64 238.919 20.88 240.652 17.76C239.026 17.5467 237.626 16.7867 236.452 15.48C235.306 14.1733 234.732 12.5867 234.732 10.72ZM34.3479 47.52V47.6C36.6412 47.6 38.4279 48.1467 39.7079 49.24C41.0145 50.3333 41.6679 51.8533 41.6679 53.8C41.6679 56.36 40.5079 58.6 38.1879 60.52C35.8945 62.4133 32.8679 63.36 29.1079 63.36H20.8679V63.12C21.5612 61.9467 21.9079 59.3067 21.9079 55.2L21.9479 43.52C21.9479 41.8933 21.8279 40.48 21.5879 39.28C21.3745 38.08 21.1345 37.3333 20.8679 37.04L20.5079 36.64L20.7079 35.36H28.4679C32.3612 35.36 35.1345 35.7733 36.7879 36.6C38.4679 37.4 39.3079 38.7867 39.3079 40.76C39.3079 42.12 38.7879 43.4667 37.7479 44.8C36.6812 46.1333 35.5479 47.04 34.3479 47.52ZM26.7879 60.8H27.8679C30.0012 60.8 31.8945 60.1333 33.5479 58.8C35.2012 57.44 36.0279 55.7333 36.0279 53.68C36.0279 51.92 35.4679 50.6667 34.3479 49.92C33.2279 49.1467 31.5079 48.76 29.1879 48.76L29.0279 47.96C30.2545 47.6133 31.3479 46.84 32.3079 45.64C33.2679 44.3867 33.7479 43.1067 33.7479 41.8C33.7479 40.12 33.2545 39.0267 32.2679 38.52C31.3079 37.96 29.4945 37.68 26.8279 37.68L26.7879 60.8ZM61.9488 43.48V50.84V54.08H62.0288L76.7888 34L78.0688 34.4C77.4021 36.1333 77.0688 39.1467 77.0688 43.44V55.24C77.0688 58.8133 77.5355 61.0667 78.4688 62L78.6288 62.12L78.4288 63.36H71.1488V63.12C71.8421 61.9467 72.1888 59.32 72.1888 55.24V47.96V45.68H72.1088L57.3888 64.24L56.0688 63.84C56.7355 62.1067 57.0688 59.0933 57.0688 54.8V43.48C57.0688 41.8533 56.9355 40.44 56.6688 39.24C56.4288 38.04 56.1621 37.2933 55.8688 37L55.4688 36.6L55.6688 35.36H62.9888V35.6C62.2955 36.7733 61.9488 39.4 61.9488 43.48ZM111.856 63.36H104.656V63.12C105.11 61.8667 105.23 59.24 105.016 55.24L104.416 48.44L104.256 46.36H104.176L97.0563 61.08H96.2963L90.4163 46.76H90.3363L87.2163 56.88C86.9496 57.7067 86.8163 58.4667 86.8163 59.16C86.8163 59.8533 86.8696 60.36 86.9763 60.68C87.1096 61 87.2696 61.32 87.4563 61.64C87.6696 61.9333 87.7763 62.0933 87.7763 62.12L87.5763 63.36H80.6563V63.12C80.8963 62.88 81.323 62.2267 81.9363 61.16C82.5763 59.9867 83.083 58.8933 83.4563 57.88L88.7763 43.08L87.9363 41C87.003 38.7867 86.043 37.32 85.0563 36.6L85.2963 35.36H91.2963L97.0163 49.72L98.0963 52.36H98.2563L107.136 34.32H108.096L109.856 55.24C110.15 58.68 110.83 60.9333 111.896 62L112.056 62.12L111.856 63.36ZM131.128 37.68L121.008 38.2V55.2C121.008 56.8267 121.128 58.24 121.368 59.44C121.634 60.64 121.914 61.3867 122.208 61.68L122.608 62.08L122.368 63.36H115.048V63.12C115.768 61.9467 116.128 59.3067 116.128 55.2V43.52C116.128 41.8933 116.008 40.48 115.768 39.28C115.554 38.08 115.314 37.3333 115.048 37.04L114.688 36.64L114.888 35.36H137.008V35.6C136.394 36.5867 136.061 39.2267 136.008 43.52L135.968 55.2C135.968 56.8267 136.088 58.24 136.328 59.44C136.594 60.64 136.874 61.3867 137.168 61.68L137.568 62.08L137.368 63.36H130.048V63.12C130.741 61.9467 131.088 59.3067 131.088 55.2L131.128 37.68ZM161.043 58.12L158.963 63.36H141.923V63.12C142.643 61.9467 143.003 59.32 143.003 55.24V43.44C143.003 42.4533 142.963 41.5733 142.883 40.8C142.829 40.0267 142.723 39.4 142.563 38.92C142.429 38.44 142.309 38.0667 142.203 37.8C142.096 37.5333 141.963 37.28 141.803 37.04C141.669 36.7733 141.589 36.6133 141.563 36.56L141.763 35.32H148.403C153.069 35.32 156.216 35.2 157.843 34.96L158.643 34.84L159.323 35.52L157.483 39.72H157.203C156.803 39.48 156.429 39.2933 156.083 39.16C155.523 38.92 154.469 38.6533 152.923 38.36C151.376 38.0133 149.696 37.88 147.883 37.96V47.52C149.749 47.3867 151.309 47.2 152.563 46.96C154.056 46.6933 155.096 46.4533 155.683 46.24L156.643 45.92L157.363 46.56L155.843 50.2H147.883V60.64C150.416 60.6133 152.763 60.32 154.923 59.76C156.896 59.2533 158.269 58.7467 159.043 58.24L160.083 57.48L161.043 58.12ZM163.602 37.04L163.242 36.64L163.442 35.36H171.962C175.082 35.36 177.589 35.8267 179.482 36.76C181.829 37.8 183.002 39.8667 183.002 42.96C183.002 45.36 181.922 47.6 179.762 49.68C177.656 51.76 174.802 52.88 171.202 53.04L170.922 52C172.762 51.68 174.309 50.72 175.562 49.12C176.789 47.5467 177.402 45.6533 177.402 43.44C177.402 41.5733 176.869 40.1333 175.802 39.12C174.762 38.1067 173.416 37.6 171.762 37.6H169.602L169.522 55.2C169.522 56.8267 169.642 58.24 169.882 59.44C170.149 60.64 170.429 61.3867 170.722 61.68L171.122 62.08L170.922 63.36H163.602V63.12C164.296 61.9467 164.642 59.3067 164.642 55.2V43.52C164.642 41.8933 164.522 40.48 164.282 39.28C164.069 38.08 163.842 37.3333 163.602 37.04ZM191.675 43.48V50.84V54.08H191.755L206.515 34L207.795 34.4C207.129 36.1333 206.795 39.1467 206.795 43.44V55.24C206.795 58.8133 207.262 61.0667 208.195 62L208.355 62.12L208.155 63.36H200.875V63.12C201.569 61.9467 201.915 59.32 201.915 55.24V47.96V45.68H201.835L187.115 64.24L185.795 63.84C186.462 62.1067 186.795 59.0933 186.795 54.8V43.48C186.795 41.8533 186.662 40.44 186.395 39.24C186.155 38.04 185.889 37.2933 185.595 37L185.195 36.6L185.395 35.36H192.715V35.6C192.022 36.7733 191.675 39.4 191.675 43.48ZM218.703 50.16V55.2C218.703 56.64 218.796 57.8933 218.983 58.96C219.17 60 219.356 60.72 219.543 61.12C219.73 61.52 219.916 61.7867 220.103 61.92L220.263 62.08L220.063 63.36H212.743V63.12C213.463 61.9467 213.823 59.3067 213.823 55.2V43.48C213.823 41.8533 213.703 40.44 213.463 39.24C213.25 38.04 213.01 37.2933 212.743 37L212.383 36.6L212.583 35.32H219.703V35.56C219.036 36.5467 218.703 39.1867 218.703 43.48V47.48L222.743 47.2C223.063 43.68 224.21 40.7333 226.183 38.36C228.183 36.0133 230.65 34.84 233.583 34.84C237.103 34.84 239.863 36.1333 241.863 38.72C243.863 41.3067 244.863 44.92 244.863 49.56C244.863 53.6667 243.756 57.0667 241.543 59.76C239.33 62.4533 236.57 63.8 233.263 63.8C230.116 63.8 227.596 62.6133 225.703 60.24C223.836 57.84 222.823 54.48 222.663 50.16H218.703ZM239.343 49.84C239.343 47.4933 239.143 45.4533 238.743 43.72C238.343 41.9067 237.65 40.4667 236.663 39.4C235.703 38.3067 234.516 37.76 233.103 37.76C231.423 37.76 230.063 38.76 229.023 40.76C228.01 42.7867 227.503 45.4667 227.503 48.8C227.503 52.6133 228.01 55.5733 229.023 57.68C230.063 59.76 231.623 60.8 233.703 60.8C235.463 60.8 236.836 59.8267 237.823 57.88C238.836 55.9067 239.343 53.2267 239.343 49.84Z" fill="white"/>
</g>
</svg>
