<svg width="296" height="106" viewBox="0 0 296 106" fill="none" xmlns="http://www.w3.org/2000/svg">
<g style="mix-blend-mode:difference">
<path d="M10.2929 14.22V25.26V30.12H10.4129L32.5529 -2.36034e-05L34.4729 0.599976C33.473 3.19998 32.973 7.71998 32.973 14.16V31.86C32.973 37.22 33.673 40.6 35.073 42L35.3129 42.18L35.0129 44.04H24.093V43.68C25.133 41.92 25.653 37.98 25.653 31.86V20.94V17.52H25.533L3.45295 45.36L1.47295 44.76C2.47295 42.16 2.97295 37.64 2.97295 31.2V14.22C2.97295 11.78 2.77295 9.65998 2.37295 7.85998C2.01295 6.05998 1.61295 4.93998 1.17295 4.49998L0.572949 3.89998L0.872949 2.03998H11.853V2.39998C10.8129 4.15998 10.2929 8.09998 10.2929 14.22ZM66.4483 27.66L71.6083 28.86C71.3283 30.7 70.8083 32.52 70.0483 34.32C69.2883 36.08 68.2883 37.76 67.0483 39.36C65.8483 40.96 64.3283 42.26 62.4883 43.26C60.6483 44.22 58.6283 44.7 56.4283 44.7C51.2683 44.7 47.2483 42.98 44.3683 39.54C41.4883 36.1 39.9883 31.2 39.8683 24.84C39.7883 18.92 41.3683 13.64 44.6083 8.99997C46.2083 6.67998 48.4083 4.85998 51.2083 3.53998C54.0083 2.17998 57.1283 1.49997 60.5683 1.49997L69.0283 2.03998L66.1483 14.64L64.2883 14.34C64.2883 13.38 64.2083 12.34 64.0483 11.22C63.5683 7.45998 61.7283 5.49998 58.5283 5.33998C55.4883 5.33998 52.9883 7.09998 51.0283 10.62C49.1083 14.14 48.1483 18.56 48.1483 23.88C48.1483 28.72 49.0283 32.56 50.7883 35.4C52.5483 38.2 54.8883 39.6 57.8083 39.6C60.5683 39.6 62.7283 38.28 64.2883 35.64C65.8883 33 66.6083 30.34 66.4483 27.66ZM99.5298 5.51998L84.3498 6.29998V31.8C84.3498 34.24 84.5298 36.36 84.8898 38.16C85.2898 39.96 85.7098 41.08 86.1498 41.52L86.7498 42.12L86.3898 44.04H75.4098V43.68C76.4898 41.92 77.0298 37.96 77.0298 31.8V14.28C77.0298 11.84 76.8498 9.71998 76.4898 7.91997C76.1698 6.11998 75.8098 4.99998 75.4098 4.55997L74.8698 3.95998L75.1698 2.03998H108.35V2.39998C107.43 3.87998 106.93 7.83998 106.85 14.28L106.79 31.8C106.79 34.24 106.97 36.36 107.33 38.16C107.73 39.96 108.15 41.08 108.59 41.52L109.19 42.12L108.89 44.04H97.9098V43.68C98.9498 41.92 99.4698 37.96 99.4698 31.8L99.5298 5.51998ZM113.696 23.22C113.696 17.26 115.556 12.06 119.276 7.61997C123.076 3.17997 127.576 0.959975 132.776 0.959975C138.216 0.959975 142.676 2.89997 146.156 6.77997C149.636 10.62 151.376 15.94 151.376 22.74C151.376 28.82 149.456 34.06 145.616 38.46C141.856 42.82 137.416 45 132.296 45C127.056 45 122.636 43.1 119.036 39.3C115.476 35.42 113.696 30.06 113.696 23.22ZM143.096 23.16C143.096 17.64 142.096 13.22 140.096 9.89998C138.096 6.57998 135.416 4.91998 132.056 4.91998C129.256 4.91998 126.856 6.57998 124.856 9.89998C122.936 13.18 121.976 17.48 121.976 22.8C121.976 28.4 122.956 32.8 124.916 36C126.916 39.2 129.596 40.8 132.956 40.8C135.756 40.8 138.136 39.16 140.096 35.88C142.096 32.56 143.096 28.32 143.096 23.16ZM176.899 20.28V20.4C180.339 20.4 183.019 21.22 184.939 22.86C186.899 24.5 187.879 26.78 187.879 29.7C187.879 33.54 186.139 36.9 182.659 39.78C179.219 42.62 174.679 44.04 169.039 44.04H156.679V43.68C157.719 41.92 158.239 37.96 158.239 31.8L158.299 14.28C158.299 11.84 158.119 9.71998 157.759 7.91997C157.439 6.11998 157.079 4.99998 156.679 4.55997L156.139 3.95998L156.439 2.03998H168.079C173.919 2.03998 178.079 2.65998 180.559 3.89998C183.079 5.09998 184.339 7.17998 184.339 10.14C184.339 12.18 183.559 14.2 181.999 16.2C180.399 18.2 178.699 19.56 176.899 20.28ZM165.559 40.2H167.179C170.379 40.2 173.219 39.2 175.699 37.2C178.179 35.16 179.419 32.6 179.419 29.52C179.419 26.88 178.579 25 176.899 23.88C175.219 22.72 172.639 22.14 169.159 22.14L168.919 20.94C170.759 20.42 172.399 19.26 173.839 17.46C175.279 15.58 175.999 13.66 175.999 11.7C175.999 9.17998 175.259 7.53997 173.779 6.77997C172.339 5.93998 169.619 5.51998 165.619 5.51998L165.559 40.2ZM221.512 36.18L218.392 44.04H192.832V43.68C193.912 41.92 194.452 37.98 194.452 31.86V14.16C194.452 12.68 194.392 11.36 194.272 10.2C194.192 9.03998 194.032 8.09998 193.792 7.37998C193.592 6.65998 193.412 6.09998 193.252 5.69997C193.092 5.29997 192.892 4.91998 192.652 4.55997C192.452 4.15998 192.332 3.91998 192.292 3.83998L192.592 1.97998H202.552C209.552 1.97998 214.272 1.79998 216.712 1.43998L217.912 1.25997L218.932 2.27998L216.172 8.57998H215.752C215.152 8.21998 214.592 7.93998 214.072 7.73998C213.232 7.37998 211.652 6.97998 209.332 6.53998C207.012 6.01998 204.492 5.81998 201.772 5.93998V20.28C204.572 20.08 206.912 19.8 208.792 19.44C211.032 19.04 212.592 18.68 213.472 18.36L214.912 17.88L215.992 18.84L213.712 24.3H201.772V39.96C205.572 39.92 209.092 39.48 212.332 38.64C215.292 37.88 217.352 37.12 218.512 36.36L220.072 35.22L221.512 36.18ZM244.221 44.04H220.581V43.74L241.821 0.419975H243.081C247.001 16.78 249.581 27.24 250.821 31.8C251.701 35 252.581 37.44 253.461 39.12L256.701 39L257.061 39.48L252.441 51.36H250.101C250.301 50.88 250.381 50.04 250.341 48.84C250.341 45.64 248.301 44.04 244.221 44.04ZM239.301 14.16L228.261 40.02L244.641 39.48L241.461 23.94L239.481 14.16H239.301ZM269.512 14.22V25.26V30.12H269.632L291.772 -2.36034e-05L293.692 0.599976C292.692 3.19998 292.192 7.71998 292.192 14.16V31.86C292.192 37.22 292.892 40.6 294.292 42L294.532 42.18L294.232 44.04H283.312V43.68C284.352 41.92 284.872 37.98 284.872 31.86V20.94V17.52H284.752L262.672 45.36L260.692 44.76C261.692 42.16 262.192 37.64 262.192 31.2V14.22C262.192 11.78 261.992 9.65998 261.592 7.85998C261.232 6.05998 260.832 4.93998 260.392 4.49998L259.792 3.89998L260.092 2.03998H271.072V2.39998C270.032 4.15998 269.512 8.09998 269.512 14.22ZM53.2699 101.87L52.9199 104.04H0.629903V103.62C1.84324 101.567 2.4499 96.97 2.4499 89.83L2.5199 69.25C2.5199 66.4033 2.3099 63.9533 1.8899 61.9C1.51657 59.8 1.09657 58.4933 0.629903 57.98L-9.74163e-05 57.21L0.349903 55.04H12.8099V55.46C11.6432 57.1866 11.0599 61.7833 11.0599 69.25L10.9899 99.35L21.9799 99L22.0499 69.25C22.0499 66.4033 21.8399 63.9533 21.4199 61.9C21.0466 59.8 20.6266 58.4933 20.1599 57.98L19.5299 57.21L19.8799 55.04H31.5699V55.46L31.4299 55.81C30.3566 58.47 29.8199 62.95 29.8199 69.25V98.79L41.9299 98.37L41.9999 69.25C41.9999 66.4033 41.7899 63.9533 41.3699 61.9C40.9966 59.8 40.5766 58.4933 40.1099 57.98L39.4799 57.21L39.8299 55.04H52.2199V55.46C51.0999 57.2333 50.5399 61.83 50.5399 69.25L50.4699 89.83C50.4699 92.6766 50.6799 95.15 51.0999 97.25C51.5666 99.35 52.0566 100.657 52.5699 101.17L53.2699 101.87ZM71.6329 69.25V82.13V87.8H71.7729L97.6029 52.66L99.8429 53.36C98.6762 56.3933 98.0929 61.6666 98.0929 69.18V89.83C98.0929 96.0833 98.9095 100.027 100.543 101.66L100.823 101.87L100.473 104.04H87.7329V103.62C88.9462 101.567 89.5529 96.97 89.5529 89.83V77.09V73.1H89.4129L63.6529 105.58L61.3429 104.88C62.5095 101.847 63.0929 96.5733 63.0929 89.06V69.25C63.0929 66.4033 62.8595 63.93 62.3929 61.83C61.9729 59.73 61.5062 58.4233 60.9929 57.91L60.2929 57.21L60.6429 55.04H73.4529V55.46C72.2395 57.5133 71.6329 62.11 71.6329 69.25ZM158.971 104.04H146.371V103.62C147.164 101.427 147.374 96.83 147.001 89.83L145.951 77.93L145.671 74.29H145.531L133.071 100.05H131.741L121.451 74.99H121.311L115.851 92.7C115.384 94.1466 115.151 95.4766 115.151 96.69C115.151 97.9033 115.244 98.79 115.431 99.35C115.664 99.91 115.944 100.47 116.271 101.03C116.644 101.543 116.831 101.823 116.831 101.87L116.481 104.04H104.371V103.62C104.791 103.2 105.538 102.057 106.611 100.19C107.731 98.1366 108.618 96.2233 109.271 94.45L118.581 68.55L117.111 64.91C115.478 61.0366 113.798 58.47 112.071 57.21L112.491 55.04H122.991L133.001 80.17L134.891 84.79H135.171L150.711 53.22H152.391L155.471 89.83C155.984 95.85 157.174 99.7933 159.041 101.66L159.321 101.87L158.971 104.04ZM175.266 69.25V82.13V87.8H175.406L201.236 52.66L203.476 53.36C202.309 56.3933 201.726 61.6666 201.726 69.18V89.83C201.726 96.0833 202.542 100.027 204.176 101.66L204.456 101.87L204.106 104.04H191.366V103.62C192.579 101.567 193.186 96.97 193.186 89.83V77.09V73.1H193.046L167.286 105.58L164.976 104.88C166.142 101.847 166.726 96.5733 166.726 89.06V69.25C166.726 66.4033 166.492 63.93 166.026 61.83C165.606 59.73 165.139 58.4233 164.626 57.91L163.926 57.21L164.276 55.04H177.086V55.46C175.872 57.5133 175.266 62.11 175.266 69.25ZM236.878 96.48L235.478 90.6H220.568L219.448 93.4C218.048 96.8533 217.838 99.56 218.818 101.52L219.028 101.87L218.678 104.04H206.568V103.62C207.875 102.313 209.018 100.75 209.998 98.93L232.958 53.15H234.428L244.578 89.83C246.212 95.6166 248.148 99.63 250.388 101.87L250.038 104.04H235.968V103.62C237.135 101.613 237.438 99.2333 236.878 96.48ZM231.348 73.24L230.158 68.27H229.948L222.598 85.84L234.218 85.42L231.348 73.24ZM254.858 57.98L254.228 57.28L254.578 55.04H267.038V55.46C265.872 57.1866 265.288 61.8066 265.288 69.32V75.9L283.768 74.92V69.32C283.768 62.9266 283.045 59.0066 281.598 57.56L281.318 57.28L281.668 55.04H294.058V55.46C292.938 57.2333 292.378 61.8533 292.378 69.32L292.308 89.76C292.308 92.6066 292.518 95.08 292.938 97.18C293.405 99.28 293.895 100.587 294.408 101.1L295.108 101.8L294.758 104.04H281.948V103.62C283.162 101.567 283.768 96.9466 283.768 89.76V80.73H265.288V89.76C265.288 92.28 265.452 94.4733 265.778 96.34C266.105 98.16 266.432 99.42 266.758 100.12C267.085 100.82 267.412 101.287 267.738 101.52L268.018 101.8L267.668 104.04H254.858V103.62C256.118 101.567 256.748 96.9466 256.748 89.76V69.32C256.748 66.4733 256.538 64 256.118 61.9C255.745 59.8 255.325 58.4933 254.858 57.98Z" fill="white"/>
</g>
</svg>
