<svg width="241" height="81" viewBox="0 0 241 81" fill="none" xmlns="http://www.w3.org/2000/svg">
<g style="mix-blend-mode:difference">
<path d="M45.534 3.80001L45.084 3.30001L45.334 1.70001H55.984C59.884 1.70001 63.0173 2.28334 65.384 3.45001C68.3173 4.75001 69.784 7.33334 69.784 11.2C69.784 14.2 68.434 17 65.734 19.6C63.1007 22.2 59.534 23.6 55.034 23.8L54.684 22.5C56.984 22.1 58.9173 20.9 60.484 18.9C62.0173 16.9333 62.784 14.5667 62.784 11.8C62.784 9.46668 62.1173 7.66668 60.784 6.40001C59.484 5.13334 57.8007 4.50001 55.734 4.50001H53.034L52.934 26.5C52.934 28.5333 53.084 30.3 53.384 31.8C53.7173 33.3 54.0673 34.2333 54.434 34.6L54.934 35.1L54.684 36.7H45.534V36.4C46.4007 34.9333 46.834 31.6333 46.834 26.5V11.9C46.834 9.86668 46.684 8.10001 46.384 6.60001C46.1173 5.10001 45.834 4.16668 45.534 3.80001ZM96.8754 30.15L94.2754 36.7H72.9754V36.4C73.8754 34.9333 74.3254 31.65 74.3254 26.55V11.8C74.3254 10.5667 74.2754 9.46668 74.1754 8.50001C74.1087 7.53334 73.9754 6.75001 73.7754 6.15001C73.6087 5.55001 73.4587 5.08334 73.3254 4.75001C73.1921 4.41668 73.0254 4.10001 72.8254 3.80001C72.6587 3.46668 72.5587 3.26668 72.5254 3.20001L72.7754 1.65001H81.0754C86.9087 1.65001 90.8421 1.50001 92.8754 1.20001L93.8754 1.05001L94.7254 1.90001L92.4254 7.15001H92.0754C91.5754 6.85001 91.1087 6.61668 90.6754 6.45001C89.9754 6.15001 88.6587 5.81668 86.7254 5.45001C84.7921 5.01668 82.6921 4.85001 80.4254 4.95001V16.9C82.7587 16.7333 84.7087 16.5 86.2754 16.2C88.1421 15.8667 89.4421 15.5667 90.1754 15.3L91.3754 14.9L92.2754 15.7L90.3754 20.25H80.4254V33.3C83.5921 33.2667 86.5254 32.9 89.2254 32.2C91.6921 31.5667 93.4087 30.9333 94.3754 30.3L95.6754 29.35L96.8754 30.15ZM116.65 31.3L112.35 11.15H112.2L105.25 29.15C104.25 31.5833 104.083 33.5 104.75 34.9L104.9 35.15L104.65 36.7H96.0996V36.4C96.9996 35.5 97.7829 34.3833 98.4496 33.05L114.35 0.350009H115.4L122.15 26.55C123.216 30.5833 124.6 33.45 126.3 35.15L126.05 36.7H116V36.4C116.833 34.9667 117.05 33.2667 116.65 31.3ZM137.168 11.85V21.05V25.1H137.268L155.718 1.0848e-05L157.318 0.50001C156.485 2.66668 156.068 6.43334 156.068 11.8V26.55C156.068 31.0167 156.652 33.8333 157.818 35L158.018 35.15L157.768 36.7H148.668V36.4C149.535 34.9333 149.968 31.65 149.968 26.55V17.45V14.6H149.868L131.468 37.8L129.818 37.3C130.652 35.1333 131.068 31.3667 131.068 26V11.85C131.068 9.81668 130.902 8.05001 130.568 6.55001C130.268 5.05001 129.935 4.11668 129.568 3.75001L129.068 3.25001L129.318 1.70001H138.468V2.00001C137.602 3.46668 137.168 6.75001 137.168 11.85ZM185.753 1.70001L185.953 2.30001C181.053 6.16668 178.603 9.31668 178.603 11.75C178.603 12.8833 179.686 14.6667 181.853 17.1C184.053 19.4333 185.153 21.8833 185.153 24.45C185.153 28.2167 183.836 31.3167 181.203 33.75C178.569 36.1833 175.819 37.4 172.953 37.4C170.686 37.4 168.453 36.7333 166.253 35.4C165.019 34.6667 163.953 33.5 163.053 31.9C162.186 30.2667 161.603 28.3667 161.303 26.2L166.503 24.7C166.536 27 167.103 29.1 168.203 31C169.269 32.8667 170.669 33.8 172.403 33.8C173.936 33.8 175.303 33.15 176.503 31.85C177.703 30.4833 178.303 28.85 178.303 26.95C178.303 24.1833 177.303 21.55 175.303 19.05C173.903 17.15 172.653 15.7333 171.553 14.8V14.4L178.503 5.50001C175.503 5.66668 172.753 6.03334 170.253 6.60001C167.619 7.20001 165.753 7.76668 164.653 8.30001L162.953 9.05001L161.753 8.30001L164.453 1.70001H185.753ZM6.7 69.5L6.8 63.05L7 52.55L0.8 54.45L0 52.55C3.46667 50.4833 6.83333 47.8667 10.1 44.7H14.3V45C13.5667 46.2667 13.1167 49.5667 12.95 54.9L12.6 69.5C12.5333 71.5333 12.65 73.3 12.95 74.8C13.25 76.3 13.5833 77.2333 13.95 77.6L14.45 78.1L14.2 79.7H4.7V79.4C4.76667 79.3333 4.93333 79.0667 5.2 78.6C5.46667 78.2 5.76667 77.15 6.1 75.45C6.43333 73.75 6.63333 71.7667 6.7 69.5ZM16.6992 67.5L35.0992 44.7H39.2992V45C39.1659 45.1333 39.0326 45.4 38.8992 45.8C38.3992 47.3667 38.0826 50.4 37.9492 54.9L37.6992 65.1L42.4492 65.4L41.9492 68.45L37.5992 68.55V69.5C37.5992 74.4 38.2159 77.2667 39.4492 78.1L39.1992 79.7H29.6992V79.4C31.0326 77.4333 31.6992 74.1333 31.6992 69.5V68.7L17.1992 69L16.6992 67.5ZM31.9492 52.9L24.2992 64.4L31.7492 64.85L32.1492 53L31.9492 52.9ZM60.6707 46.8L60.2207 46.3L60.4707 44.7H69.3707V45C68.5374 46.2333 68.1207 49.5333 68.1207 54.9V59.6L81.3207 58.9V54.9C81.3207 50.3333 80.804 47.5333 79.7707 46.5L79.5707 46.3L79.8207 44.7H88.6707V45C87.8707 46.2667 87.4707 49.5667 87.4707 54.9L87.4207 69.5C87.4207 71.5333 87.5707 73.3 87.8707 74.8C88.204 76.3 88.554 77.2333 88.9207 77.6L89.4207 78.1L89.1707 79.7H80.0207V79.4C80.8874 77.9333 81.3207 74.6333 81.3207 69.5V63.05H68.1207V69.5C68.1207 71.3 68.2374 72.8667 68.4707 74.2C68.704 75.5 68.9374 76.4 69.1707 76.9C69.404 77.4 69.6374 77.7333 69.8707 77.9L70.0707 78.1L69.8207 79.7H60.6707V79.4C61.5707 77.9333 62.0207 74.6333 62.0207 69.5V54.9C62.0207 52.8667 61.8707 51.1 61.5707 49.6C61.304 48.1 61.004 47.1667 60.6707 46.8ZM93.2109 62.35C93.2109 57.3833 94.7609 53.05 97.8609 49.35C101.028 45.65 104.778 43.8 109.111 43.8C113.644 43.8 117.361 45.4167 120.261 48.65C123.161 51.85 124.611 56.2833 124.611 61.95C124.611 67.0167 123.011 71.3833 119.811 75.05C116.678 78.6833 112.978 80.5 108.711 80.5C104.344 80.5 100.661 78.9167 97.6609 75.75C94.6943 72.5167 93.2109 68.05 93.2109 62.35ZM117.711 62.3C117.711 57.7 116.878 54.0167 115.211 51.25C113.544 48.4833 111.311 47.1 108.511 47.1C106.178 47.1 104.178 48.4833 102.511 51.25C100.911 53.9833 100.111 57.5667 100.111 62C100.111 66.6667 100.928 70.3333 102.561 73C104.228 75.6667 106.461 77 109.261 77C111.594 77 113.578 75.6333 115.211 72.9C116.878 70.1333 117.711 66.6 117.711 62.3ZM128.685 56.4C128.685 53.6 129.951 50.9833 132.485 48.55C135.285 45.9833 139.368 44.7 144.735 44.7H153.035V45C152.201 46.3333 151.785 49.5833 151.785 54.75V69.5C151.785 73.9333 152.435 76.8 153.735 78.1L153.485 79.7H144.335V79.4C145.201 77.0667 145.635 73.7667 145.635 69.5L145.735 47.5C142.701 47.5 140.201 48.3333 138.235 50C136.335 51.6667 135.385 53.7667 135.385 56.3C135.385 58.5333 136.101 60.2667 137.535 61.5C138.968 62.7333 140.668 63.5 142.635 63.8L142.885 64.6C142.585 64.9 142.085 65.5667 141.385 66.6C140.718 67.5667 139.735 69.3833 138.435 72.05C137.168 74.6167 136.218 77.1667 135.585 79.7H126.635V79.3C130.768 73.8 133.918 69.1 136.085 65.2C134.051 64.9333 132.301 63.9833 130.835 62.35C129.401 60.7167 128.685 58.7333 128.685 56.4ZM166.806 47.95L166.606 77H167.556C169.956 77 172.056 75.9167 173.856 73.75C175.689 71.5833 176.606 69.1 176.606 66.3C176.606 61.5333 174.123 59.3333 169.156 59.7L168.956 58.5C170.856 57.6667 172.806 57.25 174.806 57.25C177.373 57.25 179.473 58.05 181.106 59.65C182.739 61.25 183.556 63.4167 183.556 66.15C183.556 67.2833 183.373 68.45 183.006 69.65C182.673 70.85 182.089 72.05 181.256 73.25C180.456 74.45 179.473 75.5333 178.306 76.5C177.173 77.4333 175.706 78.2 173.906 78.8C172.139 79.4 170.189 79.7 168.056 79.7H159.206V79.4C160.006 77.8 160.439 74.5 160.506 69.5L160.556 54.9C160.556 50.3667 159.989 47.5333 158.856 46.4L158.756 46.3L159.006 44.7H172.156C174.156 44.7 175.973 44.6333 177.606 44.5C179.539 44.3333 180.606 44.2167 180.806 44.15L181.706 44.95L179.056 50.6H178.706C175.239 48.6333 171.273 47.75 166.806 47.95ZM187.673 46.8L187.223 46.3L187.473 44.7H198.123C202.023 44.7 205.156 45.2833 207.523 46.45C210.456 47.75 211.923 50.3333 211.923 54.2C211.923 57.2 210.573 60 207.873 62.6C205.239 65.2 201.673 66.6 197.173 66.8L196.823 65.5C199.123 65.1 201.056 63.9 202.623 61.9C204.156 59.9333 204.923 57.5667 204.923 54.8C204.923 52.4667 204.256 50.6667 202.923 49.4C201.623 48.1333 199.939 47.5 197.873 47.5H195.173L195.073 69.5C195.073 71.5333 195.223 73.3 195.523 74.8C195.856 76.3 196.206 77.2333 196.573 77.6L197.073 78.1L196.823 79.7H187.673V79.4C188.539 77.9333 188.973 74.6333 188.973 69.5V54.9C188.973 52.8667 188.823 51.1 188.523 49.6C188.256 48.1 187.973 47.1667 187.673 46.8ZM214.964 56.4C214.964 53.6 216.231 50.9833 218.764 48.55C221.564 45.9833 225.647 44.7 231.014 44.7H239.314V45C238.481 46.3333 238.064 49.5833 238.064 54.75V69.5C238.064 73.9333 238.714 76.8 240.014 78.1L239.764 79.7H230.614V79.4C231.481 77.0667 231.914 73.7667 231.914 69.5L232.014 47.5C228.981 47.5 226.481 48.3333 224.514 50C222.614 51.6667 221.664 53.7667 221.664 56.3C221.664 58.5333 222.381 60.2667 223.814 61.5C225.247 62.7333 226.947 63.5 228.914 63.8L229.164 64.6C228.864 64.9 228.364 65.5667 227.664 66.6C226.997 67.5667 226.014 69.3833 224.714 72.05C223.447 74.6167 222.497 77.1667 221.864 79.7H212.914V79.3C217.047 73.8 220.197 69.1 222.364 65.2C220.331 64.9333 218.581 63.9833 217.114 62.35C215.681 60.7167 214.964 58.7333 214.964 56.4Z" fill="white"/>
</g>
</svg>
